G04 #@! TF.GenerationSoftware,KiCad,Pcbnew,(5.1.5-0-10_14)*
G04 #@! TF.CreationDate,2020-05-07T23:45:50-07:00*
G04 #@! TF.ProjectId,basis_combined_PROTON,62617369-735f-4636-9f6d-62696e65645f,rev?*
G04 #@! TF.SameCoordinates,Original*
G04 #@! TF.FileFunction,Soldermask,Top*
G04 #@! TF.FilePolarity,Negative*
%FSLAX46Y46*%
G04 Gerber Fmt 4.6, Leading zero omitted, Abs format (unit mm)*
G04 Created by KiCad (PCBNEW (5.1.5-0-10_14)) date 2020-05-07 23:45:50*
%MOMM*%
%LPD*%
G04 APERTURE LIST*
%ADD10C,1.701800*%
%ADD11C,2.286000*%
%ADD12C,3.987800*%
%ADD13C,3.000000*%
%ADD14O,1.200000X1.900000*%
%ADD15C,1.450000*%
%ADD16C,2.400000*%
%ADD17C,2.000000*%
%ADD18R,2.000000X3.200000*%
G04 APERTURE END LIST*
D10*
X-35242500Y-199231250D03*
X-25082500Y-199231250D03*
D11*
X-33972500Y-196691250D03*
D12*
X-30162500Y-199231250D03*
D11*
X-27622500Y-194151250D03*
D13*
X-26352500Y-201771250D03*
X-32702500Y-204311250D03*
D10*
X-54292500Y-123031250D03*
X-44132500Y-123031250D03*
D11*
X-53022500Y-120491250D03*
D12*
X-49212500Y-123031250D03*
D11*
X-46672500Y-117951250D03*
D13*
X-45402500Y-125571250D03*
X-51752500Y-128111250D03*
D10*
X-35242500Y-123031250D03*
X-25082500Y-123031250D03*
D11*
X-33972500Y-120491250D03*
D12*
X-30162500Y-123031250D03*
D11*
X-27622500Y-117951250D03*
D13*
X-26352500Y-125571250D03*
X-32702500Y-128111250D03*
D10*
X-16192500Y-123031250D03*
X-6032500Y-123031250D03*
D11*
X-14922500Y-120491250D03*
D12*
X-11112500Y-123031250D03*
D11*
X-8572500Y-117951250D03*
D13*
X-7302500Y-125571250D03*
X-13652500Y-128111250D03*
D10*
X2857500Y-123031250D03*
X13017500Y-123031250D03*
D11*
X4127500Y-120491250D03*
D12*
X7937500Y-123031250D03*
D11*
X10477500Y-117951250D03*
D13*
X11747500Y-125571250D03*
X5397500Y-128111250D03*
D10*
X-54292500Y-161131250D03*
X-44132500Y-161131250D03*
D11*
X-53022500Y-158591250D03*
D12*
X-49212500Y-161131250D03*
D11*
X-46672500Y-156051250D03*
D13*
X-45402500Y-163671250D03*
X-51752500Y-166211250D03*
D10*
X-16192500Y-180181250D03*
X-6032500Y-180181250D03*
D11*
X-14922500Y-177641250D03*
D12*
X-11112500Y-180181250D03*
D11*
X-8572500Y-175101250D03*
D13*
X-7302500Y-182721250D03*
X-13652500Y-185261250D03*
D10*
X-16192500Y-199231250D03*
X-6032500Y-199231250D03*
D11*
X-14922500Y-196691250D03*
D12*
X-11112500Y-199231250D03*
D11*
X-8572500Y-194151250D03*
D13*
X-7302500Y-201771250D03*
X-13652500Y-204311250D03*
D10*
X-54292500Y-199231250D03*
X-44132500Y-199231250D03*
D11*
X-53022500Y-196691250D03*
D12*
X-49212500Y-199231250D03*
D11*
X-46672500Y-194151250D03*
D13*
X-45402500Y-201771250D03*
X-51752500Y-204311250D03*
D10*
X-16192500Y-161131250D03*
X-6032500Y-161131250D03*
D11*
X-14922500Y-158591250D03*
D12*
X-11112500Y-161131250D03*
D11*
X-8572500Y-156051250D03*
D13*
X-7302500Y-163671250D03*
X-13652500Y-166211250D03*
D10*
X-16192500Y-142081250D03*
X-6032500Y-142081250D03*
D11*
X-14922500Y-139541250D03*
D12*
X-11112500Y-142081250D03*
D11*
X-8572500Y-137001250D03*
D13*
X-7302500Y-144621250D03*
X-13652500Y-147161250D03*
D10*
X2857500Y-161131250D03*
X13017500Y-161131250D03*
D11*
X4127500Y-158591250D03*
D12*
X7937500Y-161131250D03*
D11*
X10477500Y-156051250D03*
D13*
X11747500Y-163671250D03*
X5397500Y-166211250D03*
D10*
X-73342500Y-199231250D03*
X-63182500Y-199231250D03*
D11*
X-72072500Y-196691250D03*
D12*
X-68262500Y-199231250D03*
D11*
X-65722500Y-194151250D03*
D13*
X-64452500Y-201771250D03*
X-70802500Y-204311250D03*
D10*
X21907500Y-161131250D03*
X32067500Y-161131250D03*
D11*
X23177500Y-158591250D03*
D12*
X26987500Y-161131250D03*
D11*
X29527500Y-156051250D03*
D13*
X30797500Y-163671250D03*
X24447500Y-166211250D03*
D10*
X-54292500Y-142081250D03*
X-44132500Y-142081250D03*
D11*
X-53022500Y-139541250D03*
D12*
X-49212500Y-142081250D03*
D11*
X-46672500Y-137001250D03*
D13*
X-45402500Y-144621250D03*
X-51752500Y-147161250D03*
D10*
X2857500Y-142081250D03*
X13017500Y-142081250D03*
D11*
X4127500Y-139541250D03*
D12*
X7937500Y-142081250D03*
D11*
X10477500Y-137001250D03*
D13*
X11747500Y-144621250D03*
X5397500Y-147161250D03*
D10*
X-35242500Y-161131250D03*
X-25082500Y-161131250D03*
D11*
X-33972500Y-158591250D03*
D12*
X-30162500Y-161131250D03*
D11*
X-27622500Y-156051250D03*
D13*
X-26352500Y-163671250D03*
X-32702500Y-166211250D03*
D10*
X2857500Y-199231250D03*
X13017500Y-199231250D03*
D11*
X4127500Y-196691250D03*
D12*
X7937500Y-199231250D03*
D11*
X10477500Y-194151250D03*
D13*
X11747500Y-201771250D03*
X5397500Y-204311250D03*
D10*
X21907500Y-199231250D03*
X32067500Y-199231250D03*
D11*
X23177500Y-196691250D03*
D12*
X26987500Y-199231250D03*
D11*
X29527500Y-194151250D03*
D13*
X30797500Y-201771250D03*
X24447500Y-204311250D03*
D10*
X22542500Y-199231250D03*
X12382500Y-199231250D03*
D11*
X21272500Y-201771250D03*
D12*
X17462500Y-199231250D03*
D11*
X14922500Y-204311250D03*
D13*
X13652500Y-196691250D03*
X20002500Y-194151250D03*
D10*
X21907500Y-142081250D03*
X32067500Y-142081250D03*
D11*
X23177500Y-139541250D03*
D12*
X26987500Y-142081250D03*
D11*
X29527500Y-137001250D03*
D13*
X30797500Y-144621250D03*
X24447500Y-147161250D03*
D10*
X2857500Y-180181250D03*
X13017500Y-180181250D03*
D11*
X4127500Y-177641250D03*
D12*
X7937500Y-180181250D03*
D11*
X10477500Y-175101250D03*
D13*
X11747500Y-182721250D03*
X5397500Y-185261250D03*
D10*
X-35242500Y-142081250D03*
X-25082500Y-142081250D03*
D11*
X-33972500Y-139541250D03*
D12*
X-30162500Y-142081250D03*
D11*
X-27622500Y-137001250D03*
D13*
X-26352500Y-144621250D03*
X-32702500Y-147161250D03*
D10*
X-35242500Y-180181250D03*
X-25082500Y-180181250D03*
D11*
X-33972500Y-177641250D03*
D12*
X-30162500Y-180181250D03*
D11*
X-27622500Y-175101250D03*
D13*
X-26352500Y-182721250D03*
X-32702500Y-185261250D03*
D10*
X-54292500Y-180181250D03*
X-44132500Y-180181250D03*
D11*
X-53022500Y-177641250D03*
D12*
X-49212500Y-180181250D03*
D11*
X-46672500Y-175101250D03*
D13*
X-45402500Y-182721250D03*
X-51752500Y-185261250D03*
D10*
X-78105000Y-123031250D03*
X-67945000Y-123031250D03*
D11*
X-76835000Y-120491250D03*
D12*
X-73025000Y-123031250D03*
D11*
X-70485000Y-117951250D03*
D13*
X-69215000Y-125571250D03*
X-75565000Y-128111250D03*
D10*
X-78105000Y-142081250D03*
X-67945000Y-142081250D03*
D11*
X-76835000Y-139541250D03*
D12*
X-73025000Y-142081250D03*
D11*
X-70485000Y-137001250D03*
D13*
X-69215000Y-144621250D03*
X-75565000Y-147161250D03*
D10*
X-78105000Y-161131250D03*
X-67945000Y-161131250D03*
D11*
X-76835000Y-158591250D03*
D12*
X-73025000Y-161131250D03*
D11*
X-70485000Y-156051250D03*
D13*
X-69215000Y-163671250D03*
X-75565000Y-166211250D03*
D10*
X21907500Y-123031250D03*
X32067500Y-123031250D03*
D11*
X23177500Y-120491250D03*
D12*
X26987500Y-123031250D03*
D11*
X29527500Y-117951250D03*
D13*
X30797500Y-125571250D03*
X24447500Y-128111250D03*
D10*
X21907500Y-180181250D03*
X32067500Y-180181250D03*
D11*
X23177500Y-177641250D03*
D12*
X26987500Y-180181250D03*
D11*
X29527500Y-175101250D03*
D13*
X30797500Y-182721250D03*
X24447500Y-185261250D03*
D10*
X40957500Y-142081250D03*
X51117500Y-142081250D03*
D11*
X42227500Y-139541250D03*
D12*
X46037500Y-142081250D03*
D11*
X48577500Y-137001250D03*
D13*
X49847500Y-144621250D03*
X43497500Y-147161250D03*
D10*
X117157500Y-199231250D03*
X127317500Y-199231250D03*
D11*
X118427500Y-196691250D03*
D12*
X122237500Y-199231250D03*
D11*
X124777500Y-194151250D03*
D13*
X126047500Y-201771250D03*
X119697500Y-204311250D03*
D10*
X60007500Y-142081250D03*
X70167500Y-142081250D03*
D11*
X61277500Y-139541250D03*
D12*
X65087500Y-142081250D03*
D11*
X67627500Y-137001250D03*
D13*
X68897500Y-144621250D03*
X62547500Y-147161250D03*
D10*
X136207500Y-142081250D03*
X146367500Y-142081250D03*
D11*
X137477500Y-139541250D03*
D12*
X141287500Y-142081250D03*
D11*
X143827500Y-137001250D03*
D13*
X145097500Y-144621250D03*
X138747500Y-147161250D03*
D10*
X60642500Y-199231250D03*
X50482500Y-199231250D03*
D11*
X59372500Y-201771250D03*
D12*
X55562500Y-199231250D03*
D11*
X53022500Y-204311250D03*
D13*
X51752500Y-196691250D03*
X58102500Y-194151250D03*
D10*
X60007500Y-199231250D03*
X70167500Y-199231250D03*
D11*
X61277500Y-196691250D03*
D12*
X65087500Y-199231250D03*
D11*
X67627500Y-194151250D03*
D13*
X68897500Y-201771250D03*
X62547500Y-204311250D03*
D10*
X40957500Y-199231250D03*
X51117500Y-199231250D03*
D11*
X42227500Y-196691250D03*
D12*
X46037500Y-199231250D03*
D11*
X48577500Y-194151250D03*
D13*
X49847500Y-201771250D03*
X43497500Y-204311250D03*
D10*
X136207500Y-199231250D03*
X146367500Y-199231250D03*
D11*
X137477500Y-196691250D03*
D12*
X141287500Y-199231250D03*
D11*
X143827500Y-194151250D03*
D13*
X145097500Y-201771250D03*
X138747500Y-204311250D03*
D10*
X117157500Y-142081250D03*
X127317500Y-142081250D03*
D11*
X118427500Y-139541250D03*
D12*
X122237500Y-142081250D03*
D11*
X124777500Y-137001250D03*
D13*
X126047500Y-144621250D03*
X119697500Y-147161250D03*
D10*
X98107500Y-142081250D03*
X108267500Y-142081250D03*
D11*
X99377500Y-139541250D03*
D12*
X103187500Y-142081250D03*
D11*
X105727500Y-137001250D03*
D13*
X106997500Y-144621250D03*
X100647500Y-147161250D03*
D10*
X40957500Y-180181250D03*
X51117500Y-180181250D03*
D11*
X42227500Y-177641250D03*
D12*
X46037500Y-180181250D03*
D11*
X48577500Y-175101250D03*
D13*
X49847500Y-182721250D03*
X43497500Y-185261250D03*
D10*
X60007500Y-180181250D03*
X70167500Y-180181250D03*
D11*
X61277500Y-177641250D03*
D12*
X65087500Y-180181250D03*
D11*
X67627500Y-175101250D03*
D13*
X68897500Y-182721250D03*
X62547500Y-185261250D03*
D10*
X79057500Y-199231250D03*
X89217500Y-199231250D03*
D11*
X80327500Y-196691250D03*
D12*
X84137500Y-199231250D03*
D11*
X86677500Y-194151250D03*
D13*
X87947500Y-201771250D03*
X81597500Y-204311250D03*
D10*
X98107500Y-161131250D03*
X108267500Y-161131250D03*
D11*
X99377500Y-158591250D03*
D12*
X103187500Y-161131250D03*
D11*
X105727500Y-156051250D03*
D13*
X106997500Y-163671250D03*
X100647500Y-166211250D03*
D10*
X79057500Y-161131250D03*
X89217500Y-161131250D03*
D11*
X80327500Y-158591250D03*
D12*
X84137500Y-161131250D03*
D11*
X86677500Y-156051250D03*
D13*
X87947500Y-163671250D03*
X81597500Y-166211250D03*
D10*
X60007500Y-161131250D03*
X70167500Y-161131250D03*
D11*
X61277500Y-158591250D03*
D12*
X65087500Y-161131250D03*
D11*
X67627500Y-156051250D03*
D13*
X68897500Y-163671250D03*
X62547500Y-166211250D03*
D10*
X79057500Y-142081250D03*
X89217500Y-142081250D03*
D11*
X80327500Y-139541250D03*
D12*
X84137500Y-142081250D03*
D11*
X86677500Y-137001250D03*
D13*
X87947500Y-144621250D03*
X81597500Y-147161250D03*
D10*
X40957500Y-161131250D03*
X51117500Y-161131250D03*
D11*
X42227500Y-158591250D03*
D12*
X46037500Y-161131250D03*
D11*
X48577500Y-156051250D03*
D13*
X49847500Y-163671250D03*
X43497500Y-166211250D03*
D10*
X98107500Y-199231250D03*
X108267500Y-199231250D03*
D11*
X99377500Y-196691250D03*
D12*
X103187500Y-199231250D03*
D11*
X105727500Y-194151250D03*
D13*
X106997500Y-201771250D03*
X100647500Y-204311250D03*
D10*
X155257500Y-123031250D03*
X165417500Y-123031250D03*
D11*
X156527500Y-120491250D03*
D12*
X160337500Y-123031250D03*
D11*
X162877500Y-117951250D03*
D13*
X164147500Y-125571250D03*
X157797500Y-128111250D03*
D10*
X136207500Y-123031250D03*
X146367500Y-123031250D03*
D11*
X137477500Y-120491250D03*
D12*
X141287500Y-123031250D03*
D11*
X143827500Y-117951250D03*
D13*
X145097500Y-125571250D03*
X138747500Y-128111250D03*
D10*
X155257500Y-142081250D03*
X165417500Y-142081250D03*
D11*
X156527500Y-139541250D03*
D12*
X160337500Y-142081250D03*
D11*
X162877500Y-137001250D03*
D13*
X164147500Y-144621250D03*
X157797500Y-147161250D03*
D10*
X117157500Y-161131250D03*
X127317500Y-161131250D03*
D11*
X118427500Y-158591250D03*
D12*
X122237500Y-161131250D03*
D11*
X124777500Y-156051250D03*
D13*
X126047500Y-163671250D03*
X119697500Y-166211250D03*
D10*
X117157500Y-180181250D03*
X127317500Y-180181250D03*
D11*
X118427500Y-177641250D03*
D12*
X122237500Y-180181250D03*
D11*
X124777500Y-175101250D03*
D13*
X126047500Y-182721250D03*
X119697500Y-185261250D03*
D10*
X136207500Y-161131250D03*
X146367500Y-161131250D03*
D11*
X137477500Y-158591250D03*
D12*
X141287500Y-161131250D03*
D11*
X143827500Y-156051250D03*
D13*
X145097500Y-163671250D03*
X138747500Y-166211250D03*
D10*
X98107500Y-123031250D03*
X108267500Y-123031250D03*
D11*
X99377500Y-120491250D03*
D12*
X103187500Y-123031250D03*
D11*
X105727500Y-117951250D03*
D13*
X106997500Y-125571250D03*
X100647500Y-128111250D03*
D10*
X79057500Y-123031250D03*
X89217500Y-123031250D03*
D11*
X80327500Y-120491250D03*
D12*
X84137500Y-123031250D03*
D11*
X86677500Y-117951250D03*
D13*
X87947500Y-125571250D03*
X81597500Y-128111250D03*
D10*
X60007500Y-123031250D03*
X70167500Y-123031250D03*
D11*
X61277500Y-120491250D03*
D12*
X65087500Y-123031250D03*
D11*
X67627500Y-117951250D03*
D13*
X68897500Y-125571250D03*
X62547500Y-128111250D03*
D10*
X40957500Y-123031250D03*
X51117500Y-123031250D03*
D11*
X42227500Y-120491250D03*
D12*
X46037500Y-123031250D03*
D11*
X48577500Y-117951250D03*
D13*
X49847500Y-125571250D03*
X43497500Y-128111250D03*
D10*
X79057500Y-180181250D03*
X89217500Y-180181250D03*
D11*
X80327500Y-177641250D03*
D12*
X84137500Y-180181250D03*
D11*
X86677500Y-175101250D03*
D13*
X87947500Y-182721250D03*
X81597500Y-185261250D03*
D10*
X98107500Y-180181250D03*
X108267500Y-180181250D03*
D11*
X99377500Y-177641250D03*
D12*
X103187500Y-180181250D03*
D11*
X105727500Y-175101250D03*
D13*
X106997500Y-182721250D03*
X100647500Y-185261250D03*
D10*
X117157500Y-123031250D03*
X127317500Y-123031250D03*
D11*
X118427500Y-120491250D03*
D12*
X122237500Y-123031250D03*
D11*
X124777500Y-117951250D03*
D13*
X126047500Y-125571250D03*
X119697500Y-128111250D03*
D10*
X140970000Y-180181250D03*
X151130000Y-180181250D03*
D11*
X142240000Y-177641250D03*
D12*
X146050000Y-180181250D03*
D11*
X148590000Y-175101250D03*
D13*
X149860000Y-182721250D03*
X143510000Y-185261250D03*
D10*
X179070000Y-123031250D03*
X189230000Y-123031250D03*
D11*
X180340000Y-120491250D03*
D12*
X184150000Y-123031250D03*
D11*
X186690000Y-117951250D03*
D13*
X187960000Y-125571250D03*
X181610000Y-128111250D03*
D10*
X179070000Y-142081250D03*
X189230000Y-142081250D03*
D11*
X180340000Y-139541250D03*
D12*
X184150000Y-142081250D03*
D11*
X186690000Y-137001250D03*
D13*
X187960000Y-144621250D03*
X181610000Y-147161250D03*
D10*
X160020000Y-161131250D03*
X170180000Y-161131250D03*
D11*
X161290000Y-158591250D03*
D12*
X165100000Y-161131250D03*
D11*
X167640000Y-156051250D03*
D13*
X168910000Y-163671250D03*
X162560000Y-166211250D03*
D10*
X-78105000Y-180181250D03*
X-67945000Y-180181250D03*
D11*
X-76835000Y-177641250D03*
D12*
X-73025000Y-180181250D03*
D11*
X-70485000Y-175101250D03*
D13*
X-69215000Y-182721250D03*
X-75565000Y-185261250D03*
D14*
X59070000Y-114908750D03*
X52070000Y-114908750D03*
D15*
X58070000Y-117608750D03*
X53070000Y-117608750D03*
D14*
X20952500Y-114911250D03*
X13952500Y-114911250D03*
D15*
X19952500Y-117611250D03*
X14952500Y-117611250D03*
D14*
X175750000Y-114918750D03*
X168750000Y-114918750D03*
D15*
X174750000Y-117618750D03*
X169750000Y-117618750D03*
D14*
X-95718750Y-114911250D03*
X-102718750Y-114911250D03*
D15*
X-96718750Y-117611250D03*
X-101718750Y-117611250D03*
D16*
X-81756250Y-196850000D03*
X-120650000Y-134143750D03*
X17462500Y-151606250D03*
X-1587500Y-189706250D03*
X74612500Y-189706250D03*
X154781250Y-196850000D03*
X55562500Y-151606250D03*
X193675000Y-134143750D03*
D17*
X-118387500Y-130031250D03*
X-113387500Y-130031250D03*
D18*
X-121487500Y-123031250D03*
X-110287500Y-123031250D03*
D17*
X-118387500Y-115531250D03*
X-115887500Y-115531250D03*
X-113387500Y-115531250D03*
X-113625000Y-158606250D03*
X-108625000Y-158606250D03*
D18*
X-116725000Y-151606250D03*
X-105525000Y-151606250D03*
D17*
X-113625000Y-144106250D03*
X-111125000Y-144106250D03*
X-108625000Y-144106250D03*
X-108862500Y-187181250D03*
X-103862500Y-187181250D03*
D18*
X-111962500Y-180181250D03*
X-100762500Y-180181250D03*
D17*
X-108862500Y-172681250D03*
X-106362500Y-172681250D03*
X-103862500Y-172681250D03*
M02*
