M48
; DRILL file {KiCad (5.1.5-0-10_14)} date Thursday, May 07, 2020 at 11:46:06 PM
; FORMAT={2:4/ absolute / inch / suppress leading zeros}
; #@! TF.CreationDate,2020-05-07T23:46:06-07:00
; #@! TF.GenerationSoftware,Kicad,Pcbnew,(5.1.5-0-10_14)
FMAT,2
INCH,TZ
T1C0.0157
T2C0.0236
T3C0.0335
T4C0.0591
T5C0.0600
T6C0.0602
T7C0.0606
T8C0.0945
T9C0.0670
T10C0.1181
T11C0.1570
%
G90
G05
T1
X-44734Y-63172
X-44688Y-57813
X-42813Y-57813
X-42500Y-53750
X-42188Y-65938
X-40313Y-63911
X-40000Y-51875
X-40000Y-62813
X-39688Y-50938
X-39688Y-68750
X-39375Y-65465
X-38750Y-50938
X-38750Y-70625
X-37813Y-53438
X-37813Y-66250
X-37813Y-71875
X-37500Y-51875
X-37500Y-53125
X-37188Y-59688
X-37188Y-68438
X-37188Y-69063
X-36875Y-59375
X-36850Y-53100
X-36563Y-59063
X-36250Y-49375
X-36250Y-56563
X-35938Y-47500
X-35938Y-66875
X-35938Y-69688
X-35625Y-48125
X-35625Y-51250
X-35625Y-53750
X-35608Y-50224
X-35000Y-48125
X-34900Y-67200
X-34375Y-61250
X-34063Y-60938
X-33800Y-67100
X-33750Y-54375
X-33750Y-60000
X-33750Y-61250
X-32813Y-51875
X-32800Y-65200
X-32500Y-51250
X-25700Y-73100
X-25625Y-50625
X-25625Y-53750
X-25625Y-58125
X-25625Y-61250
X-25625Y-65625
X-25625Y-67500
X-25625Y-68750
X-23750Y-76250
X-16250Y-50625
X-16250Y-53750
X-16250Y-58125
X-16250Y-61250
X-16250Y-65625
X-16250Y-67188
X-16250Y-68750
X-16250Y-73125
X-16250Y-76250
X-9063Y-50625
X-8750Y-53750
X-8750Y-58125
X-8750Y-61250
X-8750Y-65625
X-8750Y-66875
X-8750Y-68750
X-8750Y-73125
X-8750Y-76250
X-1563Y-73125
X-1563Y-76250
X-1250Y-50625
X-1250Y-53750
X-1250Y-58125
X-1250Y-61250
X-1250Y-65625
X-1250Y-66563
X-1250Y-68750
X938Y-45625
X5313Y-75313
X5625Y-59688
X5938Y-50625
X5938Y-53750
X5938Y-73125
X6250Y-51563
X6250Y-58125
X6250Y-61250
X6250Y-65625
X6250Y-68750
X6563Y-51875
X6670Y-47226
X6901Y-46875
X6988Y-52188
X7382Y-52500
X7383Y-47819
X9063Y-46250
X11250Y-52188
X11875Y-51563
X13125Y-51875
X17813Y-45625
X19063Y-52500
X19375Y-51875
X20000Y-52188
X20313Y-51563
X20938Y-50625
X20938Y-55313
X20938Y-58125
X20938Y-62813
X20938Y-65625
X20938Y-66875
X20938Y-70313
X20938Y-73125
X20938Y-76250
X21563Y-47500
X21563Y-51875
X21875Y-47813
X21875Y-52188
X22626Y-47609
X22813Y-52500
X24375Y-45625
X28438Y-50625
X28438Y-55313
X28438Y-58125
X28438Y-62813
X28438Y-65625
X28438Y-66563
X28438Y-70313
X28438Y-73125
X28438Y-77813
X35938Y-50625
X35938Y-55313
X35938Y-58125
X35938Y-62813
X35938Y-65625
X35938Y-70313
X35938Y-73750
X35938Y-77813
X36250Y-66563
X36250Y-74063
X36563Y-66875
X36563Y-74375
X36875Y-51875
X36875Y-74688
X37188Y-52188
X37188Y-75000
X43438Y-50625
X43438Y-55313
X43438Y-58125
X43438Y-62813
X43438Y-65625
X43438Y-67500
X43438Y-70313
X43438Y-73125
X43438Y-77813
X50938Y-50625
X50938Y-55313
X50938Y-58125
X50938Y-62813
X50938Y-65625
X50938Y-67188
X50938Y-70313
X50938Y-72813
X50938Y-77813
X53750Y-68125
X53750Y-74688
X58438Y-50625
X58438Y-55313
X58438Y-58125
X58438Y-62500
X58438Y-65625
X58438Y-68125
X58750Y-53125
X58750Y-66250
X59063Y-45625
X59375Y-51563
X59375Y-66875
X60313Y-73125
X60313Y-76563
X60625Y-67813
X60625Y-73438
X60938Y-67500
X60938Y-72813
X61875Y-71250
X61875Y-75000
X62188Y-66875
X62188Y-72188
X62188Y-74688
X62813Y-75625
X65625Y-77500
X65938Y-51250
X65938Y-76250
X65938Y-77188
X66101Y-55914
X66250Y-58125
X66250Y-75915
X66250Y-76875
X66563Y-47500
X66563Y-52813
X66875Y-68531
X67188Y-67500
X67813Y-62813
X68125Y-70000
X68438Y-70313
X68750Y-52813
X68750Y-70625
X69688Y-71250
X69688Y-73750
X69688Y-74688
X70000Y-54375
X70625Y-60000
X70625Y-69688
X71250Y-64688
X71250Y-68438
T3
X5887Y-46304
X7855Y-46304
X66831Y-46307
X68799Y-46307
X-40047Y-46304
X-38078Y-46304
X20894Y-46303
X22862Y-46303
T5
X63500Y-62437
X66000Y-61438
X54125Y-54937
X56625Y-53938
X46625Y-77438
X49125Y-76438
X71000Y-47437
X73500Y-46438
X39125Y-47437
X41625Y-46438
X-5875Y-54937
X-3375Y-53938
X31625Y-77438
X34125Y-76438
X-13375Y-47437
X-10875Y-46438
X9125Y-62437
X11625Y-61438
X46625Y-69938
X49125Y-68938
X-30250Y-62437
X-27750Y-61438
X46625Y-47437
X49125Y-46438
X-20875Y-54937
X-18375Y-53938
X-20875Y-47437
X-18375Y-46438
X24125Y-77438
X26625Y-76438
X9125Y-69938
X11625Y-68938
X54125Y-47437
X56625Y-46438
X31625Y-47437
X34125Y-46438
X39125Y-54937
X41625Y-53938
X61625Y-54937
X64125Y-53938
X39125Y-69938
X41625Y-68938
X-13375Y-54937
X-10875Y-53938
X-5875Y-77438
X-3375Y-76438
X24125Y-69938
X26625Y-68938
X9125Y-47437
X11625Y-46438
X5875Y-80438
X8375Y-79438
X-13375Y-77438
X-10875Y-76438
X31625Y-69938
X34125Y-68938
X-5875Y-69938
X-3375Y-68938
X1625Y-47437
X4125Y-46438
X-13375Y-62437
X-10875Y-61438
X1625Y-69938
X4125Y-68938
X16625Y-77438
X19125Y-76438
X-28375Y-77438
X-25875Y-76438
X-30250Y-54937
X-27750Y-53938
X20875Y-80438
X23375Y-79438
X1625Y-77438
X4125Y-76438
X24125Y-62437
X26625Y-61438
X-20875Y-62437
X-18375Y-61438
X61625Y-47437
X64125Y-46438
X1625Y-54937
X4125Y-53938
X24125Y-54937
X26625Y-53938
X46625Y-54937
X49125Y-53938
X24125Y-47437
X26625Y-46438
X54125Y-62437
X56625Y-61438
X-20875Y-69938
X-18375Y-68938
X-20875Y-77438
X-18375Y-76438
X71000Y-54937
X73500Y-53938
X16625Y-62437
X19125Y-61438
X-30250Y-47437
X-27750Y-46438
X9125Y-77438
X11625Y-76438
X-5875Y-47437
X-3375Y-46438
X1625Y-62437
X4125Y-61438
X9125Y-54937
X11625Y-53938
X46625Y-62437
X49125Y-61438
X56000Y-69938
X58500Y-68938
X16625Y-47437
X19125Y-46438
X31625Y-54937
X34125Y-53938
X31625Y-62437
X34125Y-61438
X39125Y-77438
X41625Y-76438
X-13375Y-69938
X-10875Y-68938
X16625Y-54937
X19125Y-53938
X-30250Y-69938
X-27750Y-68938
X39125Y-62437
X41625Y-61438
X-5875Y-62437
X-3375Y-61438
X16625Y-69938
X19125Y-68938
X54125Y-77438
X56625Y-76438
T6
X-46609Y-45485
X-46609Y-51193
X-44641Y-45485
X-44641Y-51193
X-42859Y-67985
X-42859Y-73693
X-40891Y-67985
X-40891Y-73693
X-44734Y-56735
X-44734Y-62443
X-42766Y-56735
X-42766Y-62443
T7
X-45625Y-45485
X-41875Y-67985
X-43750Y-56735
T8
X60938Y-77500
X21875Y-59688
X-625Y-74688
X29375Y-74688
X6875Y-59688
X-47500Y-52813
X76250Y-52813
X-32188Y-77500
T9
X70500Y-48438
X74500Y-48438
X38625Y-48438
X42625Y-48438
X-6375Y-55938
X-2375Y-55938
X31125Y-78438
X35125Y-78438
X-13875Y-48438
X-9875Y-48438
X8625Y-63438
X12625Y-63438
X46125Y-70938
X50125Y-70938
X-30750Y-63438
X-26750Y-63438
X46125Y-48438
X50125Y-48438
X-21375Y-55938
X-17375Y-55938
X-21375Y-48438
X-17375Y-48438
X23625Y-78438
X27625Y-78438
X8625Y-70938
X12625Y-70938
X53625Y-48438
X57625Y-48438
X31125Y-48438
X35125Y-48438
X38625Y-55938
X42625Y-55938
X61125Y-55938
X65125Y-55938
X38625Y-70938
X42625Y-70938
X-13875Y-55938
X-9875Y-55938
X-6375Y-78438
X-2375Y-78438
X23625Y-70938
X27625Y-70938
X8625Y-48438
X12625Y-48438
X4875Y-78438
X8875Y-78438
X-13875Y-78438
X-9875Y-78438
X31125Y-70938
X35125Y-70938
X-6375Y-70938
X-2375Y-70938
X1125Y-48438
X5125Y-48438
X-13875Y-63438
X-9875Y-63438
X1125Y-70938
X5125Y-70938
X16125Y-78438
X20125Y-78438
X-28875Y-78438
X-24875Y-78438
X-30750Y-55938
X-26750Y-55938
X19875Y-78438
X23875Y-78438
X1125Y-78438
X5125Y-78438
X23625Y-63438
X27625Y-63438
X-21375Y-63438
X-17375Y-63438
X61125Y-48438
X65125Y-48438
X1125Y-55938
X5125Y-55938
X23625Y-55938
X27625Y-55938
X46125Y-55938
X50125Y-55938
X23625Y-48438
X27625Y-48438
X53625Y-63438
X57625Y-63438
X-21375Y-70938
X-17375Y-70938
X-21375Y-78438
X-17375Y-78438
X70500Y-55938
X74500Y-55938
X16125Y-63438
X20125Y-63438
X-30750Y-48438
X-26750Y-48438
X8625Y-78438
X12625Y-78438
X-6375Y-48438
X-2375Y-48438
X1125Y-63438
X5125Y-63438
X8625Y-55938
X12625Y-55938
X46125Y-63438
X50125Y-63438
X55500Y-70938
X59500Y-70938
X16125Y-48438
X20125Y-48438
X31125Y-55938
X35125Y-55938
X31125Y-63438
X35125Y-63438
X38625Y-78438
X42625Y-78438
X-13875Y-70938
X-9875Y-70938
X16125Y-55938
X20125Y-55938
X-30750Y-70938
X-26750Y-70938
X38625Y-63438
X42625Y-63438
X-6375Y-63438
X-2375Y-63438
X16125Y-70938
X20125Y-70938
X53625Y-78438
X57625Y-78438
X63000Y-63438
X67000Y-63438
X53625Y-55938
X57625Y-55938
X46125Y-78438
X50125Y-78438
T10
X24625Y-57938
X27125Y-56938
X47125Y-57938
X49625Y-56938
X24625Y-50438
X27125Y-49438
X54625Y-65438
X57125Y-64438
X-20375Y-72938
X-17875Y-71938
X-20375Y-80438
X-17875Y-79438
X71500Y-57938
X74000Y-56938
X17125Y-65438
X19625Y-64438
X-29750Y-50438
X-27250Y-49438
X9625Y-80438
X12125Y-79438
X-5375Y-50438
X-2875Y-49438
X2125Y-65438
X4625Y-64438
X9625Y-57938
X12125Y-56938
X47125Y-65438
X49625Y-64438
X56500Y-72938
X59000Y-71938
X17125Y-50438
X19625Y-49438
X32125Y-57938
X34625Y-56938
X32125Y-65438
X34625Y-64438
X39625Y-80438
X42125Y-79438
X-12875Y-72938
X-10375Y-71938
X17125Y-57938
X19625Y-56938
X-29750Y-72938
X-27250Y-71938
X39625Y-65438
X42125Y-64438
X-5375Y-65438
X-2875Y-64438
X17125Y-72938
X19625Y-71938
X54625Y-80438
X57125Y-79438
X64000Y-65438
X66500Y-64438
X54625Y-57938
X57125Y-56938
X47125Y-80438
X49625Y-79438
X71500Y-50438
X74000Y-49438
X39625Y-50438
X42125Y-49438
X-5375Y-57938
X-2875Y-56938
X32125Y-80438
X34625Y-79438
X-12875Y-50438
X-10375Y-49438
X9625Y-65438
X12125Y-64438
X47125Y-72938
X49625Y-71938
X-29750Y-65438
X-27250Y-64438
X47125Y-50438
X49625Y-49438
X-20375Y-57938
X-17875Y-56938
X-20375Y-50438
X-17875Y-49438
X24625Y-80438
X27125Y-79438
X9625Y-72938
X12125Y-71938
X54625Y-50438
X57125Y-49438
X32125Y-50438
X34625Y-49438
X39625Y-57938
X42125Y-56938
X62125Y-57938
X64625Y-56938
X39625Y-72938
X42125Y-71938
X-12875Y-57938
X-10375Y-56938
X-5375Y-80438
X-2875Y-79438
X24625Y-72938
X27125Y-71938
X9625Y-50438
X12125Y-49438
X5375Y-77438
X7875Y-76438
X-12875Y-80438
X-10375Y-79438
X32125Y-72938
X34625Y-71938
X-5375Y-72938
X-2875Y-71938
X2125Y-50438
X4625Y-49438
X-12875Y-65438
X-10375Y-64438
X2125Y-72938
X4625Y-71938
X17125Y-80438
X19625Y-79438
X-27875Y-80438
X-25375Y-79438
X-29750Y-57938
X-27250Y-56938
X20375Y-77438
X22875Y-76438
X2125Y-80438
X4625Y-79438
X24625Y-65438
X27125Y-64438
X-20375Y-65438
X-17875Y-64438
X62125Y-50438
X64625Y-49438
X2125Y-57938
X4625Y-56938
T11
X72500Y-48438
X40625Y-48438
X-4375Y-55938
X33125Y-78438
X-11875Y-48438
X10625Y-63438
X48125Y-70938
X-28750Y-63438
X48125Y-48438
X-19375Y-55938
X-19375Y-48438
X25625Y-78438
X10625Y-70938
X55625Y-48438
X33125Y-48438
X40625Y-55938
X63125Y-55938
X40625Y-70938
X-11875Y-55938
X-4375Y-78438
X25625Y-70938
X10625Y-48438
X6875Y-78438
X-11875Y-78438
X33125Y-70938
X-4375Y-70938
X3125Y-48438
X-11875Y-63438
X3125Y-70938
X18125Y-78438
X-26875Y-78438
X-28750Y-55938
X21875Y-78438
X3125Y-78438
X25625Y-63438
X-19375Y-63438
X63125Y-48438
X3125Y-55938
X25625Y-55938
X48125Y-55938
X25625Y-48438
X55625Y-63438
X-19375Y-70938
X-19375Y-78438
X72500Y-55938
X18125Y-63438
X-28750Y-48438
X10625Y-78438
X-4375Y-48438
X3125Y-63438
X10625Y-55938
X48125Y-63438
X57500Y-70938
X18125Y-48438
X33125Y-55938
X33125Y-63438
X40625Y-78438
X-11875Y-70938
X18125Y-55938
X-28750Y-70938
X40625Y-63438
X-4375Y-63438
X18125Y-70938
X55625Y-78438
X65000Y-63438
X55625Y-55938
X48125Y-78438
T2
G00X20500Y-45377
M15
G01X20500Y-45102
M16
G05
G00X23256Y-45102
M15
G01X23256Y-45377
M16
G05
G00X5493Y-45378
M15
G01X5493Y-45103
M16
G05
G00X8249Y-45103
M15
G01X8249Y-45378
M16
G05
G00X66437Y-45381
M15
G01X66437Y-45106
M16
G05
G00X69193Y-45106
M15
G01X69193Y-45381
M16
G05
G00X-40440Y-45378
M15
G01X-40440Y-45103
M16
G05
G00X-37685Y-45103
M15
G01X-37685Y-45378
M16
G05
T4
G00X-47830Y-48182
M15
G01X-47830Y-48693
M16
G05
G00X-43420Y-48182
M15
G01X-43420Y-48693
M16
G05
G00X-44080Y-70682
M15
G01X-44080Y-71193
M16
G05
G00X-39670Y-70682
M15
G01X-39670Y-71193
M16
G05
G00X-45955Y-59432
M15
G01X-45955Y-59943
M16
G05
G00X-41545Y-59432
M15
G01X-41545Y-59943
M16
G05
T0
M30
