G04 #@! TF.GenerationSoftware,KiCad,Pcbnew,(5.1.5-0-10_14)*
G04 #@! TF.CreationDate,2020-05-07T23:45:50-07:00*
G04 #@! TF.ProjectId,basis_combined_PROTON,62617369-735f-4636-9f6d-62696e65645f,rev?*
G04 #@! TF.SameCoordinates,Original*
G04 #@! TF.FileFunction,Copper,L1,Top*
G04 #@! TF.FilePolarity,Positive*
%FSLAX46Y46*%
G04 Gerber Fmt 4.6, Leading zero omitted, Abs format (unit mm)*
G04 Created by KiCad (PCBNEW (5.1.5-0-10_14)) date 2020-05-07 23:45:50*
%MOMM*%
%LPD*%
G04 APERTURE LIST*
%ADD10C,2.286000*%
%ADD11O,1.200000X1.900000*%
%ADD12C,1.450000*%
%ADD13C,2.400000*%
%ADD14C,2.000000*%
%ADD15R,2.000000X3.200000*%
%ADD16C,0.800000*%
%ADD17C,0.254000*%
%ADD18C,0.381000*%
G04 APERTURE END LIST*
D10*
X-33972500Y-196691250D03*
X-27622500Y-194151250D03*
X-53022500Y-120491250D03*
X-46672500Y-117951250D03*
X-33972500Y-120491250D03*
X-27622500Y-117951250D03*
X-14922500Y-120491250D03*
X-8572500Y-117951250D03*
X4127500Y-120491250D03*
X10477500Y-117951250D03*
X-53022500Y-158591250D03*
X-46672500Y-156051250D03*
X-14922500Y-177641250D03*
X-8572500Y-175101250D03*
X-14922500Y-196691250D03*
X-8572500Y-194151250D03*
X-53022500Y-196691250D03*
X-46672500Y-194151250D03*
X-14922500Y-158591250D03*
X-8572500Y-156051250D03*
X-14922500Y-139541250D03*
X-8572500Y-137001250D03*
X4127500Y-158591250D03*
X10477500Y-156051250D03*
X-72072500Y-196691250D03*
X-65722500Y-194151250D03*
X23177500Y-158591250D03*
X29527500Y-156051250D03*
X-53022500Y-139541250D03*
X-46672500Y-137001250D03*
X4127500Y-139541250D03*
X10477500Y-137001250D03*
X-33972500Y-158591250D03*
X-27622500Y-156051250D03*
X4127500Y-196691250D03*
X10477500Y-194151250D03*
X23177500Y-196691250D03*
X29527500Y-194151250D03*
X21272500Y-201771250D03*
X14922500Y-204311250D03*
X23177500Y-139541250D03*
X29527500Y-137001250D03*
X4127500Y-177641250D03*
X10477500Y-175101250D03*
X-33972500Y-139541250D03*
X-27622500Y-137001250D03*
X-33972500Y-177641250D03*
X-27622500Y-175101250D03*
X-53022500Y-177641250D03*
X-46672500Y-175101250D03*
X-76835000Y-120491250D03*
X-70485000Y-117951250D03*
X-76835000Y-139541250D03*
X-70485000Y-137001250D03*
X-76835000Y-158591250D03*
X-70485000Y-156051250D03*
X23177500Y-120491250D03*
X29527500Y-117951250D03*
X23177500Y-177641250D03*
X29527500Y-175101250D03*
X42227500Y-139541250D03*
X48577500Y-137001250D03*
X118427500Y-196691250D03*
X124777500Y-194151250D03*
X61277500Y-139541250D03*
X67627500Y-137001250D03*
X137477500Y-139541250D03*
X143827500Y-137001250D03*
X59372500Y-201771250D03*
X53022500Y-204311250D03*
X61277500Y-196691250D03*
X67627500Y-194151250D03*
X42227500Y-196691250D03*
X48577500Y-194151250D03*
X137477500Y-196691250D03*
X143827500Y-194151250D03*
X118427500Y-139541250D03*
X124777500Y-137001250D03*
X99377500Y-139541250D03*
X105727500Y-137001250D03*
X42227500Y-177641250D03*
X48577500Y-175101250D03*
X61277500Y-177641250D03*
X67627500Y-175101250D03*
X80327500Y-196691250D03*
X86677500Y-194151250D03*
X99377500Y-158591250D03*
X105727500Y-156051250D03*
X80327500Y-158591250D03*
X86677500Y-156051250D03*
X61277500Y-158591250D03*
X67627500Y-156051250D03*
X80327500Y-139541250D03*
X86677500Y-137001250D03*
X42227500Y-158591250D03*
X48577500Y-156051250D03*
X99377500Y-196691250D03*
X105727500Y-194151250D03*
X156527500Y-120491250D03*
X162877500Y-117951250D03*
X137477500Y-120491250D03*
X143827500Y-117951250D03*
X156527500Y-139541250D03*
X162877500Y-137001250D03*
X118427500Y-158591250D03*
X124777500Y-156051250D03*
X118427500Y-177641250D03*
X124777500Y-175101250D03*
X137477500Y-158591250D03*
X143827500Y-156051250D03*
X99377500Y-120491250D03*
X105727500Y-117951250D03*
X80327500Y-120491250D03*
X86677500Y-117951250D03*
X61277500Y-120491250D03*
X67627500Y-117951250D03*
X42227500Y-120491250D03*
X48577500Y-117951250D03*
X80327500Y-177641250D03*
X86677500Y-175101250D03*
X99377500Y-177641250D03*
X105727500Y-175101250D03*
X118427500Y-120491250D03*
X124777500Y-117951250D03*
X142240000Y-177641250D03*
X148590000Y-175101250D03*
X180340000Y-120491250D03*
X186690000Y-117951250D03*
X180340000Y-139541250D03*
X186690000Y-137001250D03*
X161290000Y-158591250D03*
X167640000Y-156051250D03*
X-76835000Y-177641250D03*
X-70485000Y-175101250D03*
D11*
X59070000Y-114908750D03*
X52070000Y-114908750D03*
D12*
X58070000Y-117608750D03*
X53070000Y-117608750D03*
D11*
X20952500Y-114911250D03*
X13952500Y-114911250D03*
D12*
X19952500Y-117611250D03*
X14952500Y-117611250D03*
D11*
X175750000Y-114918750D03*
X168750000Y-114918750D03*
D12*
X174750000Y-117618750D03*
X169750000Y-117618750D03*
D11*
X-95718750Y-114911250D03*
X-102718750Y-114911250D03*
D12*
X-96718750Y-117611250D03*
X-101718750Y-117611250D03*
D13*
X-81756250Y-196850000D03*
X-120650000Y-134143750D03*
X17462500Y-151606250D03*
X-1587500Y-189706250D03*
X74612500Y-189706250D03*
X154781250Y-196850000D03*
X55562500Y-151606250D03*
X193675000Y-134143750D03*
D14*
X-118387500Y-130031250D03*
X-113387500Y-130031250D03*
D15*
X-121487500Y-123031250D03*
X-110287500Y-123031250D03*
D14*
X-118387500Y-115531250D03*
X-115887500Y-115531250D03*
X-113387500Y-115531250D03*
X-113625000Y-158606250D03*
X-108625000Y-158606250D03*
D15*
X-116725000Y-151606250D03*
X-105525000Y-151606250D03*
D14*
X-113625000Y-144106250D03*
X-111125000Y-144106250D03*
X-108625000Y-144106250D03*
X-108862500Y-187181250D03*
X-103862500Y-187181250D03*
D15*
X-111962500Y-180181250D03*
X-100762500Y-180181250D03*
D14*
X-108862500Y-172681250D03*
X-106362500Y-172681250D03*
X-103862500Y-172681250D03*
D16*
X-88900000Y-122237500D03*
X-94456250Y-151606250D03*
X-107950000Y-136525000D03*
X23018750Y-117475000D03*
X2381250Y-115887500D03*
X-93600000Y-134875000D03*
X-93662500Y-150812500D03*
X-100012500Y-166281010D03*
X-98425000Y-179387500D03*
X-96043750Y-182562500D03*
X-96043750Y-168275000D03*
X-41275000Y-193675000D03*
X-41275000Y-174625000D03*
X-41275000Y-155575000D03*
X-41275000Y-136525000D03*
X-41275000Y-128587500D03*
X-41275000Y-147637500D03*
X-41275000Y-166687500D03*
X-41275000Y-185737500D03*
X-41275000Y-170656250D03*
X-22225000Y-136525000D03*
X-22225000Y-155575000D03*
X-22225000Y-174625000D03*
X-22225000Y-193675000D03*
X-23018750Y-128587500D03*
X-22225000Y-147637500D03*
X-22225000Y-166687500D03*
X-22225000Y-185737500D03*
X-22225000Y-169862500D03*
X-3175000Y-155575000D03*
X-3175000Y-136525000D03*
X-3175000Y-128587500D03*
X-3175000Y-147637500D03*
X-3175000Y-166687500D03*
X-3175000Y-174625000D03*
X-3175000Y-169068750D03*
X-3968750Y-185737500D03*
X-3968750Y-193675000D03*
X15875000Y-174625000D03*
X15875000Y-155575000D03*
X15081250Y-185737500D03*
X15875000Y-147637500D03*
X15875000Y-166687500D03*
X14287500Y-151606250D03*
X13493750Y-191293750D03*
X15081250Y-128587500D03*
X15081250Y-136525000D03*
X-65087500Y-136525000D03*
X-65087500Y-155575000D03*
X-65087500Y-174625000D03*
X-60325000Y-193675000D03*
X-65087500Y-128587500D03*
X-65087500Y-147637500D03*
X-65087500Y-166687500D03*
X-65087500Y-171450000D03*
X-65278000Y-185674000D03*
X-95250000Y-134937500D03*
X174625000Y-134143750D03*
X169068750Y-134143750D03*
X-98425000Y-129381250D03*
X-90443268Y-127569081D03*
X-90487500Y-130175000D03*
X-100806250Y-129381250D03*
X-90487500Y-136525000D03*
X-96043750Y-135731250D03*
X-113625000Y-160456250D03*
X-101600000Y-159543750D03*
X-113506250Y-146843750D03*
X-108743750Y-146843750D03*
X-107156250Y-167481250D03*
X-83343750Y-131762500D03*
X-86518750Y-154781250D03*
X-82550000Y-130175000D03*
X-85725000Y-155575000D03*
X157956250Y-169862500D03*
X177006250Y-187325000D03*
X150812500Y-130968750D03*
X177006250Y-189706250D03*
X157162500Y-190500000D03*
X169862500Y-174068267D03*
X173037500Y-177800000D03*
X157162500Y-180975000D03*
X-94456250Y-175418750D03*
X-94456250Y-173831250D03*
X169068750Y-120650000D03*
X57470000Y-120926250D03*
X48418750Y-133350000D03*
X57943750Y-133350000D03*
X18752500Y-121460250D03*
X18750000Y-133350000D03*
X-85852000Y-170434000D03*
X17529500Y-119062500D03*
X50800000Y-132556250D03*
X16943000Y-119953023D03*
X-102393750Y-162333332D03*
X-95250000Y-131762500D03*
X-101600000Y-131762500D03*
X-100806250Y-174625000D03*
X150018750Y-115887500D03*
X150812500Y-169862500D03*
X45243750Y-115887500D03*
X61912500Y-115887500D03*
X149225000Y-134937500D03*
X149225000Y-168275000D03*
X179387500Y-152400000D03*
X179387500Y-177006250D03*
X177006250Y-180975000D03*
X136525000Y-173037500D03*
X157956250Y-189706250D03*
X136525000Y-189706250D03*
X166687500Y-196850000D03*
X177800000Y-138112500D03*
X174625000Y-179387500D03*
X129381250Y-184943750D03*
X129381250Y-197643750D03*
X129381250Y-178593750D03*
X129381250Y-166687500D03*
X129381250Y-159543750D03*
X129381250Y-147637500D03*
X129381250Y-140493750D03*
X129381250Y-128587500D03*
X129381250Y-170656250D03*
X154781250Y-171450000D03*
X154781250Y-184943750D03*
X110331250Y-197643750D03*
X110331250Y-185737500D03*
X110331250Y-178593750D03*
X110331250Y-166687500D03*
X110331250Y-159543750D03*
X110331250Y-147637500D03*
X110331250Y-140493750D03*
X110331250Y-128587500D03*
X110331250Y-171450000D03*
X153987500Y-172243750D03*
X153987500Y-186531250D03*
X91281250Y-197643750D03*
X91281250Y-178593750D03*
X91281250Y-166687500D03*
X91281250Y-159543750D03*
X91281250Y-147637500D03*
X91281250Y-140493750D03*
X91281250Y-128587500D03*
X91281250Y-187325000D03*
X53181250Y-185737500D03*
X53181250Y-178593750D03*
X53181250Y-166687500D03*
X53181250Y-159543750D03*
X53181250Y-147637500D03*
X53181250Y-140493750D03*
X53181250Y-128587500D03*
X53181250Y-193675000D03*
X53181250Y-169862500D03*
X92868750Y-188912500D03*
X92868750Y-169862500D03*
X72231250Y-197643750D03*
X72231250Y-185737500D03*
X72231250Y-178593750D03*
X72231250Y-166687500D03*
X72231250Y-159543750D03*
X72231250Y-147637500D03*
X72231250Y-140493750D03*
X72231250Y-128587500D03*
X72231250Y-169068750D03*
X92075000Y-188118750D03*
X92075000Y-169068750D03*
X167897500Y-142021250D03*
X167481250Y-130175000D03*
X168275000Y-147637500D03*
X172243750Y-159543750D03*
X148431250Y-147637500D03*
X148431250Y-158750000D03*
X148431250Y-173037500D03*
X148431250Y-166687500D03*
X153193750Y-194468750D03*
X153193750Y-185737500D03*
X148431250Y-140493750D03*
X148431250Y-128587500D03*
X167481250Y-196056250D03*
X167481250Y-193675000D03*
X94456250Y-190500000D03*
X94456250Y-132556250D03*
X55562500Y-132556250D03*
X55562500Y-121443750D03*
X28575000Y-132556250D03*
X17750000Y-132556250D03*
X168275000Y-195262500D03*
X168275000Y-192825010D03*
X93662500Y-189706250D03*
X54768750Y-131762500D03*
X93662500Y-131762500D03*
X54768750Y-120650000D03*
X16668750Y-131762500D03*
X49212500Y-131762500D03*
X33337500Y-131762500D03*
X15875000Y-130968750D03*
X30162500Y-130968750D03*
X51593750Y-130968750D03*
X-83312000Y-165608000D03*
X-88646000Y-170688000D03*
X-87312500Y-155575000D03*
X-92075000Y-143668750D03*
X-85725000Y-138112500D03*
X-85725000Y-152400000D03*
X180975000Y-164306250D03*
X180975000Y-173831250D03*
X-90487500Y-122237500D03*
X-91281250Y-120650000D03*
X-92075000Y-125412500D03*
X-92868750Y-150018750D03*
X-91281250Y-169862500D03*
X-91281250Y-177006250D03*
X159543750Y-192087500D03*
X157956250Y-183356250D03*
X170656250Y-171450000D03*
X173831250Y-178593750D03*
D17*
X-94456250Y-151606250D02*
X-94456250Y-138112500D01*
X-92075000Y-124618750D02*
X-88900000Y-122237500D01*
X-94456250Y-124618750D02*
X-92075000Y-124618750D01*
X-94456250Y-138112500D02*
X-94456250Y-124618750D01*
X2781249Y-116287499D02*
X2381250Y-115887500D01*
X2974999Y-116481249D02*
X2781249Y-116287499D01*
X22024999Y-116481249D02*
X2974999Y-116481249D01*
X23018750Y-117475000D02*
X22024999Y-116481249D01*
X-95250000Y-136525000D02*
X-94456250Y-136525000D01*
X-107950000Y-136525000D02*
X-95250000Y-136525000D01*
X-93600000Y-150750000D02*
X-93662500Y-150812500D01*
X-93600000Y-134875000D02*
X-93600000Y-150750000D01*
X-98425000Y-179387500D02*
X-100012500Y-166281010D01*
X-96043750Y-182562500D02*
X-96043750Y-168275000D01*
X-41275000Y-136525000D02*
X-41275000Y-128587500D01*
X-41275000Y-155575000D02*
X-41275000Y-147637500D01*
X-41275000Y-193675000D02*
X-41275000Y-185737500D01*
X-41275000Y-174625000D02*
X-41275000Y-170656250D01*
X-41275000Y-170656250D02*
X-41275000Y-166687500D01*
X-23018750Y-128587500D02*
X-22225000Y-136525000D01*
X-22225000Y-147637500D02*
X-22225000Y-155575000D01*
X-22225000Y-185737500D02*
X-22225000Y-193675000D01*
X-22225000Y-166687500D02*
X-22225000Y-169862500D01*
X-22225000Y-169862500D02*
X-22225000Y-174625000D01*
X-3175000Y-136525000D02*
X-3175000Y-128587500D01*
X-3175000Y-155575000D02*
X-3175000Y-147637500D01*
X-3175000Y-174625000D02*
X-3175000Y-169068750D01*
X-3175000Y-169068750D02*
X-3175000Y-166687500D01*
X-3968750Y-193675000D02*
X-3968750Y-185737500D01*
X15875000Y-174625000D02*
X15875000Y-166687500D01*
X14287500Y-151606250D02*
X15875000Y-147637500D01*
X15875000Y-155575000D02*
X14287500Y-151606250D01*
X13493750Y-188912500D02*
X15081250Y-185737500D01*
X13493750Y-191293750D02*
X13493750Y-188912500D01*
X15081250Y-136525000D02*
X15081250Y-128587500D01*
X-65087500Y-128587500D02*
X-65087500Y-136525000D01*
X-65087500Y-147637500D02*
X-65087500Y-155575000D01*
X-65087500Y-166687500D02*
X-65087500Y-171450000D01*
X-65087500Y-171450000D02*
X-65087500Y-174625000D01*
X-65278000Y-185674000D02*
X-60325000Y-193675000D01*
X-106362500Y-134937500D02*
X-107156250Y-134143750D01*
X-107156250Y-121595445D02*
X-113220445Y-115531250D01*
X-113220445Y-115531250D02*
X-113387500Y-115531250D01*
X-95250000Y-134937500D02*
X-106362500Y-134937500D01*
X-107156250Y-134143750D02*
X-107156250Y-121595445D01*
D18*
X-90443268Y-130130768D02*
X-90487500Y-130175000D01*
X-90443268Y-127569081D02*
X-90443268Y-130130768D01*
X-98425000Y-129381250D02*
X-100806250Y-129381250D01*
X-90487500Y-135731250D02*
X-90487500Y-130175000D01*
X-90487500Y-136525000D02*
X-90487500Y-135731250D01*
D17*
X-114062500Y-119856250D02*
X-118387500Y-115531250D01*
X-109537500Y-119856250D02*
X-114062500Y-119856250D01*
X-107950000Y-121443750D02*
X-109537500Y-119856250D01*
X-107950000Y-134937500D02*
X-107950000Y-121443750D01*
X-107156250Y-135731250D02*
X-107950000Y-134937500D01*
X-96043750Y-135731250D02*
X-107156250Y-135731250D01*
X-113625000Y-160456250D02*
X-113506250Y-160337500D01*
X-102393750Y-160337500D02*
X-101600000Y-159543750D01*
X-113506250Y-160337500D02*
X-102393750Y-160337500D01*
X-113506250Y-146843750D02*
X-108743750Y-146843750D01*
X-108862500Y-169187500D02*
X-107156250Y-167481250D01*
X-108862500Y-172681250D02*
X-108862500Y-169187500D01*
X-83343750Y-151606250D02*
X-83343750Y-131762500D01*
X-86518750Y-154781250D02*
X-83343750Y-151606250D01*
X-85725000Y-155575000D02*
X-82550000Y-151606250D01*
X-82550000Y-151606250D02*
X-82550000Y-130175000D01*
D18*
X157162500Y-169068750D02*
X157956250Y-169862500D01*
X177006250Y-189706250D02*
X177006250Y-187325000D01*
X150812500Y-162718750D02*
X157162500Y-169068750D01*
X150812500Y-130968750D02*
X150812500Y-162718750D01*
X173037500Y-177243267D02*
X173037500Y-177800000D01*
X169862500Y-174068267D02*
X173037500Y-177243267D01*
X157162500Y-169068750D02*
X157162500Y-180975000D01*
X157162500Y-180975000D02*
X157162500Y-190500000D01*
X-94456250Y-175418750D02*
X-94456250Y-173831250D01*
X169862500Y-121443750D02*
X169068750Y-120650000D01*
X169862500Y-134143750D02*
X169862500Y-121443750D01*
X174625000Y-134143750D02*
X169862500Y-134143750D01*
X169862500Y-134143750D02*
X169068750Y-134143750D01*
X57943750Y-133350000D02*
X57470000Y-133126250D01*
X57470000Y-133126250D02*
X57470000Y-120926250D01*
X18752500Y-132853750D02*
X18752500Y-121460250D01*
X18750000Y-133350000D02*
X18752500Y-132853750D01*
X39687500Y-133350000D02*
X48418750Y-133350000D01*
X36512500Y-135731250D02*
X39687500Y-133350000D01*
X33337500Y-133350000D02*
X36512500Y-135731250D01*
X18750000Y-133350000D02*
X33337500Y-133350000D01*
X-101600000Y-131762500D02*
X-95250000Y-131762500D01*
X-102393750Y-162333332D02*
X-100806250Y-174625000D01*
D17*
X150018750Y-169068750D02*
X150812500Y-169862500D01*
X150018750Y-115887500D02*
X150018750Y-169068750D01*
X149225000Y-134937500D02*
X149225000Y-168275000D01*
X179387500Y-152400000D02*
X179387500Y-177006250D01*
X177006250Y-182562500D02*
X177006250Y-180975000D01*
X174625000Y-184943750D02*
X177006250Y-182562500D01*
X174438232Y-184943750D02*
X174625000Y-184943750D01*
X166567481Y-192814501D02*
X174438232Y-184943750D01*
X159194789Y-192814501D02*
X166567481Y-192814501D01*
X157956250Y-189706250D02*
X157956250Y-191575962D01*
X157956250Y-191575962D02*
X159194789Y-192814501D01*
X136525000Y-189706250D02*
X136525000Y-173037500D01*
X168811710Y-191212338D02*
X166687500Y-193336548D01*
X166687500Y-193336548D02*
X166687500Y-196850000D01*
X177800000Y-183356250D02*
X169943912Y-191212338D01*
X177800000Y-180181250D02*
X177800000Y-183356250D01*
X177800000Y-138112500D02*
X177006250Y-138906250D01*
X178593750Y-179387500D02*
X177800000Y-180181250D01*
X169943912Y-191212338D02*
X168811710Y-191212338D01*
X178593750Y-149225000D02*
X178593750Y-179387500D01*
X177006250Y-138906250D02*
X177006250Y-147637500D01*
X177006250Y-147637500D02*
X178593750Y-149225000D01*
X175418750Y-180181250D02*
X174625000Y-179387500D01*
X177800000Y-180181250D02*
X175418750Y-180181250D01*
X129381250Y-184943750D02*
X129381250Y-197643750D01*
X129381250Y-159543750D02*
X129381250Y-147637500D01*
X129381250Y-140493750D02*
X129381250Y-128587500D01*
X129381250Y-178593750D02*
X129381250Y-170656250D01*
X129381250Y-170656250D02*
X129381250Y-166687500D01*
X154781250Y-171450000D02*
X154781250Y-184943750D01*
X110331250Y-197643750D02*
X110331250Y-185737500D01*
X110331250Y-159543750D02*
X110331250Y-147637500D01*
X110331250Y-140493750D02*
X110331250Y-128587500D01*
X110331250Y-178593750D02*
X110331250Y-171450000D01*
X110331250Y-171450000D02*
X110331250Y-166687500D01*
X153987500Y-172243750D02*
X153987500Y-186531250D01*
X91281250Y-178593750D02*
X91281250Y-166687500D01*
X91281250Y-159543750D02*
X91281250Y-147637500D01*
X91281250Y-140493750D02*
X91281250Y-128587500D01*
X91281250Y-197643750D02*
X91281250Y-187325000D01*
X53181250Y-178593750D02*
X53181250Y-166687500D01*
X53181250Y-159543750D02*
X53181250Y-147637500D01*
X53181250Y-140493750D02*
X53181250Y-128587500D01*
X53181250Y-193675000D02*
X53181250Y-191293750D01*
X53181250Y-191293750D02*
X53181250Y-188912500D01*
X53181250Y-188912500D02*
X53181250Y-185737500D01*
X92868750Y-169862500D02*
X92868750Y-188912500D01*
X72231250Y-178593750D02*
X72231250Y-166687500D01*
X72231250Y-159543750D02*
X72231250Y-147637500D01*
X72231250Y-140493750D02*
X72231250Y-128587500D01*
X72231250Y-197643750D02*
X72231250Y-188118750D01*
X72231250Y-188118750D02*
X72231250Y-185737500D01*
X92075000Y-169580288D02*
X92075000Y-169068750D01*
X92075000Y-188118750D02*
X92075000Y-169580288D01*
X167897500Y-130591250D02*
X167481250Y-130175000D01*
X172243750Y-151606250D02*
X168275000Y-147637500D01*
X172243750Y-159543750D02*
X172243750Y-151606250D01*
X148431250Y-147637500D02*
X148431250Y-158750000D01*
X148431250Y-166687500D02*
X148431250Y-173037500D01*
X153193750Y-194468750D02*
X153193750Y-185737500D01*
X148431250Y-140493750D02*
X148431250Y-128587500D01*
X167481250Y-196056250D02*
X167481250Y-193675000D01*
X94456250Y-132556250D02*
X94456250Y-190500000D01*
X55562500Y-132556250D02*
X55562500Y-121443750D01*
X17862499Y-119395499D02*
X17529500Y-119062500D01*
X17862499Y-131362501D02*
X17862499Y-119395499D01*
X17750000Y-132556250D02*
X17862499Y-131362501D01*
X39687500Y-132556250D02*
X50800000Y-132556250D01*
X36512500Y-134937500D02*
X39687500Y-132556250D01*
X33337500Y-132556250D02*
X36512500Y-134937500D01*
X28575000Y-132556250D02*
X33337500Y-132556250D01*
X168275000Y-195262500D02*
X168275000Y-192825010D01*
X93662500Y-189706250D02*
X93662500Y-131762500D01*
X54768750Y-131762500D02*
X54768750Y-121443750D01*
X54768750Y-121443750D02*
X54768750Y-120650000D01*
X16668750Y-120227273D02*
X16943000Y-119953023D01*
X16668750Y-131762500D02*
X16668750Y-120227273D01*
X39687500Y-131762500D02*
X49212500Y-131762500D01*
X36512500Y-129381250D02*
X39687500Y-131762500D01*
X33337500Y-131762500D02*
X36512500Y-129381250D01*
D18*
X36512500Y-128587500D02*
X39687500Y-130968750D01*
X39687500Y-130968750D02*
X51593750Y-130968750D01*
X33337500Y-130968750D02*
X36512500Y-128587500D01*
X30162500Y-130968750D02*
X33337500Y-130968750D01*
X-88646000Y-170688000D02*
X-83312000Y-165608000D01*
D17*
X52057009Y-116556749D02*
X61243251Y-116556749D01*
X49212500Y-115887500D02*
X52057009Y-116556749D01*
X61512501Y-116287499D02*
X61912500Y-115887500D01*
X61243251Y-116556749D02*
X61512501Y-116287499D01*
X45243750Y-115887500D02*
X49212500Y-115887500D01*
X-87312500Y-155575000D02*
X-87312500Y-152400000D01*
X-87312500Y-152400000D02*
X-92075000Y-147637500D01*
X-92075000Y-147637500D02*
X-92075000Y-143668750D01*
X-85725000Y-151606250D02*
X-85725000Y-138112500D01*
X-85725000Y-152400000D02*
X-85725000Y-151606250D01*
X180975000Y-164306250D02*
X180975000Y-173831250D01*
X180975000Y-169862500D02*
X180975000Y-173831250D01*
X-90487500Y-121443750D02*
X-91281250Y-120650000D01*
X-90487500Y-122237500D02*
X-90487500Y-121443750D01*
X-92868750Y-133350000D02*
X-92075000Y-125412500D01*
X-92868750Y-150018750D02*
X-92868750Y-133350000D01*
X-91281250Y-177006250D02*
X-91281250Y-169862500D01*
X158750000Y-191293750D02*
X158750000Y-184150000D01*
X159543750Y-192087500D02*
X158750000Y-191293750D01*
X158750000Y-184150000D02*
X157956250Y-183356250D01*
X167996250Y-137001250D02*
X186690000Y-137001250D01*
X167897500Y-136902500D02*
X167996250Y-137001250D01*
X167897500Y-142021250D02*
X167897500Y-136902500D01*
X167897500Y-136902500D02*
X167897500Y-130591250D01*
X173831250Y-174625000D02*
X173831250Y-178593750D01*
X170656250Y-171450000D02*
X173831250Y-174625000D01*
M02*
