G04 #@! TF.GenerationSoftware,KiCad,Pcbnew,(5.1.5-0-10_14)*
G04 #@! TF.CreationDate,2020-05-07T23:45:50-07:00*
G04 #@! TF.ProjectId,basis_combined_PROTON,62617369-735f-4636-9f6d-62696e65645f,rev?*
G04 #@! TF.SameCoordinates,Original*
G04 #@! TF.FileFunction,Paste,Bot*
G04 #@! TF.FilePolarity,Positive*
%FSLAX46Y46*%
G04 Gerber Fmt 4.6, Leading zero omitted, Abs format (unit mm)*
G04 Created by KiCad (PCBNEW (5.1.5-0-10_14)) date 2020-05-07 23:45:50*
%MOMM*%
%LPD*%
G04 APERTURE LIST*
%ADD10R,2.550000X2.500000*%
%ADD11R,0.500000X0.500000*%
%ADD12R,1.500000X1.900000*%
%ADD13R,0.400000X1.350000*%
%ADD14C,0.100000*%
%ADD15R,1.200000X1.400000*%
%ADD16R,1.100000X1.800000*%
%ADD17R,1.800000X1.100000*%
G04 APERTURE END LIST*
D10*
X-22602500Y-201771250D03*
X-36452500Y-204311250D03*
X-41652500Y-125571250D03*
X-55502500Y-128111250D03*
X-22602500Y-125571250D03*
X-36452500Y-128111250D03*
X-3552500Y-125571250D03*
X-17402500Y-128111250D03*
X15497500Y-125571250D03*
X1647500Y-128111250D03*
X-41652500Y-163671250D03*
X-55502500Y-166211250D03*
X-3552500Y-182721250D03*
X-17402500Y-185261250D03*
X-3552500Y-201771250D03*
X-17402500Y-204311250D03*
X-41652500Y-201771250D03*
X-55502500Y-204311250D03*
X-3552500Y-163671250D03*
X-17402500Y-166211250D03*
X-3552500Y-144621250D03*
X-17402500Y-147161250D03*
X15497500Y-163671250D03*
X1647500Y-166211250D03*
X-60702500Y-201771250D03*
X-74552500Y-204311250D03*
X34547500Y-163671250D03*
X20697500Y-166211250D03*
X-41652500Y-144621250D03*
X-55502500Y-147161250D03*
X15497500Y-144621250D03*
X1647500Y-147161250D03*
X-22602500Y-163671250D03*
X-36452500Y-166211250D03*
X15497500Y-201771250D03*
X1647500Y-204311250D03*
X34547500Y-201771250D03*
X20697500Y-204311250D03*
X9902500Y-196691250D03*
X23752500Y-194151250D03*
X34547500Y-144621250D03*
X20697500Y-147161250D03*
X15497500Y-182721250D03*
X1647500Y-185261250D03*
X-22602500Y-144621250D03*
X-36452500Y-147161250D03*
X-22602500Y-182721250D03*
X-36452500Y-185261250D03*
X-41652500Y-182721250D03*
X-55502500Y-185261250D03*
X-65465000Y-125571250D03*
X-79315000Y-128111250D03*
X-65465000Y-144621250D03*
X-79315000Y-147161250D03*
X-65465000Y-163671250D03*
X-79315000Y-166211250D03*
X34547500Y-125571250D03*
X20697500Y-128111250D03*
X34547500Y-182721250D03*
X20697500Y-185261250D03*
X53597500Y-144621250D03*
X39747500Y-147161250D03*
X129797500Y-201771250D03*
X115947500Y-204311250D03*
X72647500Y-144621250D03*
X58797500Y-147161250D03*
X148847500Y-144621250D03*
X134997500Y-147161250D03*
X48002500Y-196691250D03*
X61852500Y-194151250D03*
X72647500Y-201771250D03*
X58797500Y-204311250D03*
X53597500Y-201771250D03*
X39747500Y-204311250D03*
X148847500Y-201771250D03*
X134997500Y-204311250D03*
X129797500Y-144621250D03*
X115947500Y-147161250D03*
X110747500Y-144621250D03*
X96897500Y-147161250D03*
X53597500Y-182721250D03*
X39747500Y-185261250D03*
X72647500Y-182721250D03*
X58797500Y-185261250D03*
X91697500Y-201771250D03*
X77847500Y-204311250D03*
X110747500Y-163671250D03*
X96897500Y-166211250D03*
X91697500Y-163671250D03*
X77847500Y-166211250D03*
X72647500Y-163671250D03*
X58797500Y-166211250D03*
X91697500Y-144621250D03*
X77847500Y-147161250D03*
X53597500Y-163671250D03*
X39747500Y-166211250D03*
X110747500Y-201771250D03*
X96897500Y-204311250D03*
X167897500Y-125571250D03*
X154047500Y-128111250D03*
X148847500Y-125571250D03*
X134997500Y-128111250D03*
X167897500Y-144621250D03*
X154047500Y-147161250D03*
X129797500Y-163671250D03*
X115947500Y-166211250D03*
X129797500Y-182721250D03*
X115947500Y-185261250D03*
X148847500Y-163671250D03*
X134997500Y-166211250D03*
X110747500Y-125571250D03*
X96897500Y-128111250D03*
X91697500Y-125571250D03*
X77847500Y-128111250D03*
X72647500Y-125571250D03*
X58797500Y-128111250D03*
X53597500Y-125571250D03*
X39747500Y-128111250D03*
X91697500Y-182721250D03*
X77847500Y-185261250D03*
X110747500Y-182721250D03*
X96897500Y-185261250D03*
X129797500Y-125571250D03*
X115947500Y-128111250D03*
X153610000Y-182721250D03*
X139760000Y-185261250D03*
X191710000Y-125571250D03*
X177860000Y-128111250D03*
X191710000Y-144621250D03*
X177860000Y-147161250D03*
X172660000Y-163671250D03*
X158810000Y-166211250D03*
X-65465000Y-182721250D03*
X-79315000Y-185261250D03*
D11*
X176700000Y-131762500D03*
X178900000Y-131762500D03*
X178287500Y-150018750D03*
X180487500Y-150018750D03*
X157162500Y-156167000D03*
X157162500Y-153967000D03*
X152400000Y-137117000D03*
X152400000Y-134917000D03*
X152400000Y-118067000D03*
X152400000Y-115867000D03*
X133350000Y-194267000D03*
X133350000Y-192067000D03*
X138112500Y-175217000D03*
X138112500Y-173017000D03*
X133350000Y-156167000D03*
X133350000Y-153967000D03*
X133350000Y-137117000D03*
X133350000Y-134917000D03*
X133350000Y-118067000D03*
X133350000Y-115867000D03*
X114300000Y-194267000D03*
X114300000Y-192067000D03*
X114300000Y-175217000D03*
X114300000Y-173017000D03*
X114300000Y-156167000D03*
X114300000Y-153967000D03*
X114300000Y-137117000D03*
X114300000Y-134917000D03*
X114300000Y-118067000D03*
X114300000Y-115867000D03*
X95250000Y-194267000D03*
X95250000Y-192067000D03*
X95250000Y-175217000D03*
X95250000Y-173017000D03*
X95250000Y-156167000D03*
X95250000Y-153967000D03*
X95250000Y-137117000D03*
X95250000Y-134917000D03*
X95250000Y-118067000D03*
X95250000Y-115867000D03*
X76200000Y-194267000D03*
X76200000Y-192067000D03*
X76200000Y-175217000D03*
X76200000Y-173017000D03*
X76200000Y-156167000D03*
X76200000Y-153967000D03*
X76200000Y-137117000D03*
X76200000Y-134917000D03*
X76200000Y-118067000D03*
X76200000Y-115867000D03*
X73025000Y-194267000D03*
X73025000Y-192067000D03*
X57150000Y-175217000D03*
X57150000Y-173017000D03*
X57150000Y-156167000D03*
X57150000Y-153967000D03*
X57150000Y-137117000D03*
X57150000Y-134917000D03*
X64293750Y-118067000D03*
X64293750Y-115867000D03*
X40968750Y-192087500D03*
X43168750Y-192087500D03*
X40968750Y-173037500D03*
X43168750Y-173037500D03*
X40968750Y-153987500D03*
X43168750Y-153987500D03*
X40968750Y-134937500D03*
X43168750Y-134937500D03*
X40968750Y-115887500D03*
X43168750Y-115887500D03*
X19050000Y-175217000D03*
X19050000Y-173017000D03*
X19050000Y-156167000D03*
X19050000Y-153967000D03*
X19050000Y-137117000D03*
X19050000Y-134917000D03*
X25706250Y-115887500D03*
X23506250Y-115887500D03*
X23325000Y-190500000D03*
X21125000Y-190500000D03*
X0Y-194267000D03*
X0Y-192067000D03*
X0Y-175217000D03*
X0Y-173017000D03*
X0Y-156167000D03*
X0Y-153967000D03*
X0Y-137117000D03*
X0Y-134917000D03*
X0Y-118130500D03*
X0Y-115930500D03*
X-19050000Y-194267000D03*
X-19050000Y-192067000D03*
X-19050000Y-175217000D03*
X-19050000Y-173017000D03*
X-19050000Y-156167000D03*
X-19050000Y-153967000D03*
X-19050000Y-137117000D03*
X-19050000Y-134917000D03*
X-19050000Y-118130500D03*
X-19050000Y-115930500D03*
X-38100000Y-194267000D03*
X-38100000Y-192067000D03*
X-38100000Y-175217000D03*
X-38100000Y-173017000D03*
X-38100000Y-156167000D03*
X-38100000Y-153967000D03*
X-57150000Y-194267000D03*
X-57150000Y-192067000D03*
X-57150000Y-175217000D03*
X-57150000Y-173017000D03*
X-57150000Y-156167000D03*
X-57150000Y-153967000D03*
X-76200000Y-194267000D03*
X-76200000Y-192067000D03*
X-80962500Y-175217000D03*
X-80962500Y-173017000D03*
X-81026000Y-157564000D03*
X-81026000Y-155364000D03*
X-80962500Y-137117000D03*
X-80962500Y-134917000D03*
X-80962500Y-118956000D03*
X-80962500Y-116756000D03*
X-102192000Y-184150000D03*
X-99992000Y-184150000D03*
X-108256250Y-163512500D03*
X-106056250Y-163512500D03*
X-112225000Y-127000000D03*
X-110025000Y-127000000D03*
X-38100000Y-137117000D03*
X-38100000Y-134917000D03*
X-38100000Y-118129500D03*
X-38100000Y-115929500D03*
X-57150000Y-137117000D03*
X-57150000Y-134917000D03*
X-57150000Y-118129500D03*
X-57150000Y-115929500D03*
D12*
X54570000Y-114908750D03*
D13*
X55570000Y-117608750D03*
X56220000Y-117608750D03*
X56870000Y-117608750D03*
X54270000Y-117608750D03*
X54920000Y-117608750D03*
D12*
X56570000Y-114908750D03*
X16452500Y-114911250D03*
D13*
X17452500Y-117611250D03*
X18102500Y-117611250D03*
X18752500Y-117611250D03*
X16152500Y-117611250D03*
X16802500Y-117611250D03*
D12*
X18452500Y-114911250D03*
X171250000Y-114918750D03*
D13*
X172250000Y-117618750D03*
X172900000Y-117618750D03*
X173550000Y-117618750D03*
X170950000Y-117618750D03*
X171600000Y-117618750D03*
D12*
X173250000Y-114918750D03*
X-100218750Y-114911250D03*
D13*
X-99218750Y-117611250D03*
X-98568750Y-117611250D03*
X-97918750Y-117611250D03*
X-100518750Y-117611250D03*
X-99868750Y-117611250D03*
D12*
X-98218750Y-114911250D03*
D14*
G36*
X166210202Y-175245690D02*
G01*
X165821294Y-175634598D01*
X164760634Y-174573938D01*
X165149542Y-174185030D01*
X166210202Y-175245690D01*
G37*
G36*
X165644517Y-175811376D02*
G01*
X165255609Y-176200284D01*
X164194949Y-175139624D01*
X164583857Y-174750716D01*
X165644517Y-175811376D01*
G37*
G36*
X165078832Y-176377061D02*
G01*
X164689924Y-176765969D01*
X163629264Y-175705309D01*
X164018172Y-175316401D01*
X165078832Y-176377061D01*
G37*
G36*
X164513146Y-176942746D02*
G01*
X164124238Y-177331654D01*
X163063578Y-176270994D01*
X163452486Y-175882086D01*
X164513146Y-176942746D01*
G37*
G36*
X163947461Y-177508432D02*
G01*
X163558553Y-177897340D01*
X162497893Y-176836680D01*
X162886801Y-176447772D01*
X163947461Y-177508432D01*
G37*
G36*
X163381775Y-178074117D02*
G01*
X162992867Y-178463025D01*
X161932207Y-177402365D01*
X162321115Y-177013457D01*
X163381775Y-178074117D01*
G37*
G36*
X162816090Y-178639803D02*
G01*
X162427182Y-179028711D01*
X161366522Y-177968051D01*
X161755430Y-177579143D01*
X162816090Y-178639803D01*
G37*
G36*
X162250404Y-179205488D02*
G01*
X161861496Y-179594396D01*
X160800836Y-178533736D01*
X161189744Y-178144828D01*
X162250404Y-179205488D01*
G37*
G36*
X161684719Y-179771174D02*
G01*
X161295811Y-180160082D01*
X160235151Y-179099422D01*
X160624059Y-178710514D01*
X161684719Y-179771174D01*
G37*
G36*
X161119034Y-180336859D02*
G01*
X160730126Y-180725767D01*
X159669466Y-179665107D01*
X160058374Y-179276199D01*
X161119034Y-180336859D01*
G37*
G36*
X160553348Y-180902544D02*
G01*
X160164440Y-181291452D01*
X159103780Y-180230792D01*
X159492688Y-179841884D01*
X160553348Y-180902544D01*
G37*
G36*
X160164440Y-182246048D02*
G01*
X160553348Y-182634956D01*
X159492688Y-183695616D01*
X159103780Y-183306708D01*
X160164440Y-182246048D01*
G37*
G36*
X160730126Y-182811733D02*
G01*
X161119034Y-183200641D01*
X160058374Y-184261301D01*
X159669466Y-183872393D01*
X160730126Y-182811733D01*
G37*
G36*
X161295811Y-183377418D02*
G01*
X161684719Y-183766326D01*
X160624059Y-184826986D01*
X160235151Y-184438078D01*
X161295811Y-183377418D01*
G37*
G36*
X161861496Y-183943104D02*
G01*
X162250404Y-184332012D01*
X161189744Y-185392672D01*
X160800836Y-185003764D01*
X161861496Y-183943104D01*
G37*
G36*
X162427182Y-184508789D02*
G01*
X162816090Y-184897697D01*
X161755430Y-185958357D01*
X161366522Y-185569449D01*
X162427182Y-184508789D01*
G37*
G36*
X162992867Y-185074475D02*
G01*
X163381775Y-185463383D01*
X162321115Y-186524043D01*
X161932207Y-186135135D01*
X162992867Y-185074475D01*
G37*
G36*
X163558553Y-185640160D02*
G01*
X163947461Y-186029068D01*
X162886801Y-187089728D01*
X162497893Y-186700820D01*
X163558553Y-185640160D01*
G37*
G36*
X164124238Y-186205846D02*
G01*
X164513146Y-186594754D01*
X163452486Y-187655414D01*
X163063578Y-187266506D01*
X164124238Y-186205846D01*
G37*
G36*
X164689924Y-186771531D02*
G01*
X165078832Y-187160439D01*
X164018172Y-188221099D01*
X163629264Y-187832191D01*
X164689924Y-186771531D01*
G37*
G36*
X165255609Y-187337216D02*
G01*
X165644517Y-187726124D01*
X164583857Y-188786784D01*
X164194949Y-188397876D01*
X165255609Y-187337216D01*
G37*
G36*
X165821294Y-187902902D02*
G01*
X166210202Y-188291810D01*
X165149542Y-189352470D01*
X164760634Y-188963562D01*
X165821294Y-187902902D01*
G37*
G36*
X168614366Y-188963562D02*
G01*
X168225458Y-189352470D01*
X167164798Y-188291810D01*
X167553706Y-187902902D01*
X168614366Y-188963562D01*
G37*
G36*
X169180051Y-188397876D02*
G01*
X168791143Y-188786784D01*
X167730483Y-187726124D01*
X168119391Y-187337216D01*
X169180051Y-188397876D01*
G37*
G36*
X169745736Y-187832191D02*
G01*
X169356828Y-188221099D01*
X168296168Y-187160439D01*
X168685076Y-186771531D01*
X169745736Y-187832191D01*
G37*
G36*
X170311422Y-187266506D02*
G01*
X169922514Y-187655414D01*
X168861854Y-186594754D01*
X169250762Y-186205846D01*
X170311422Y-187266506D01*
G37*
G36*
X170877107Y-186700820D02*
G01*
X170488199Y-187089728D01*
X169427539Y-186029068D01*
X169816447Y-185640160D01*
X170877107Y-186700820D01*
G37*
G36*
X171442793Y-186135135D02*
G01*
X171053885Y-186524043D01*
X169993225Y-185463383D01*
X170382133Y-185074475D01*
X171442793Y-186135135D01*
G37*
G36*
X172008478Y-185569449D02*
G01*
X171619570Y-185958357D01*
X170558910Y-184897697D01*
X170947818Y-184508789D01*
X172008478Y-185569449D01*
G37*
G36*
X172574164Y-185003764D02*
G01*
X172185256Y-185392672D01*
X171124596Y-184332012D01*
X171513504Y-183943104D01*
X172574164Y-185003764D01*
G37*
G36*
X173139849Y-184438078D02*
G01*
X172750941Y-184826986D01*
X171690281Y-183766326D01*
X172079189Y-183377418D01*
X173139849Y-184438078D01*
G37*
G36*
X173705534Y-183872393D02*
G01*
X173316626Y-184261301D01*
X172255966Y-183200641D01*
X172644874Y-182811733D01*
X173705534Y-183872393D01*
G37*
G36*
X174271220Y-183306708D02*
G01*
X173882312Y-183695616D01*
X172821652Y-182634956D01*
X173210560Y-182246048D01*
X174271220Y-183306708D01*
G37*
G36*
X173882312Y-179841884D02*
G01*
X174271220Y-180230792D01*
X173210560Y-181291452D01*
X172821652Y-180902544D01*
X173882312Y-179841884D01*
G37*
G36*
X173316626Y-179276199D02*
G01*
X173705534Y-179665107D01*
X172644874Y-180725767D01*
X172255966Y-180336859D01*
X173316626Y-179276199D01*
G37*
G36*
X172750941Y-178710514D02*
G01*
X173139849Y-179099422D01*
X172079189Y-180160082D01*
X171690281Y-179771174D01*
X172750941Y-178710514D01*
G37*
G36*
X172185256Y-178144828D02*
G01*
X172574164Y-178533736D01*
X171513504Y-179594396D01*
X171124596Y-179205488D01*
X172185256Y-178144828D01*
G37*
G36*
X171619570Y-177579143D02*
G01*
X172008478Y-177968051D01*
X170947818Y-179028711D01*
X170558910Y-178639803D01*
X171619570Y-177579143D01*
G37*
G36*
X171053885Y-177013457D02*
G01*
X171442793Y-177402365D01*
X170382133Y-178463025D01*
X169993225Y-178074117D01*
X171053885Y-177013457D01*
G37*
G36*
X170488199Y-176447772D02*
G01*
X170877107Y-176836680D01*
X169816447Y-177897340D01*
X169427539Y-177508432D01*
X170488199Y-176447772D01*
G37*
G36*
X169922514Y-175882086D02*
G01*
X170311422Y-176270994D01*
X169250762Y-177331654D01*
X168861854Y-176942746D01*
X169922514Y-175882086D01*
G37*
G36*
X169356828Y-175316401D02*
G01*
X169745736Y-175705309D01*
X168685076Y-176765969D01*
X168296168Y-176377061D01*
X169356828Y-175316401D01*
G37*
G36*
X168791143Y-174750716D02*
G01*
X169180051Y-175139624D01*
X168119391Y-176200284D01*
X167730483Y-175811376D01*
X168791143Y-174750716D01*
G37*
G36*
X168225458Y-174185030D02*
G01*
X168614366Y-174573938D01*
X167553706Y-175634598D01*
X167164798Y-175245690D01*
X168225458Y-174185030D01*
G37*
G36*
X-99391810Y-161608548D02*
G01*
X-99002902Y-161997456D01*
X-100063562Y-163058116D01*
X-100452470Y-162669208D01*
X-99391810Y-161608548D01*
G37*
G36*
X-98826124Y-162174233D02*
G01*
X-98437216Y-162563141D01*
X-99497876Y-163623801D01*
X-99886784Y-163234893D01*
X-98826124Y-162174233D01*
G37*
G36*
X-98260439Y-162739918D02*
G01*
X-97871531Y-163128826D01*
X-98932191Y-164189486D01*
X-99321099Y-163800578D01*
X-98260439Y-162739918D01*
G37*
G36*
X-97694754Y-163305604D02*
G01*
X-97305846Y-163694512D01*
X-98366506Y-164755172D01*
X-98755414Y-164366264D01*
X-97694754Y-163305604D01*
G37*
G36*
X-97129068Y-163871289D02*
G01*
X-96740160Y-164260197D01*
X-97800820Y-165320857D01*
X-98189728Y-164931949D01*
X-97129068Y-163871289D01*
G37*
G36*
X-96563383Y-164436975D02*
G01*
X-96174475Y-164825883D01*
X-97235135Y-165886543D01*
X-97624043Y-165497635D01*
X-96563383Y-164436975D01*
G37*
G36*
X-95997697Y-165002660D02*
G01*
X-95608789Y-165391568D01*
X-96669449Y-166452228D01*
X-97058357Y-166063320D01*
X-95997697Y-165002660D01*
G37*
G36*
X-95432012Y-165568346D02*
G01*
X-95043104Y-165957254D01*
X-96103764Y-167017914D01*
X-96492672Y-166629006D01*
X-95432012Y-165568346D01*
G37*
G36*
X-94866326Y-166134031D02*
G01*
X-94477418Y-166522939D01*
X-95538078Y-167583599D01*
X-95926986Y-167194691D01*
X-94866326Y-166134031D01*
G37*
G36*
X-94300641Y-166699716D02*
G01*
X-93911733Y-167088624D01*
X-94972393Y-168149284D01*
X-95361301Y-167760376D01*
X-94300641Y-166699716D01*
G37*
G36*
X-93734956Y-167265402D02*
G01*
X-93346048Y-167654310D01*
X-94406708Y-168714970D01*
X-94795616Y-168326062D01*
X-93734956Y-167265402D01*
G37*
G36*
X-92391452Y-167654310D02*
G01*
X-92002544Y-167265402D01*
X-90941884Y-168326062D01*
X-91330792Y-168714970D01*
X-92391452Y-167654310D01*
G37*
G36*
X-91825767Y-167088624D02*
G01*
X-91436859Y-166699716D01*
X-90376199Y-167760376D01*
X-90765107Y-168149284D01*
X-91825767Y-167088624D01*
G37*
G36*
X-91260082Y-166522939D02*
G01*
X-90871174Y-166134031D01*
X-89810514Y-167194691D01*
X-90199422Y-167583599D01*
X-91260082Y-166522939D01*
G37*
G36*
X-90694396Y-165957254D02*
G01*
X-90305488Y-165568346D01*
X-89244828Y-166629006D01*
X-89633736Y-167017914D01*
X-90694396Y-165957254D01*
G37*
G36*
X-90128711Y-165391568D02*
G01*
X-89739803Y-165002660D01*
X-88679143Y-166063320D01*
X-89068051Y-166452228D01*
X-90128711Y-165391568D01*
G37*
G36*
X-89563025Y-164825883D02*
G01*
X-89174117Y-164436975D01*
X-88113457Y-165497635D01*
X-88502365Y-165886543D01*
X-89563025Y-164825883D01*
G37*
G36*
X-88997340Y-164260197D02*
G01*
X-88608432Y-163871289D01*
X-87547772Y-164931949D01*
X-87936680Y-165320857D01*
X-88997340Y-164260197D01*
G37*
G36*
X-88431654Y-163694512D02*
G01*
X-88042746Y-163305604D01*
X-86982086Y-164366264D01*
X-87370994Y-164755172D01*
X-88431654Y-163694512D01*
G37*
G36*
X-87865969Y-163128826D02*
G01*
X-87477061Y-162739918D01*
X-86416401Y-163800578D01*
X-86805309Y-164189486D01*
X-87865969Y-163128826D01*
G37*
G36*
X-87300284Y-162563141D02*
G01*
X-86911376Y-162174233D01*
X-85850716Y-163234893D01*
X-86239624Y-163623801D01*
X-87300284Y-162563141D01*
G37*
G36*
X-86734598Y-161997456D02*
G01*
X-86345690Y-161608548D01*
X-85285030Y-162669208D01*
X-85673938Y-163058116D01*
X-86734598Y-161997456D01*
G37*
G36*
X-85673938Y-159204384D02*
G01*
X-85285030Y-159593292D01*
X-86345690Y-160653952D01*
X-86734598Y-160265044D01*
X-85673938Y-159204384D01*
G37*
G36*
X-86239624Y-158638699D02*
G01*
X-85850716Y-159027607D01*
X-86911376Y-160088267D01*
X-87300284Y-159699359D01*
X-86239624Y-158638699D01*
G37*
G36*
X-86805309Y-158073014D02*
G01*
X-86416401Y-158461922D01*
X-87477061Y-159522582D01*
X-87865969Y-159133674D01*
X-86805309Y-158073014D01*
G37*
G36*
X-87370994Y-157507328D02*
G01*
X-86982086Y-157896236D01*
X-88042746Y-158956896D01*
X-88431654Y-158567988D01*
X-87370994Y-157507328D01*
G37*
G36*
X-87936680Y-156941643D02*
G01*
X-87547772Y-157330551D01*
X-88608432Y-158391211D01*
X-88997340Y-158002303D01*
X-87936680Y-156941643D01*
G37*
G36*
X-88502365Y-156375957D02*
G01*
X-88113457Y-156764865D01*
X-89174117Y-157825525D01*
X-89563025Y-157436617D01*
X-88502365Y-156375957D01*
G37*
G36*
X-89068051Y-155810272D02*
G01*
X-88679143Y-156199180D01*
X-89739803Y-157259840D01*
X-90128711Y-156870932D01*
X-89068051Y-155810272D01*
G37*
G36*
X-89633736Y-155244586D02*
G01*
X-89244828Y-155633494D01*
X-90305488Y-156694154D01*
X-90694396Y-156305246D01*
X-89633736Y-155244586D01*
G37*
G36*
X-90199422Y-154678901D02*
G01*
X-89810514Y-155067809D01*
X-90871174Y-156128469D01*
X-91260082Y-155739561D01*
X-90199422Y-154678901D01*
G37*
G36*
X-90765107Y-154113216D02*
G01*
X-90376199Y-154502124D01*
X-91436859Y-155562784D01*
X-91825767Y-155173876D01*
X-90765107Y-154113216D01*
G37*
G36*
X-91330792Y-153547530D02*
G01*
X-90941884Y-153936438D01*
X-92002544Y-154997098D01*
X-92391452Y-154608190D01*
X-91330792Y-153547530D01*
G37*
G36*
X-94795616Y-153936438D02*
G01*
X-94406708Y-153547530D01*
X-93346048Y-154608190D01*
X-93734956Y-154997098D01*
X-94795616Y-153936438D01*
G37*
G36*
X-95361301Y-154502124D02*
G01*
X-94972393Y-154113216D01*
X-93911733Y-155173876D01*
X-94300641Y-155562784D01*
X-95361301Y-154502124D01*
G37*
G36*
X-95926986Y-155067809D02*
G01*
X-95538078Y-154678901D01*
X-94477418Y-155739561D01*
X-94866326Y-156128469D01*
X-95926986Y-155067809D01*
G37*
G36*
X-96492672Y-155633494D02*
G01*
X-96103764Y-155244586D01*
X-95043104Y-156305246D01*
X-95432012Y-156694154D01*
X-96492672Y-155633494D01*
G37*
G36*
X-97058357Y-156199180D02*
G01*
X-96669449Y-155810272D01*
X-95608789Y-156870932D01*
X-95997697Y-157259840D01*
X-97058357Y-156199180D01*
G37*
G36*
X-97624043Y-156764865D02*
G01*
X-97235135Y-156375957D01*
X-96174475Y-157436617D01*
X-96563383Y-157825525D01*
X-97624043Y-156764865D01*
G37*
G36*
X-98189728Y-157330551D02*
G01*
X-97800820Y-156941643D01*
X-96740160Y-158002303D01*
X-97129068Y-158391211D01*
X-98189728Y-157330551D01*
G37*
G36*
X-98755414Y-157896236D02*
G01*
X-98366506Y-157507328D01*
X-97305846Y-158567988D01*
X-97694754Y-158956896D01*
X-98755414Y-157896236D01*
G37*
G36*
X-99321099Y-158461922D02*
G01*
X-98932191Y-158073014D01*
X-97871531Y-159133674D01*
X-98260439Y-159522582D01*
X-99321099Y-158461922D01*
G37*
G36*
X-99886784Y-159027607D02*
G01*
X-99497876Y-158638699D01*
X-98437216Y-159699359D01*
X-98826124Y-160088267D01*
X-99886784Y-159027607D01*
G37*
G36*
X-100452470Y-159593292D02*
G01*
X-100063562Y-159204384D01*
X-99002902Y-160265044D01*
X-99391810Y-160653952D01*
X-100452470Y-159593292D01*
G37*
D15*
X184093750Y-161618750D03*
X184093750Y-163818750D03*
X185793750Y-163818750D03*
X185793750Y-161618750D03*
X-88050000Y-143181250D03*
X-88050000Y-140981250D03*
X-89750000Y-140981250D03*
X-89750000Y-143181250D03*
D16*
X183618750Y-184868750D03*
X179918750Y-178668750D03*
X179918750Y-184868750D03*
X183618750Y-178668750D03*
D17*
X-91206250Y-115625000D03*
X-85006250Y-119325000D03*
X-91206250Y-119325000D03*
X-85006250Y-115625000D03*
D14*
G36*
X161567076Y-190817873D02*
G01*
X161590737Y-190821383D01*
X161613941Y-190827195D01*
X161636463Y-190835253D01*
X161658087Y-190845481D01*
X161678604Y-190857778D01*
X161697817Y-190872028D01*
X161715541Y-190888092D01*
X162060256Y-191232807D01*
X162076320Y-191250531D01*
X162090570Y-191269744D01*
X162102867Y-191290261D01*
X162113095Y-191311885D01*
X162121153Y-191334407D01*
X162126965Y-191357611D01*
X162130475Y-191381272D01*
X162131649Y-191405164D01*
X162130475Y-191429056D01*
X162126965Y-191452717D01*
X162121153Y-191475921D01*
X162113095Y-191498443D01*
X162102867Y-191520067D01*
X162090570Y-191540584D01*
X162076320Y-191559797D01*
X162060256Y-191577521D01*
X161415021Y-192222756D01*
X161397297Y-192238820D01*
X161378084Y-192253070D01*
X161357567Y-192265367D01*
X161335943Y-192275595D01*
X161313421Y-192283653D01*
X161290217Y-192289465D01*
X161266556Y-192292975D01*
X161242664Y-192294149D01*
X161218772Y-192292975D01*
X161195111Y-192289465D01*
X161171907Y-192283653D01*
X161149385Y-192275595D01*
X161127761Y-192265367D01*
X161107244Y-192253070D01*
X161088031Y-192238820D01*
X161070307Y-192222756D01*
X160725592Y-191878041D01*
X160709528Y-191860317D01*
X160695278Y-191841104D01*
X160682981Y-191820587D01*
X160672753Y-191798963D01*
X160664695Y-191776441D01*
X160658883Y-191753237D01*
X160655373Y-191729576D01*
X160654199Y-191705684D01*
X160655373Y-191681792D01*
X160658883Y-191658131D01*
X160664695Y-191634927D01*
X160672753Y-191612405D01*
X160682981Y-191590781D01*
X160695278Y-191570264D01*
X160709528Y-191551051D01*
X160725592Y-191533327D01*
X161370827Y-190888092D01*
X161388551Y-190872028D01*
X161407764Y-190857778D01*
X161428281Y-190845481D01*
X161449905Y-190835253D01*
X161472427Y-190827195D01*
X161495631Y-190821383D01*
X161519292Y-190817873D01*
X161543184Y-190816699D01*
X161567076Y-190817873D01*
G37*
G36*
X162892902Y-192143699D02*
G01*
X162916563Y-192147209D01*
X162939767Y-192153021D01*
X162962289Y-192161079D01*
X162983913Y-192171307D01*
X163004430Y-192183604D01*
X163023643Y-192197854D01*
X163041367Y-192213918D01*
X163386082Y-192558633D01*
X163402146Y-192576357D01*
X163416396Y-192595570D01*
X163428693Y-192616087D01*
X163438921Y-192637711D01*
X163446979Y-192660233D01*
X163452791Y-192683437D01*
X163456301Y-192707098D01*
X163457475Y-192730990D01*
X163456301Y-192754882D01*
X163452791Y-192778543D01*
X163446979Y-192801747D01*
X163438921Y-192824269D01*
X163428693Y-192845893D01*
X163416396Y-192866410D01*
X163402146Y-192885623D01*
X163386082Y-192903347D01*
X162740847Y-193548582D01*
X162723123Y-193564646D01*
X162703910Y-193578896D01*
X162683393Y-193591193D01*
X162661769Y-193601421D01*
X162639247Y-193609479D01*
X162616043Y-193615291D01*
X162592382Y-193618801D01*
X162568490Y-193619975D01*
X162544598Y-193618801D01*
X162520937Y-193615291D01*
X162497733Y-193609479D01*
X162475211Y-193601421D01*
X162453587Y-193591193D01*
X162433070Y-193578896D01*
X162413857Y-193564646D01*
X162396133Y-193548582D01*
X162051418Y-193203867D01*
X162035354Y-193186143D01*
X162021104Y-193166930D01*
X162008807Y-193146413D01*
X161998579Y-193124789D01*
X161990521Y-193102267D01*
X161984709Y-193079063D01*
X161981199Y-193055402D01*
X161980025Y-193031510D01*
X161981199Y-193007618D01*
X161984709Y-192983957D01*
X161990521Y-192960753D01*
X161998579Y-192938231D01*
X162008807Y-192916607D01*
X162021104Y-192896090D01*
X162035354Y-192876877D01*
X162051418Y-192859153D01*
X162696653Y-192213918D01*
X162714377Y-192197854D01*
X162733590Y-192183604D01*
X162754107Y-192171307D01*
X162775731Y-192161079D01*
X162798253Y-192153021D01*
X162821457Y-192147209D01*
X162845118Y-192143699D01*
X162869010Y-192142525D01*
X162892902Y-192143699D01*
G37*
G36*
X178280142Y-184601174D02*
G01*
X178303803Y-184604684D01*
X178327007Y-184610496D01*
X178349529Y-184618554D01*
X178371153Y-184628782D01*
X178391670Y-184641079D01*
X178410883Y-184655329D01*
X178428607Y-184671393D01*
X178444671Y-184689117D01*
X178458921Y-184708330D01*
X178471218Y-184728847D01*
X178481446Y-184750471D01*
X178489504Y-184772993D01*
X178495316Y-184796197D01*
X178498826Y-184819858D01*
X178500000Y-184843750D01*
X178500000Y-185331250D01*
X178498826Y-185355142D01*
X178495316Y-185378803D01*
X178489504Y-185402007D01*
X178481446Y-185424529D01*
X178471218Y-185446153D01*
X178458921Y-185466670D01*
X178444671Y-185485883D01*
X178428607Y-185503607D01*
X178410883Y-185519671D01*
X178391670Y-185533921D01*
X178371153Y-185546218D01*
X178349529Y-185556446D01*
X178327007Y-185564504D01*
X178303803Y-185570316D01*
X178280142Y-185573826D01*
X178256250Y-185575000D01*
X177343750Y-185575000D01*
X177319858Y-185573826D01*
X177296197Y-185570316D01*
X177272993Y-185564504D01*
X177250471Y-185556446D01*
X177228847Y-185546218D01*
X177208330Y-185533921D01*
X177189117Y-185519671D01*
X177171393Y-185503607D01*
X177155329Y-185485883D01*
X177141079Y-185466670D01*
X177128782Y-185446153D01*
X177118554Y-185424529D01*
X177110496Y-185402007D01*
X177104684Y-185378803D01*
X177101174Y-185355142D01*
X177100000Y-185331250D01*
X177100000Y-184843750D01*
X177101174Y-184819858D01*
X177104684Y-184796197D01*
X177110496Y-184772993D01*
X177118554Y-184750471D01*
X177128782Y-184728847D01*
X177141079Y-184708330D01*
X177155329Y-184689117D01*
X177171393Y-184671393D01*
X177189117Y-184655329D01*
X177208330Y-184641079D01*
X177228847Y-184628782D01*
X177250471Y-184618554D01*
X177272993Y-184610496D01*
X177296197Y-184604684D01*
X177319858Y-184601174D01*
X177343750Y-184600000D01*
X178256250Y-184600000D01*
X178280142Y-184601174D01*
G37*
G36*
X178280142Y-182726174D02*
G01*
X178303803Y-182729684D01*
X178327007Y-182735496D01*
X178349529Y-182743554D01*
X178371153Y-182753782D01*
X178391670Y-182766079D01*
X178410883Y-182780329D01*
X178428607Y-182796393D01*
X178444671Y-182814117D01*
X178458921Y-182833330D01*
X178471218Y-182853847D01*
X178481446Y-182875471D01*
X178489504Y-182897993D01*
X178495316Y-182921197D01*
X178498826Y-182944858D01*
X178500000Y-182968750D01*
X178500000Y-183456250D01*
X178498826Y-183480142D01*
X178495316Y-183503803D01*
X178489504Y-183527007D01*
X178481446Y-183549529D01*
X178471218Y-183571153D01*
X178458921Y-183591670D01*
X178444671Y-183610883D01*
X178428607Y-183628607D01*
X178410883Y-183644671D01*
X178391670Y-183658921D01*
X178371153Y-183671218D01*
X178349529Y-183681446D01*
X178327007Y-183689504D01*
X178303803Y-183695316D01*
X178280142Y-183698826D01*
X178256250Y-183700000D01*
X177343750Y-183700000D01*
X177319858Y-183698826D01*
X177296197Y-183695316D01*
X177272993Y-183689504D01*
X177250471Y-183681446D01*
X177228847Y-183671218D01*
X177208330Y-183658921D01*
X177189117Y-183644671D01*
X177171393Y-183628607D01*
X177155329Y-183610883D01*
X177141079Y-183591670D01*
X177128782Y-183571153D01*
X177118554Y-183549529D01*
X177110496Y-183527007D01*
X177104684Y-183503803D01*
X177101174Y-183480142D01*
X177100000Y-183456250D01*
X177100000Y-182968750D01*
X177101174Y-182944858D01*
X177104684Y-182921197D01*
X177110496Y-182897993D01*
X177118554Y-182875471D01*
X177128782Y-182853847D01*
X177141079Y-182833330D01*
X177155329Y-182814117D01*
X177171393Y-182796393D01*
X177189117Y-182780329D01*
X177208330Y-182766079D01*
X177228847Y-182753782D01*
X177250471Y-182743554D01*
X177272993Y-182735496D01*
X177296197Y-182729684D01*
X177319858Y-182726174D01*
X177343750Y-182725000D01*
X178256250Y-182725000D01*
X178280142Y-182726174D01*
G37*
G36*
X173517642Y-138276174D02*
G01*
X173541303Y-138279684D01*
X173564507Y-138285496D01*
X173587029Y-138293554D01*
X173608653Y-138303782D01*
X173629170Y-138316079D01*
X173648383Y-138330329D01*
X173666107Y-138346393D01*
X173682171Y-138364117D01*
X173696421Y-138383330D01*
X173708718Y-138403847D01*
X173718946Y-138425471D01*
X173727004Y-138447993D01*
X173732816Y-138471197D01*
X173736326Y-138494858D01*
X173737500Y-138518750D01*
X173737500Y-139006250D01*
X173736326Y-139030142D01*
X173732816Y-139053803D01*
X173727004Y-139077007D01*
X173718946Y-139099529D01*
X173708718Y-139121153D01*
X173696421Y-139141670D01*
X173682171Y-139160883D01*
X173666107Y-139178607D01*
X173648383Y-139194671D01*
X173629170Y-139208921D01*
X173608653Y-139221218D01*
X173587029Y-139231446D01*
X173564507Y-139239504D01*
X173541303Y-139245316D01*
X173517642Y-139248826D01*
X173493750Y-139250000D01*
X172581250Y-139250000D01*
X172557358Y-139248826D01*
X172533697Y-139245316D01*
X172510493Y-139239504D01*
X172487971Y-139231446D01*
X172466347Y-139221218D01*
X172445830Y-139208921D01*
X172426617Y-139194671D01*
X172408893Y-139178607D01*
X172392829Y-139160883D01*
X172378579Y-139141670D01*
X172366282Y-139121153D01*
X172356054Y-139099529D01*
X172347996Y-139077007D01*
X172342184Y-139053803D01*
X172338674Y-139030142D01*
X172337500Y-139006250D01*
X172337500Y-138518750D01*
X172338674Y-138494858D01*
X172342184Y-138471197D01*
X172347996Y-138447993D01*
X172356054Y-138425471D01*
X172366282Y-138403847D01*
X172378579Y-138383330D01*
X172392829Y-138364117D01*
X172408893Y-138346393D01*
X172426617Y-138330329D01*
X172445830Y-138316079D01*
X172466347Y-138303782D01*
X172487971Y-138293554D01*
X172510493Y-138285496D01*
X172533697Y-138279684D01*
X172557358Y-138276174D01*
X172581250Y-138275000D01*
X173493750Y-138275000D01*
X173517642Y-138276174D01*
G37*
G36*
X173517642Y-140151174D02*
G01*
X173541303Y-140154684D01*
X173564507Y-140160496D01*
X173587029Y-140168554D01*
X173608653Y-140178782D01*
X173629170Y-140191079D01*
X173648383Y-140205329D01*
X173666107Y-140221393D01*
X173682171Y-140239117D01*
X173696421Y-140258330D01*
X173708718Y-140278847D01*
X173718946Y-140300471D01*
X173727004Y-140322993D01*
X173732816Y-140346197D01*
X173736326Y-140369858D01*
X173737500Y-140393750D01*
X173737500Y-140881250D01*
X173736326Y-140905142D01*
X173732816Y-140928803D01*
X173727004Y-140952007D01*
X173718946Y-140974529D01*
X173708718Y-140996153D01*
X173696421Y-141016670D01*
X173682171Y-141035883D01*
X173666107Y-141053607D01*
X173648383Y-141069671D01*
X173629170Y-141083921D01*
X173608653Y-141096218D01*
X173587029Y-141106446D01*
X173564507Y-141114504D01*
X173541303Y-141120316D01*
X173517642Y-141123826D01*
X173493750Y-141125000D01*
X172581250Y-141125000D01*
X172557358Y-141123826D01*
X172533697Y-141120316D01*
X172510493Y-141114504D01*
X172487971Y-141106446D01*
X172466347Y-141096218D01*
X172445830Y-141083921D01*
X172426617Y-141069671D01*
X172408893Y-141053607D01*
X172392829Y-141035883D01*
X172378579Y-141016670D01*
X172366282Y-140996153D01*
X172356054Y-140974529D01*
X172347996Y-140952007D01*
X172342184Y-140928803D01*
X172338674Y-140905142D01*
X172337500Y-140881250D01*
X172337500Y-140393750D01*
X172338674Y-140369858D01*
X172342184Y-140346197D01*
X172347996Y-140322993D01*
X172356054Y-140300471D01*
X172366282Y-140278847D01*
X172378579Y-140258330D01*
X172392829Y-140239117D01*
X172408893Y-140221393D01*
X172426617Y-140205329D01*
X172445830Y-140191079D01*
X172466347Y-140178782D01*
X172487971Y-140168554D01*
X172510493Y-140160496D01*
X172533697Y-140154684D01*
X172557358Y-140151174D01*
X172581250Y-140150000D01*
X173493750Y-140150000D01*
X173517642Y-140151174D01*
G37*
G36*
X171136392Y-138276174D02*
G01*
X171160053Y-138279684D01*
X171183257Y-138285496D01*
X171205779Y-138293554D01*
X171227403Y-138303782D01*
X171247920Y-138316079D01*
X171267133Y-138330329D01*
X171284857Y-138346393D01*
X171300921Y-138364117D01*
X171315171Y-138383330D01*
X171327468Y-138403847D01*
X171337696Y-138425471D01*
X171345754Y-138447993D01*
X171351566Y-138471197D01*
X171355076Y-138494858D01*
X171356250Y-138518750D01*
X171356250Y-139006250D01*
X171355076Y-139030142D01*
X171351566Y-139053803D01*
X171345754Y-139077007D01*
X171337696Y-139099529D01*
X171327468Y-139121153D01*
X171315171Y-139141670D01*
X171300921Y-139160883D01*
X171284857Y-139178607D01*
X171267133Y-139194671D01*
X171247920Y-139208921D01*
X171227403Y-139221218D01*
X171205779Y-139231446D01*
X171183257Y-139239504D01*
X171160053Y-139245316D01*
X171136392Y-139248826D01*
X171112500Y-139250000D01*
X170200000Y-139250000D01*
X170176108Y-139248826D01*
X170152447Y-139245316D01*
X170129243Y-139239504D01*
X170106721Y-139231446D01*
X170085097Y-139221218D01*
X170064580Y-139208921D01*
X170045367Y-139194671D01*
X170027643Y-139178607D01*
X170011579Y-139160883D01*
X169997329Y-139141670D01*
X169985032Y-139121153D01*
X169974804Y-139099529D01*
X169966746Y-139077007D01*
X169960934Y-139053803D01*
X169957424Y-139030142D01*
X169956250Y-139006250D01*
X169956250Y-138518750D01*
X169957424Y-138494858D01*
X169960934Y-138471197D01*
X169966746Y-138447993D01*
X169974804Y-138425471D01*
X169985032Y-138403847D01*
X169997329Y-138383330D01*
X170011579Y-138364117D01*
X170027643Y-138346393D01*
X170045367Y-138330329D01*
X170064580Y-138316079D01*
X170085097Y-138303782D01*
X170106721Y-138293554D01*
X170129243Y-138285496D01*
X170152447Y-138279684D01*
X170176108Y-138276174D01*
X170200000Y-138275000D01*
X171112500Y-138275000D01*
X171136392Y-138276174D01*
G37*
G36*
X171136392Y-140151174D02*
G01*
X171160053Y-140154684D01*
X171183257Y-140160496D01*
X171205779Y-140168554D01*
X171227403Y-140178782D01*
X171247920Y-140191079D01*
X171267133Y-140205329D01*
X171284857Y-140221393D01*
X171300921Y-140239117D01*
X171315171Y-140258330D01*
X171327468Y-140278847D01*
X171337696Y-140300471D01*
X171345754Y-140322993D01*
X171351566Y-140346197D01*
X171355076Y-140369858D01*
X171356250Y-140393750D01*
X171356250Y-140881250D01*
X171355076Y-140905142D01*
X171351566Y-140928803D01*
X171345754Y-140952007D01*
X171337696Y-140974529D01*
X171327468Y-140996153D01*
X171315171Y-141016670D01*
X171300921Y-141035883D01*
X171284857Y-141053607D01*
X171267133Y-141069671D01*
X171247920Y-141083921D01*
X171227403Y-141096218D01*
X171205779Y-141106446D01*
X171183257Y-141114504D01*
X171160053Y-141120316D01*
X171136392Y-141123826D01*
X171112500Y-141125000D01*
X170200000Y-141125000D01*
X170176108Y-141123826D01*
X170152447Y-141120316D01*
X170129243Y-141114504D01*
X170106721Y-141106446D01*
X170085097Y-141096218D01*
X170064580Y-141083921D01*
X170045367Y-141069671D01*
X170027643Y-141053607D01*
X170011579Y-141035883D01*
X169997329Y-141016670D01*
X169985032Y-140996153D01*
X169974804Y-140974529D01*
X169966746Y-140952007D01*
X169960934Y-140928803D01*
X169957424Y-140905142D01*
X169956250Y-140881250D01*
X169956250Y-140393750D01*
X169957424Y-140369858D01*
X169960934Y-140346197D01*
X169966746Y-140322993D01*
X169974804Y-140300471D01*
X169985032Y-140278847D01*
X169997329Y-140258330D01*
X170011579Y-140239117D01*
X170027643Y-140221393D01*
X170045367Y-140205329D01*
X170064580Y-140191079D01*
X170085097Y-140178782D01*
X170106721Y-140168554D01*
X170129243Y-140160496D01*
X170152447Y-140154684D01*
X170176108Y-140151174D01*
X170200000Y-140150000D01*
X171112500Y-140150000D01*
X171136392Y-140151174D01*
G37*
G36*
X-92457358Y-176307424D02*
G01*
X-92433697Y-176310934D01*
X-92410493Y-176316746D01*
X-92387971Y-176324804D01*
X-92366347Y-176335032D01*
X-92345830Y-176347329D01*
X-92326617Y-176361579D01*
X-92308893Y-176377643D01*
X-92292829Y-176395367D01*
X-92278579Y-176414580D01*
X-92266282Y-176435097D01*
X-92256054Y-176456721D01*
X-92247996Y-176479243D01*
X-92242184Y-176502447D01*
X-92238674Y-176526108D01*
X-92237500Y-176550000D01*
X-92237500Y-177462500D01*
X-92238674Y-177486392D01*
X-92242184Y-177510053D01*
X-92247996Y-177533257D01*
X-92256054Y-177555779D01*
X-92266282Y-177577403D01*
X-92278579Y-177597920D01*
X-92292829Y-177617133D01*
X-92308893Y-177634857D01*
X-92326617Y-177650921D01*
X-92345830Y-177665171D01*
X-92366347Y-177677468D01*
X-92387971Y-177687696D01*
X-92410493Y-177695754D01*
X-92433697Y-177701566D01*
X-92457358Y-177705076D01*
X-92481250Y-177706250D01*
X-92968750Y-177706250D01*
X-92992642Y-177705076D01*
X-93016303Y-177701566D01*
X-93039507Y-177695754D01*
X-93062029Y-177687696D01*
X-93083653Y-177677468D01*
X-93104170Y-177665171D01*
X-93123383Y-177650921D01*
X-93141107Y-177634857D01*
X-93157171Y-177617133D01*
X-93171421Y-177597920D01*
X-93183718Y-177577403D01*
X-93193946Y-177555779D01*
X-93202004Y-177533257D01*
X-93207816Y-177510053D01*
X-93211326Y-177486392D01*
X-93212500Y-177462500D01*
X-93212500Y-176550000D01*
X-93211326Y-176526108D01*
X-93207816Y-176502447D01*
X-93202004Y-176479243D01*
X-93193946Y-176456721D01*
X-93183718Y-176435097D01*
X-93171421Y-176414580D01*
X-93157171Y-176395367D01*
X-93141107Y-176377643D01*
X-93123383Y-176361579D01*
X-93104170Y-176347329D01*
X-93083653Y-176335032D01*
X-93062029Y-176324804D01*
X-93039507Y-176316746D01*
X-93016303Y-176310934D01*
X-92992642Y-176307424D01*
X-92968750Y-176306250D01*
X-92481250Y-176306250D01*
X-92457358Y-176307424D01*
G37*
G36*
X-94332358Y-176307424D02*
G01*
X-94308697Y-176310934D01*
X-94285493Y-176316746D01*
X-94262971Y-176324804D01*
X-94241347Y-176335032D01*
X-94220830Y-176347329D01*
X-94201617Y-176361579D01*
X-94183893Y-176377643D01*
X-94167829Y-176395367D01*
X-94153579Y-176414580D01*
X-94141282Y-176435097D01*
X-94131054Y-176456721D01*
X-94122996Y-176479243D01*
X-94117184Y-176502447D01*
X-94113674Y-176526108D01*
X-94112500Y-176550000D01*
X-94112500Y-177462500D01*
X-94113674Y-177486392D01*
X-94117184Y-177510053D01*
X-94122996Y-177533257D01*
X-94131054Y-177555779D01*
X-94141282Y-177577403D01*
X-94153579Y-177597920D01*
X-94167829Y-177617133D01*
X-94183893Y-177634857D01*
X-94201617Y-177650921D01*
X-94220830Y-177665171D01*
X-94241347Y-177677468D01*
X-94262971Y-177687696D01*
X-94285493Y-177695754D01*
X-94308697Y-177701566D01*
X-94332358Y-177705076D01*
X-94356250Y-177706250D01*
X-94843750Y-177706250D01*
X-94867642Y-177705076D01*
X-94891303Y-177701566D01*
X-94914507Y-177695754D01*
X-94937029Y-177687696D01*
X-94958653Y-177677468D01*
X-94979170Y-177665171D01*
X-94998383Y-177650921D01*
X-95016107Y-177634857D01*
X-95032171Y-177617133D01*
X-95046421Y-177597920D01*
X-95058718Y-177577403D01*
X-95068946Y-177555779D01*
X-95077004Y-177533257D01*
X-95082816Y-177510053D01*
X-95086326Y-177486392D01*
X-95087500Y-177462500D01*
X-95087500Y-176550000D01*
X-95086326Y-176526108D01*
X-95082816Y-176502447D01*
X-95077004Y-176479243D01*
X-95068946Y-176456721D01*
X-95058718Y-176435097D01*
X-95046421Y-176414580D01*
X-95032171Y-176395367D01*
X-95016107Y-176377643D01*
X-94998383Y-176361579D01*
X-94979170Y-176347329D01*
X-94958653Y-176335032D01*
X-94937029Y-176324804D01*
X-94914507Y-176316746D01*
X-94891303Y-176310934D01*
X-94867642Y-176307424D01*
X-94843750Y-176306250D01*
X-94356250Y-176306250D01*
X-94332358Y-176307424D01*
G37*
G36*
X-90363608Y-123126174D02*
G01*
X-90339947Y-123129684D01*
X-90316743Y-123135496D01*
X-90294221Y-123143554D01*
X-90272597Y-123153782D01*
X-90252080Y-123166079D01*
X-90232867Y-123180329D01*
X-90215143Y-123196393D01*
X-90199079Y-123214117D01*
X-90184829Y-123233330D01*
X-90172532Y-123253847D01*
X-90162304Y-123275471D01*
X-90154246Y-123297993D01*
X-90148434Y-123321197D01*
X-90144924Y-123344858D01*
X-90143750Y-123368750D01*
X-90143750Y-124281250D01*
X-90144924Y-124305142D01*
X-90148434Y-124328803D01*
X-90154246Y-124352007D01*
X-90162304Y-124374529D01*
X-90172532Y-124396153D01*
X-90184829Y-124416670D01*
X-90199079Y-124435883D01*
X-90215143Y-124453607D01*
X-90232867Y-124469671D01*
X-90252080Y-124483921D01*
X-90272597Y-124496218D01*
X-90294221Y-124506446D01*
X-90316743Y-124514504D01*
X-90339947Y-124520316D01*
X-90363608Y-124523826D01*
X-90387500Y-124525000D01*
X-90875000Y-124525000D01*
X-90898892Y-124523826D01*
X-90922553Y-124520316D01*
X-90945757Y-124514504D01*
X-90968279Y-124506446D01*
X-90989903Y-124496218D01*
X-91010420Y-124483921D01*
X-91029633Y-124469671D01*
X-91047357Y-124453607D01*
X-91063421Y-124435883D01*
X-91077671Y-124416670D01*
X-91089968Y-124396153D01*
X-91100196Y-124374529D01*
X-91108254Y-124352007D01*
X-91114066Y-124328803D01*
X-91117576Y-124305142D01*
X-91118750Y-124281250D01*
X-91118750Y-123368750D01*
X-91117576Y-123344858D01*
X-91114066Y-123321197D01*
X-91108254Y-123297993D01*
X-91100196Y-123275471D01*
X-91089968Y-123253847D01*
X-91077671Y-123233330D01*
X-91063421Y-123214117D01*
X-91047357Y-123196393D01*
X-91029633Y-123180329D01*
X-91010420Y-123166079D01*
X-90989903Y-123153782D01*
X-90968279Y-123143554D01*
X-90945757Y-123135496D01*
X-90922553Y-123129684D01*
X-90898892Y-123126174D01*
X-90875000Y-123125000D01*
X-90387500Y-123125000D01*
X-90363608Y-123126174D01*
G37*
G36*
X-88488608Y-123126174D02*
G01*
X-88464947Y-123129684D01*
X-88441743Y-123135496D01*
X-88419221Y-123143554D01*
X-88397597Y-123153782D01*
X-88377080Y-123166079D01*
X-88357867Y-123180329D01*
X-88340143Y-123196393D01*
X-88324079Y-123214117D01*
X-88309829Y-123233330D01*
X-88297532Y-123253847D01*
X-88287304Y-123275471D01*
X-88279246Y-123297993D01*
X-88273434Y-123321197D01*
X-88269924Y-123344858D01*
X-88268750Y-123368750D01*
X-88268750Y-124281250D01*
X-88269924Y-124305142D01*
X-88273434Y-124328803D01*
X-88279246Y-124352007D01*
X-88287304Y-124374529D01*
X-88297532Y-124396153D01*
X-88309829Y-124416670D01*
X-88324079Y-124435883D01*
X-88340143Y-124453607D01*
X-88357867Y-124469671D01*
X-88377080Y-124483921D01*
X-88397597Y-124496218D01*
X-88419221Y-124506446D01*
X-88441743Y-124514504D01*
X-88464947Y-124520316D01*
X-88488608Y-124523826D01*
X-88512500Y-124525000D01*
X-89000000Y-124525000D01*
X-89023892Y-124523826D01*
X-89047553Y-124520316D01*
X-89070757Y-124514504D01*
X-89093279Y-124506446D01*
X-89114903Y-124496218D01*
X-89135420Y-124483921D01*
X-89154633Y-124469671D01*
X-89172357Y-124453607D01*
X-89188421Y-124435883D01*
X-89202671Y-124416670D01*
X-89214968Y-124396153D01*
X-89225196Y-124374529D01*
X-89233254Y-124352007D01*
X-89239066Y-124328803D01*
X-89242576Y-124305142D01*
X-89243750Y-124281250D01*
X-89243750Y-123368750D01*
X-89242576Y-123344858D01*
X-89239066Y-123321197D01*
X-89233254Y-123297993D01*
X-89225196Y-123275471D01*
X-89214968Y-123253847D01*
X-89202671Y-123233330D01*
X-89188421Y-123214117D01*
X-89172357Y-123196393D01*
X-89154633Y-123180329D01*
X-89135420Y-123166079D01*
X-89114903Y-123153782D01*
X-89093279Y-123143554D01*
X-89070757Y-123135496D01*
X-89047553Y-123129684D01*
X-89023892Y-123126174D01*
X-89000000Y-123125000D01*
X-88512500Y-123125000D01*
X-88488608Y-123126174D01*
G37*
G36*
X-97944858Y-123194924D02*
G01*
X-97921197Y-123198434D01*
X-97897993Y-123204246D01*
X-97875471Y-123212304D01*
X-97853847Y-123222532D01*
X-97833330Y-123234829D01*
X-97814117Y-123249079D01*
X-97796393Y-123265143D01*
X-97780329Y-123282867D01*
X-97766079Y-123302080D01*
X-97753782Y-123322597D01*
X-97743554Y-123344221D01*
X-97735496Y-123366743D01*
X-97729684Y-123389947D01*
X-97726174Y-123413608D01*
X-97725000Y-123437500D01*
X-97725000Y-123925000D01*
X-97726174Y-123948892D01*
X-97729684Y-123972553D01*
X-97735496Y-123995757D01*
X-97743554Y-124018279D01*
X-97753782Y-124039903D01*
X-97766079Y-124060420D01*
X-97780329Y-124079633D01*
X-97796393Y-124097357D01*
X-97814117Y-124113421D01*
X-97833330Y-124127671D01*
X-97853847Y-124139968D01*
X-97875471Y-124150196D01*
X-97897993Y-124158254D01*
X-97921197Y-124164066D01*
X-97944858Y-124167576D01*
X-97968750Y-124168750D01*
X-98881250Y-124168750D01*
X-98905142Y-124167576D01*
X-98928803Y-124164066D01*
X-98952007Y-124158254D01*
X-98974529Y-124150196D01*
X-98996153Y-124139968D01*
X-99016670Y-124127671D01*
X-99035883Y-124113421D01*
X-99053607Y-124097357D01*
X-99069671Y-124079633D01*
X-99083921Y-124060420D01*
X-99096218Y-124039903D01*
X-99106446Y-124018279D01*
X-99114504Y-123995757D01*
X-99120316Y-123972553D01*
X-99123826Y-123948892D01*
X-99125000Y-123925000D01*
X-99125000Y-123437500D01*
X-99123826Y-123413608D01*
X-99120316Y-123389947D01*
X-99114504Y-123366743D01*
X-99106446Y-123344221D01*
X-99096218Y-123322597D01*
X-99083921Y-123302080D01*
X-99069671Y-123282867D01*
X-99053607Y-123265143D01*
X-99035883Y-123249079D01*
X-99016670Y-123234829D01*
X-98996153Y-123222532D01*
X-98974529Y-123212304D01*
X-98952007Y-123204246D01*
X-98928803Y-123198434D01*
X-98905142Y-123194924D01*
X-98881250Y-123193750D01*
X-97968750Y-123193750D01*
X-97944858Y-123194924D01*
G37*
G36*
X-97944858Y-125069924D02*
G01*
X-97921197Y-125073434D01*
X-97897993Y-125079246D01*
X-97875471Y-125087304D01*
X-97853847Y-125097532D01*
X-97833330Y-125109829D01*
X-97814117Y-125124079D01*
X-97796393Y-125140143D01*
X-97780329Y-125157867D01*
X-97766079Y-125177080D01*
X-97753782Y-125197597D01*
X-97743554Y-125219221D01*
X-97735496Y-125241743D01*
X-97729684Y-125264947D01*
X-97726174Y-125288608D01*
X-97725000Y-125312500D01*
X-97725000Y-125800000D01*
X-97726174Y-125823892D01*
X-97729684Y-125847553D01*
X-97735496Y-125870757D01*
X-97743554Y-125893279D01*
X-97753782Y-125914903D01*
X-97766079Y-125935420D01*
X-97780329Y-125954633D01*
X-97796393Y-125972357D01*
X-97814117Y-125988421D01*
X-97833330Y-126002671D01*
X-97853847Y-126014968D01*
X-97875471Y-126025196D01*
X-97897993Y-126033254D01*
X-97921197Y-126039066D01*
X-97944858Y-126042576D01*
X-97968750Y-126043750D01*
X-98881250Y-126043750D01*
X-98905142Y-126042576D01*
X-98928803Y-126039066D01*
X-98952007Y-126033254D01*
X-98974529Y-126025196D01*
X-98996153Y-126014968D01*
X-99016670Y-126002671D01*
X-99035883Y-125988421D01*
X-99053607Y-125972357D01*
X-99069671Y-125954633D01*
X-99083921Y-125935420D01*
X-99096218Y-125914903D01*
X-99106446Y-125893279D01*
X-99114504Y-125870757D01*
X-99120316Y-125847553D01*
X-99123826Y-125823892D01*
X-99125000Y-125800000D01*
X-99125000Y-125312500D01*
X-99123826Y-125288608D01*
X-99120316Y-125264947D01*
X-99114504Y-125241743D01*
X-99106446Y-125219221D01*
X-99096218Y-125197597D01*
X-99083921Y-125177080D01*
X-99069671Y-125157867D01*
X-99053607Y-125140143D01*
X-99035883Y-125124079D01*
X-99016670Y-125109829D01*
X-98996153Y-125097532D01*
X-98974529Y-125087304D01*
X-98952007Y-125079246D01*
X-98928803Y-125073434D01*
X-98905142Y-125069924D01*
X-98881250Y-125068750D01*
X-97968750Y-125068750D01*
X-97944858Y-125069924D01*
G37*
G36*
X-100326108Y-123194924D02*
G01*
X-100302447Y-123198434D01*
X-100279243Y-123204246D01*
X-100256721Y-123212304D01*
X-100235097Y-123222532D01*
X-100214580Y-123234829D01*
X-100195367Y-123249079D01*
X-100177643Y-123265143D01*
X-100161579Y-123282867D01*
X-100147329Y-123302080D01*
X-100135032Y-123322597D01*
X-100124804Y-123344221D01*
X-100116746Y-123366743D01*
X-100110934Y-123389947D01*
X-100107424Y-123413608D01*
X-100106250Y-123437500D01*
X-100106250Y-123925000D01*
X-100107424Y-123948892D01*
X-100110934Y-123972553D01*
X-100116746Y-123995757D01*
X-100124804Y-124018279D01*
X-100135032Y-124039903D01*
X-100147329Y-124060420D01*
X-100161579Y-124079633D01*
X-100177643Y-124097357D01*
X-100195367Y-124113421D01*
X-100214580Y-124127671D01*
X-100235097Y-124139968D01*
X-100256721Y-124150196D01*
X-100279243Y-124158254D01*
X-100302447Y-124164066D01*
X-100326108Y-124167576D01*
X-100350000Y-124168750D01*
X-101262500Y-124168750D01*
X-101286392Y-124167576D01*
X-101310053Y-124164066D01*
X-101333257Y-124158254D01*
X-101355779Y-124150196D01*
X-101377403Y-124139968D01*
X-101397920Y-124127671D01*
X-101417133Y-124113421D01*
X-101434857Y-124097357D01*
X-101450921Y-124079633D01*
X-101465171Y-124060420D01*
X-101477468Y-124039903D01*
X-101487696Y-124018279D01*
X-101495754Y-123995757D01*
X-101501566Y-123972553D01*
X-101505076Y-123948892D01*
X-101506250Y-123925000D01*
X-101506250Y-123437500D01*
X-101505076Y-123413608D01*
X-101501566Y-123389947D01*
X-101495754Y-123366743D01*
X-101487696Y-123344221D01*
X-101477468Y-123322597D01*
X-101465171Y-123302080D01*
X-101450921Y-123282867D01*
X-101434857Y-123265143D01*
X-101417133Y-123249079D01*
X-101397920Y-123234829D01*
X-101377403Y-123222532D01*
X-101355779Y-123212304D01*
X-101333257Y-123204246D01*
X-101310053Y-123198434D01*
X-101286392Y-123194924D01*
X-101262500Y-123193750D01*
X-100350000Y-123193750D01*
X-100326108Y-123194924D01*
G37*
G36*
X-100326108Y-125069924D02*
G01*
X-100302447Y-125073434D01*
X-100279243Y-125079246D01*
X-100256721Y-125087304D01*
X-100235097Y-125097532D01*
X-100214580Y-125109829D01*
X-100195367Y-125124079D01*
X-100177643Y-125140143D01*
X-100161579Y-125157867D01*
X-100147329Y-125177080D01*
X-100135032Y-125197597D01*
X-100124804Y-125219221D01*
X-100116746Y-125241743D01*
X-100110934Y-125264947D01*
X-100107424Y-125288608D01*
X-100106250Y-125312500D01*
X-100106250Y-125800000D01*
X-100107424Y-125823892D01*
X-100110934Y-125847553D01*
X-100116746Y-125870757D01*
X-100124804Y-125893279D01*
X-100135032Y-125914903D01*
X-100147329Y-125935420D01*
X-100161579Y-125954633D01*
X-100177643Y-125972357D01*
X-100195367Y-125988421D01*
X-100214580Y-126002671D01*
X-100235097Y-126014968D01*
X-100256721Y-126025196D01*
X-100279243Y-126033254D01*
X-100302447Y-126039066D01*
X-100326108Y-126042576D01*
X-100350000Y-126043750D01*
X-101262500Y-126043750D01*
X-101286392Y-126042576D01*
X-101310053Y-126039066D01*
X-101333257Y-126033254D01*
X-101355779Y-126025196D01*
X-101377403Y-126014968D01*
X-101397920Y-126002671D01*
X-101417133Y-125988421D01*
X-101434857Y-125972357D01*
X-101450921Y-125954633D01*
X-101465171Y-125935420D01*
X-101477468Y-125914903D01*
X-101487696Y-125893279D01*
X-101495754Y-125870757D01*
X-101501566Y-125847553D01*
X-101505076Y-125823892D01*
X-101506250Y-125800000D01*
X-101506250Y-125312500D01*
X-101505076Y-125288608D01*
X-101501566Y-125264947D01*
X-101495754Y-125241743D01*
X-101487696Y-125219221D01*
X-101477468Y-125197597D01*
X-101465171Y-125177080D01*
X-101450921Y-125157867D01*
X-101434857Y-125140143D01*
X-101417133Y-125124079D01*
X-101397920Y-125109829D01*
X-101377403Y-125097532D01*
X-101355779Y-125087304D01*
X-101333257Y-125079246D01*
X-101310053Y-125073434D01*
X-101286392Y-125069924D01*
X-101262500Y-125068750D01*
X-100350000Y-125068750D01*
X-100326108Y-125069924D01*
G37*
G36*
X169718254Y-127963704D02*
G01*
X169742523Y-127967304D01*
X169766321Y-127973265D01*
X169789421Y-127981530D01*
X169811599Y-127992020D01*
X169832643Y-128004633D01*
X169852348Y-128019247D01*
X169870527Y-128035723D01*
X169887003Y-128053902D01*
X169901617Y-128073607D01*
X169914230Y-128094651D01*
X169924720Y-128116829D01*
X169932985Y-128139929D01*
X169938946Y-128163727D01*
X169942546Y-128187996D01*
X169943750Y-128212500D01*
X169943750Y-128962500D01*
X169942546Y-128987004D01*
X169938946Y-129011273D01*
X169932985Y-129035071D01*
X169924720Y-129058171D01*
X169914230Y-129080349D01*
X169901617Y-129101393D01*
X169887003Y-129121098D01*
X169870527Y-129139277D01*
X169852348Y-129155753D01*
X169832643Y-129170367D01*
X169811599Y-129182980D01*
X169789421Y-129193470D01*
X169766321Y-129201735D01*
X169742523Y-129207696D01*
X169718254Y-129211296D01*
X169693750Y-129212500D01*
X168443750Y-129212500D01*
X168419246Y-129211296D01*
X168394977Y-129207696D01*
X168371179Y-129201735D01*
X168348079Y-129193470D01*
X168325901Y-129182980D01*
X168304857Y-129170367D01*
X168285152Y-129155753D01*
X168266973Y-129139277D01*
X168250497Y-129121098D01*
X168235883Y-129101393D01*
X168223270Y-129080349D01*
X168212780Y-129058171D01*
X168204515Y-129035071D01*
X168198554Y-129011273D01*
X168194954Y-128987004D01*
X168193750Y-128962500D01*
X168193750Y-128212500D01*
X168194954Y-128187996D01*
X168198554Y-128163727D01*
X168204515Y-128139929D01*
X168212780Y-128116829D01*
X168223270Y-128094651D01*
X168235883Y-128073607D01*
X168250497Y-128053902D01*
X168266973Y-128035723D01*
X168285152Y-128019247D01*
X168304857Y-128004633D01*
X168325901Y-127992020D01*
X168348079Y-127981530D01*
X168371179Y-127973265D01*
X168394977Y-127967304D01*
X168419246Y-127963704D01*
X168443750Y-127962500D01*
X169693750Y-127962500D01*
X169718254Y-127963704D01*
G37*
G36*
X169718254Y-130763704D02*
G01*
X169742523Y-130767304D01*
X169766321Y-130773265D01*
X169789421Y-130781530D01*
X169811599Y-130792020D01*
X169832643Y-130804633D01*
X169852348Y-130819247D01*
X169870527Y-130835723D01*
X169887003Y-130853902D01*
X169901617Y-130873607D01*
X169914230Y-130894651D01*
X169924720Y-130916829D01*
X169932985Y-130939929D01*
X169938946Y-130963727D01*
X169942546Y-130987996D01*
X169943750Y-131012500D01*
X169943750Y-131762500D01*
X169942546Y-131787004D01*
X169938946Y-131811273D01*
X169932985Y-131835071D01*
X169924720Y-131858171D01*
X169914230Y-131880349D01*
X169901617Y-131901393D01*
X169887003Y-131921098D01*
X169870527Y-131939277D01*
X169852348Y-131955753D01*
X169832643Y-131970367D01*
X169811599Y-131982980D01*
X169789421Y-131993470D01*
X169766321Y-132001735D01*
X169742523Y-132007696D01*
X169718254Y-132011296D01*
X169693750Y-132012500D01*
X168443750Y-132012500D01*
X168419246Y-132011296D01*
X168394977Y-132007696D01*
X168371179Y-132001735D01*
X168348079Y-131993470D01*
X168325901Y-131982980D01*
X168304857Y-131970367D01*
X168285152Y-131955753D01*
X168266973Y-131939277D01*
X168250497Y-131921098D01*
X168235883Y-131901393D01*
X168223270Y-131880349D01*
X168212780Y-131858171D01*
X168204515Y-131835071D01*
X168198554Y-131811273D01*
X168194954Y-131787004D01*
X168193750Y-131762500D01*
X168193750Y-131012500D01*
X168194954Y-130987996D01*
X168198554Y-130963727D01*
X168204515Y-130939929D01*
X168212780Y-130916829D01*
X168223270Y-130894651D01*
X168235883Y-130873607D01*
X168250497Y-130853902D01*
X168266973Y-130835723D01*
X168285152Y-130819247D01*
X168304857Y-130804633D01*
X168325901Y-130792020D01*
X168348079Y-130781530D01*
X168371179Y-130773265D01*
X168394977Y-130767304D01*
X168419246Y-130763704D01*
X168443750Y-130762500D01*
X169693750Y-130762500D01*
X169718254Y-130763704D01*
G37*
G36*
X-104125496Y-123388704D02*
G01*
X-104101227Y-123392304D01*
X-104077429Y-123398265D01*
X-104054329Y-123406530D01*
X-104032151Y-123417020D01*
X-104011107Y-123429633D01*
X-103991402Y-123444247D01*
X-103973223Y-123460723D01*
X-103956747Y-123478902D01*
X-103942133Y-123498607D01*
X-103929520Y-123519651D01*
X-103919030Y-123541829D01*
X-103910765Y-123564929D01*
X-103904804Y-123588727D01*
X-103901204Y-123612996D01*
X-103900000Y-123637500D01*
X-103900000Y-124387500D01*
X-103901204Y-124412004D01*
X-103904804Y-124436273D01*
X-103910765Y-124460071D01*
X-103919030Y-124483171D01*
X-103929520Y-124505349D01*
X-103942133Y-124526393D01*
X-103956747Y-124546098D01*
X-103973223Y-124564277D01*
X-103991402Y-124580753D01*
X-104011107Y-124595367D01*
X-104032151Y-124607980D01*
X-104054329Y-124618470D01*
X-104077429Y-124626735D01*
X-104101227Y-124632696D01*
X-104125496Y-124636296D01*
X-104150000Y-124637500D01*
X-105400000Y-124637500D01*
X-105424504Y-124636296D01*
X-105448773Y-124632696D01*
X-105472571Y-124626735D01*
X-105495671Y-124618470D01*
X-105517849Y-124607980D01*
X-105538893Y-124595367D01*
X-105558598Y-124580753D01*
X-105576777Y-124564277D01*
X-105593253Y-124546098D01*
X-105607867Y-124526393D01*
X-105620480Y-124505349D01*
X-105630970Y-124483171D01*
X-105639235Y-124460071D01*
X-105645196Y-124436273D01*
X-105648796Y-124412004D01*
X-105650000Y-124387500D01*
X-105650000Y-123637500D01*
X-105648796Y-123612996D01*
X-105645196Y-123588727D01*
X-105639235Y-123564929D01*
X-105630970Y-123541829D01*
X-105620480Y-123519651D01*
X-105607867Y-123498607D01*
X-105593253Y-123478902D01*
X-105576777Y-123460723D01*
X-105558598Y-123444247D01*
X-105538893Y-123429633D01*
X-105517849Y-123417020D01*
X-105495671Y-123406530D01*
X-105472571Y-123398265D01*
X-105448773Y-123392304D01*
X-105424504Y-123388704D01*
X-105400000Y-123387500D01*
X-104150000Y-123387500D01*
X-104125496Y-123388704D01*
G37*
G36*
X-104125496Y-126188704D02*
G01*
X-104101227Y-126192304D01*
X-104077429Y-126198265D01*
X-104054329Y-126206530D01*
X-104032151Y-126217020D01*
X-104011107Y-126229633D01*
X-103991402Y-126244247D01*
X-103973223Y-126260723D01*
X-103956747Y-126278902D01*
X-103942133Y-126298607D01*
X-103929520Y-126319651D01*
X-103919030Y-126341829D01*
X-103910765Y-126364929D01*
X-103904804Y-126388727D01*
X-103901204Y-126412996D01*
X-103900000Y-126437500D01*
X-103900000Y-127187500D01*
X-103901204Y-127212004D01*
X-103904804Y-127236273D01*
X-103910765Y-127260071D01*
X-103919030Y-127283171D01*
X-103929520Y-127305349D01*
X-103942133Y-127326393D01*
X-103956747Y-127346098D01*
X-103973223Y-127364277D01*
X-103991402Y-127380753D01*
X-104011107Y-127395367D01*
X-104032151Y-127407980D01*
X-104054329Y-127418470D01*
X-104077429Y-127426735D01*
X-104101227Y-127432696D01*
X-104125496Y-127436296D01*
X-104150000Y-127437500D01*
X-105400000Y-127437500D01*
X-105424504Y-127436296D01*
X-105448773Y-127432696D01*
X-105472571Y-127426735D01*
X-105495671Y-127418470D01*
X-105517849Y-127407980D01*
X-105538893Y-127395367D01*
X-105558598Y-127380753D01*
X-105576777Y-127364277D01*
X-105593253Y-127346098D01*
X-105607867Y-127326393D01*
X-105620480Y-127305349D01*
X-105630970Y-127283171D01*
X-105639235Y-127260071D01*
X-105645196Y-127236273D01*
X-105648796Y-127212004D01*
X-105650000Y-127187500D01*
X-105650000Y-126437500D01*
X-105648796Y-126412996D01*
X-105645196Y-126388727D01*
X-105639235Y-126364929D01*
X-105630970Y-126341829D01*
X-105620480Y-126319651D01*
X-105607867Y-126298607D01*
X-105593253Y-126278902D01*
X-105576777Y-126260723D01*
X-105558598Y-126244247D01*
X-105538893Y-126229633D01*
X-105517849Y-126217020D01*
X-105495671Y-126206530D01*
X-105472571Y-126198265D01*
X-105448773Y-126192304D01*
X-105424504Y-126188704D01*
X-105400000Y-126187500D01*
X-104150000Y-126187500D01*
X-104125496Y-126188704D01*
G37*
G36*
X165143315Y-190425362D02*
G01*
X165166976Y-190428872D01*
X165190180Y-190434684D01*
X165212702Y-190442742D01*
X165234326Y-190452970D01*
X165254843Y-190465267D01*
X165274056Y-190479517D01*
X165291780Y-190495581D01*
X165636495Y-190840296D01*
X165652559Y-190858020D01*
X165666809Y-190877233D01*
X165679106Y-190897750D01*
X165689334Y-190919374D01*
X165697392Y-190941896D01*
X165703204Y-190965100D01*
X165706714Y-190988761D01*
X165707888Y-191012653D01*
X165706714Y-191036545D01*
X165703204Y-191060206D01*
X165697392Y-191083410D01*
X165689334Y-191105932D01*
X165679106Y-191127556D01*
X165666809Y-191148073D01*
X165652559Y-191167286D01*
X165636495Y-191185010D01*
X164991260Y-191830245D01*
X164973536Y-191846309D01*
X164954323Y-191860559D01*
X164933806Y-191872856D01*
X164912182Y-191883084D01*
X164889660Y-191891142D01*
X164866456Y-191896954D01*
X164842795Y-191900464D01*
X164818903Y-191901638D01*
X164795011Y-191900464D01*
X164771350Y-191896954D01*
X164748146Y-191891142D01*
X164725624Y-191883084D01*
X164704000Y-191872856D01*
X164683483Y-191860559D01*
X164664270Y-191846309D01*
X164646546Y-191830245D01*
X164301831Y-191485530D01*
X164285767Y-191467806D01*
X164271517Y-191448593D01*
X164259220Y-191428076D01*
X164248992Y-191406452D01*
X164240934Y-191383930D01*
X164235122Y-191360726D01*
X164231612Y-191337065D01*
X164230438Y-191313173D01*
X164231612Y-191289281D01*
X164235122Y-191265620D01*
X164240934Y-191242416D01*
X164248992Y-191219894D01*
X164259220Y-191198270D01*
X164271517Y-191177753D01*
X164285767Y-191158540D01*
X164301831Y-191140816D01*
X164947066Y-190495581D01*
X164964790Y-190479517D01*
X164984003Y-190465267D01*
X165004520Y-190452970D01*
X165026144Y-190442742D01*
X165048666Y-190434684D01*
X165071870Y-190428872D01*
X165095531Y-190425362D01*
X165119423Y-190424188D01*
X165143315Y-190425362D01*
G37*
G36*
X163817489Y-189099536D02*
G01*
X163841150Y-189103046D01*
X163864354Y-189108858D01*
X163886876Y-189116916D01*
X163908500Y-189127144D01*
X163929017Y-189139441D01*
X163948230Y-189153691D01*
X163965954Y-189169755D01*
X164310669Y-189514470D01*
X164326733Y-189532194D01*
X164340983Y-189551407D01*
X164353280Y-189571924D01*
X164363508Y-189593548D01*
X164371566Y-189616070D01*
X164377378Y-189639274D01*
X164380888Y-189662935D01*
X164382062Y-189686827D01*
X164380888Y-189710719D01*
X164377378Y-189734380D01*
X164371566Y-189757584D01*
X164363508Y-189780106D01*
X164353280Y-189801730D01*
X164340983Y-189822247D01*
X164326733Y-189841460D01*
X164310669Y-189859184D01*
X163665434Y-190504419D01*
X163647710Y-190520483D01*
X163628497Y-190534733D01*
X163607980Y-190547030D01*
X163586356Y-190557258D01*
X163563834Y-190565316D01*
X163540630Y-190571128D01*
X163516969Y-190574638D01*
X163493077Y-190575812D01*
X163469185Y-190574638D01*
X163445524Y-190571128D01*
X163422320Y-190565316D01*
X163399798Y-190557258D01*
X163378174Y-190547030D01*
X163357657Y-190534733D01*
X163338444Y-190520483D01*
X163320720Y-190504419D01*
X162976005Y-190159704D01*
X162959941Y-190141980D01*
X162945691Y-190122767D01*
X162933394Y-190102250D01*
X162923166Y-190080626D01*
X162915108Y-190058104D01*
X162909296Y-190034900D01*
X162905786Y-190011239D01*
X162904612Y-189987347D01*
X162905786Y-189963455D01*
X162909296Y-189939794D01*
X162915108Y-189916590D01*
X162923166Y-189894068D01*
X162933394Y-189872444D01*
X162945691Y-189851927D01*
X162959941Y-189832714D01*
X162976005Y-189814990D01*
X163621240Y-189169755D01*
X163638964Y-189153691D01*
X163658177Y-189139441D01*
X163678694Y-189127144D01*
X163700318Y-189116916D01*
X163722840Y-189108858D01*
X163746044Y-189103046D01*
X163769705Y-189099536D01*
X163793597Y-189098362D01*
X163817489Y-189099536D01*
G37*
G36*
X178280142Y-172407424D02*
G01*
X178303803Y-172410934D01*
X178327007Y-172416746D01*
X178349529Y-172424804D01*
X178371153Y-172435032D01*
X178391670Y-172447329D01*
X178410883Y-172461579D01*
X178428607Y-172477643D01*
X178444671Y-172495367D01*
X178458921Y-172514580D01*
X178471218Y-172535097D01*
X178481446Y-172556721D01*
X178489504Y-172579243D01*
X178495316Y-172602447D01*
X178498826Y-172626108D01*
X178500000Y-172650000D01*
X178500000Y-173137500D01*
X178498826Y-173161392D01*
X178495316Y-173185053D01*
X178489504Y-173208257D01*
X178481446Y-173230779D01*
X178471218Y-173252403D01*
X178458921Y-173272920D01*
X178444671Y-173292133D01*
X178428607Y-173309857D01*
X178410883Y-173325921D01*
X178391670Y-173340171D01*
X178371153Y-173352468D01*
X178349529Y-173362696D01*
X178327007Y-173370754D01*
X178303803Y-173376566D01*
X178280142Y-173380076D01*
X178256250Y-173381250D01*
X177343750Y-173381250D01*
X177319858Y-173380076D01*
X177296197Y-173376566D01*
X177272993Y-173370754D01*
X177250471Y-173362696D01*
X177228847Y-173352468D01*
X177208330Y-173340171D01*
X177189117Y-173325921D01*
X177171393Y-173309857D01*
X177155329Y-173292133D01*
X177141079Y-173272920D01*
X177128782Y-173252403D01*
X177118554Y-173230779D01*
X177110496Y-173208257D01*
X177104684Y-173185053D01*
X177101174Y-173161392D01*
X177100000Y-173137500D01*
X177100000Y-172650000D01*
X177101174Y-172626108D01*
X177104684Y-172602447D01*
X177110496Y-172579243D01*
X177118554Y-172556721D01*
X177128782Y-172535097D01*
X177141079Y-172514580D01*
X177155329Y-172495367D01*
X177171393Y-172477643D01*
X177189117Y-172461579D01*
X177208330Y-172447329D01*
X177228847Y-172435032D01*
X177250471Y-172424804D01*
X177272993Y-172416746D01*
X177296197Y-172410934D01*
X177319858Y-172407424D01*
X177343750Y-172406250D01*
X178256250Y-172406250D01*
X178280142Y-172407424D01*
G37*
G36*
X178280142Y-174282424D02*
G01*
X178303803Y-174285934D01*
X178327007Y-174291746D01*
X178349529Y-174299804D01*
X178371153Y-174310032D01*
X178391670Y-174322329D01*
X178410883Y-174336579D01*
X178428607Y-174352643D01*
X178444671Y-174370367D01*
X178458921Y-174389580D01*
X178471218Y-174410097D01*
X178481446Y-174431721D01*
X178489504Y-174454243D01*
X178495316Y-174477447D01*
X178498826Y-174501108D01*
X178500000Y-174525000D01*
X178500000Y-175012500D01*
X178498826Y-175036392D01*
X178495316Y-175060053D01*
X178489504Y-175083257D01*
X178481446Y-175105779D01*
X178471218Y-175127403D01*
X178458921Y-175147920D01*
X178444671Y-175167133D01*
X178428607Y-175184857D01*
X178410883Y-175200921D01*
X178391670Y-175215171D01*
X178371153Y-175227468D01*
X178349529Y-175237696D01*
X178327007Y-175245754D01*
X178303803Y-175251566D01*
X178280142Y-175255076D01*
X178256250Y-175256250D01*
X177343750Y-175256250D01*
X177319858Y-175255076D01*
X177296197Y-175251566D01*
X177272993Y-175245754D01*
X177250471Y-175237696D01*
X177228847Y-175227468D01*
X177208330Y-175215171D01*
X177189117Y-175200921D01*
X177171393Y-175184857D01*
X177155329Y-175167133D01*
X177141079Y-175147920D01*
X177128782Y-175127403D01*
X177118554Y-175105779D01*
X177110496Y-175083257D01*
X177104684Y-175060053D01*
X177101174Y-175036392D01*
X177100000Y-175012500D01*
X177100000Y-174525000D01*
X177101174Y-174501108D01*
X177104684Y-174477447D01*
X177110496Y-174454243D01*
X177118554Y-174431721D01*
X177128782Y-174410097D01*
X177141079Y-174389580D01*
X177155329Y-174370367D01*
X177171393Y-174352643D01*
X177189117Y-174336579D01*
X177208330Y-174322329D01*
X177228847Y-174310032D01*
X177250471Y-174299804D01*
X177272993Y-174291746D01*
X177296197Y-174285934D01*
X177319858Y-174282424D01*
X177343750Y-174281250D01*
X178256250Y-174281250D01*
X178280142Y-174282424D01*
G37*
G36*
X161611392Y-172694924D02*
G01*
X161635053Y-172698434D01*
X161658257Y-172704246D01*
X161680779Y-172712304D01*
X161702403Y-172722532D01*
X161722920Y-172734829D01*
X161742133Y-172749079D01*
X161759857Y-172765143D01*
X161775921Y-172782867D01*
X161790171Y-172802080D01*
X161802468Y-172822597D01*
X161812696Y-172844221D01*
X161820754Y-172866743D01*
X161826566Y-172889947D01*
X161830076Y-172913608D01*
X161831250Y-172937500D01*
X161831250Y-173425000D01*
X161830076Y-173448892D01*
X161826566Y-173472553D01*
X161820754Y-173495757D01*
X161812696Y-173518279D01*
X161802468Y-173539903D01*
X161790171Y-173560420D01*
X161775921Y-173579633D01*
X161759857Y-173597357D01*
X161742133Y-173613421D01*
X161722920Y-173627671D01*
X161702403Y-173639968D01*
X161680779Y-173650196D01*
X161658257Y-173658254D01*
X161635053Y-173664066D01*
X161611392Y-173667576D01*
X161587500Y-173668750D01*
X160675000Y-173668750D01*
X160651108Y-173667576D01*
X160627447Y-173664066D01*
X160604243Y-173658254D01*
X160581721Y-173650196D01*
X160560097Y-173639968D01*
X160539580Y-173627671D01*
X160520367Y-173613421D01*
X160502643Y-173597357D01*
X160486579Y-173579633D01*
X160472329Y-173560420D01*
X160460032Y-173539903D01*
X160449804Y-173518279D01*
X160441746Y-173495757D01*
X160435934Y-173472553D01*
X160432424Y-173448892D01*
X160431250Y-173425000D01*
X160431250Y-172937500D01*
X160432424Y-172913608D01*
X160435934Y-172889947D01*
X160441746Y-172866743D01*
X160449804Y-172844221D01*
X160460032Y-172822597D01*
X160472329Y-172802080D01*
X160486579Y-172782867D01*
X160502643Y-172765143D01*
X160520367Y-172749079D01*
X160539580Y-172734829D01*
X160560097Y-172722532D01*
X160581721Y-172712304D01*
X160604243Y-172704246D01*
X160627447Y-172698434D01*
X160651108Y-172694924D01*
X160675000Y-172693750D01*
X161587500Y-172693750D01*
X161611392Y-172694924D01*
G37*
G36*
X161611392Y-170819924D02*
G01*
X161635053Y-170823434D01*
X161658257Y-170829246D01*
X161680779Y-170837304D01*
X161702403Y-170847532D01*
X161722920Y-170859829D01*
X161742133Y-170874079D01*
X161759857Y-170890143D01*
X161775921Y-170907867D01*
X161790171Y-170927080D01*
X161802468Y-170947597D01*
X161812696Y-170969221D01*
X161820754Y-170991743D01*
X161826566Y-171014947D01*
X161830076Y-171038608D01*
X161831250Y-171062500D01*
X161831250Y-171550000D01*
X161830076Y-171573892D01*
X161826566Y-171597553D01*
X161820754Y-171620757D01*
X161812696Y-171643279D01*
X161802468Y-171664903D01*
X161790171Y-171685420D01*
X161775921Y-171704633D01*
X161759857Y-171722357D01*
X161742133Y-171738421D01*
X161722920Y-171752671D01*
X161702403Y-171764968D01*
X161680779Y-171775196D01*
X161658257Y-171783254D01*
X161635053Y-171789066D01*
X161611392Y-171792576D01*
X161587500Y-171793750D01*
X160675000Y-171793750D01*
X160651108Y-171792576D01*
X160627447Y-171789066D01*
X160604243Y-171783254D01*
X160581721Y-171775196D01*
X160560097Y-171764968D01*
X160539580Y-171752671D01*
X160520367Y-171738421D01*
X160502643Y-171722357D01*
X160486579Y-171704633D01*
X160472329Y-171685420D01*
X160460032Y-171664903D01*
X160449804Y-171643279D01*
X160441746Y-171620757D01*
X160435934Y-171597553D01*
X160432424Y-171573892D01*
X160431250Y-171550000D01*
X160431250Y-171062500D01*
X160432424Y-171038608D01*
X160435934Y-171014947D01*
X160441746Y-170991743D01*
X160449804Y-170969221D01*
X160460032Y-170947597D01*
X160472329Y-170927080D01*
X160486579Y-170907867D01*
X160502643Y-170890143D01*
X160520367Y-170874079D01*
X160539580Y-170859829D01*
X160560097Y-170847532D01*
X160581721Y-170837304D01*
X160604243Y-170829246D01*
X160627447Y-170823434D01*
X160651108Y-170819924D01*
X160675000Y-170818750D01*
X161587500Y-170818750D01*
X161611392Y-170819924D01*
G37*
G36*
X158492795Y-177193286D02*
G01*
X158516456Y-177196796D01*
X158539660Y-177202608D01*
X158562182Y-177210666D01*
X158583806Y-177220894D01*
X158604323Y-177233191D01*
X158623536Y-177247441D01*
X158641260Y-177263505D01*
X159286495Y-177908740D01*
X159302559Y-177926464D01*
X159316809Y-177945677D01*
X159329106Y-177966194D01*
X159339334Y-177987818D01*
X159347392Y-178010340D01*
X159353204Y-178033544D01*
X159356714Y-178057205D01*
X159357888Y-178081097D01*
X159356714Y-178104989D01*
X159353204Y-178128650D01*
X159347392Y-178151854D01*
X159339334Y-178174376D01*
X159329106Y-178196000D01*
X159316809Y-178216517D01*
X159302559Y-178235730D01*
X159286495Y-178253454D01*
X158941780Y-178598169D01*
X158924056Y-178614233D01*
X158904843Y-178628483D01*
X158884326Y-178640780D01*
X158862702Y-178651008D01*
X158840180Y-178659066D01*
X158816976Y-178664878D01*
X158793315Y-178668388D01*
X158769423Y-178669562D01*
X158745531Y-178668388D01*
X158721870Y-178664878D01*
X158698666Y-178659066D01*
X158676144Y-178651008D01*
X158654520Y-178640780D01*
X158634003Y-178628483D01*
X158614790Y-178614233D01*
X158597066Y-178598169D01*
X157951831Y-177952934D01*
X157935767Y-177935210D01*
X157921517Y-177915997D01*
X157909220Y-177895480D01*
X157898992Y-177873856D01*
X157890934Y-177851334D01*
X157885122Y-177828130D01*
X157881612Y-177804469D01*
X157880438Y-177780577D01*
X157881612Y-177756685D01*
X157885122Y-177733024D01*
X157890934Y-177709820D01*
X157898992Y-177687298D01*
X157909220Y-177665674D01*
X157921517Y-177645157D01*
X157935767Y-177625944D01*
X157951831Y-177608220D01*
X158296546Y-177263505D01*
X158314270Y-177247441D01*
X158333483Y-177233191D01*
X158354000Y-177220894D01*
X158375624Y-177210666D01*
X158398146Y-177202608D01*
X158421350Y-177196796D01*
X158445011Y-177193286D01*
X158468903Y-177192112D01*
X158492795Y-177193286D01*
G37*
G36*
X157166969Y-178519112D02*
G01*
X157190630Y-178522622D01*
X157213834Y-178528434D01*
X157236356Y-178536492D01*
X157257980Y-178546720D01*
X157278497Y-178559017D01*
X157297710Y-178573267D01*
X157315434Y-178589331D01*
X157960669Y-179234566D01*
X157976733Y-179252290D01*
X157990983Y-179271503D01*
X158003280Y-179292020D01*
X158013508Y-179313644D01*
X158021566Y-179336166D01*
X158027378Y-179359370D01*
X158030888Y-179383031D01*
X158032062Y-179406923D01*
X158030888Y-179430815D01*
X158027378Y-179454476D01*
X158021566Y-179477680D01*
X158013508Y-179500202D01*
X158003280Y-179521826D01*
X157990983Y-179542343D01*
X157976733Y-179561556D01*
X157960669Y-179579280D01*
X157615954Y-179923995D01*
X157598230Y-179940059D01*
X157579017Y-179954309D01*
X157558500Y-179966606D01*
X157536876Y-179976834D01*
X157514354Y-179984892D01*
X157491150Y-179990704D01*
X157467489Y-179994214D01*
X157443597Y-179995388D01*
X157419705Y-179994214D01*
X157396044Y-179990704D01*
X157372840Y-179984892D01*
X157350318Y-179976834D01*
X157328694Y-179966606D01*
X157308177Y-179954309D01*
X157288964Y-179940059D01*
X157271240Y-179923995D01*
X156626005Y-179278760D01*
X156609941Y-179261036D01*
X156595691Y-179241823D01*
X156583394Y-179221306D01*
X156573166Y-179199682D01*
X156565108Y-179177160D01*
X156559296Y-179153956D01*
X156555786Y-179130295D01*
X156554612Y-179106403D01*
X156555786Y-179082511D01*
X156559296Y-179058850D01*
X156565108Y-179035646D01*
X156573166Y-179013124D01*
X156583394Y-178991500D01*
X156595691Y-178970983D01*
X156609941Y-178951770D01*
X156626005Y-178934046D01*
X156970720Y-178589331D01*
X156988444Y-178573267D01*
X157007657Y-178559017D01*
X157028174Y-178546720D01*
X157049798Y-178536492D01*
X157072320Y-178528434D01*
X157095524Y-178522622D01*
X157119185Y-178519112D01*
X157143077Y-178517938D01*
X157166969Y-178519112D01*
G37*
G36*
X173955142Y-185832424D02*
G01*
X173978803Y-185835934D01*
X174002007Y-185841746D01*
X174024529Y-185849804D01*
X174046153Y-185860032D01*
X174066670Y-185872329D01*
X174085883Y-185886579D01*
X174103607Y-185902643D01*
X174119671Y-185920367D01*
X174133921Y-185939580D01*
X174146218Y-185960097D01*
X174156446Y-185981721D01*
X174164504Y-186004243D01*
X174170316Y-186027447D01*
X174173826Y-186051108D01*
X174175000Y-186075000D01*
X174175000Y-186987500D01*
X174173826Y-187011392D01*
X174170316Y-187035053D01*
X174164504Y-187058257D01*
X174156446Y-187080779D01*
X174146218Y-187102403D01*
X174133921Y-187122920D01*
X174119671Y-187142133D01*
X174103607Y-187159857D01*
X174085883Y-187175921D01*
X174066670Y-187190171D01*
X174046153Y-187202468D01*
X174024529Y-187212696D01*
X174002007Y-187220754D01*
X173978803Y-187226566D01*
X173955142Y-187230076D01*
X173931250Y-187231250D01*
X173443750Y-187231250D01*
X173419858Y-187230076D01*
X173396197Y-187226566D01*
X173372993Y-187220754D01*
X173350471Y-187212696D01*
X173328847Y-187202468D01*
X173308330Y-187190171D01*
X173289117Y-187175921D01*
X173271393Y-187159857D01*
X173255329Y-187142133D01*
X173241079Y-187122920D01*
X173228782Y-187102403D01*
X173218554Y-187080779D01*
X173210496Y-187058257D01*
X173204684Y-187035053D01*
X173201174Y-187011392D01*
X173200000Y-186987500D01*
X173200000Y-186075000D01*
X173201174Y-186051108D01*
X173204684Y-186027447D01*
X173210496Y-186004243D01*
X173218554Y-185981721D01*
X173228782Y-185960097D01*
X173241079Y-185939580D01*
X173255329Y-185920367D01*
X173271393Y-185902643D01*
X173289117Y-185886579D01*
X173308330Y-185872329D01*
X173328847Y-185860032D01*
X173350471Y-185849804D01*
X173372993Y-185841746D01*
X173396197Y-185835934D01*
X173419858Y-185832424D01*
X173443750Y-185831250D01*
X173931250Y-185831250D01*
X173955142Y-185832424D01*
G37*
G36*
X175830142Y-185832424D02*
G01*
X175853803Y-185835934D01*
X175877007Y-185841746D01*
X175899529Y-185849804D01*
X175921153Y-185860032D01*
X175941670Y-185872329D01*
X175960883Y-185886579D01*
X175978607Y-185902643D01*
X175994671Y-185920367D01*
X176008921Y-185939580D01*
X176021218Y-185960097D01*
X176031446Y-185981721D01*
X176039504Y-186004243D01*
X176045316Y-186027447D01*
X176048826Y-186051108D01*
X176050000Y-186075000D01*
X176050000Y-186987500D01*
X176048826Y-187011392D01*
X176045316Y-187035053D01*
X176039504Y-187058257D01*
X176031446Y-187080779D01*
X176021218Y-187102403D01*
X176008921Y-187122920D01*
X175994671Y-187142133D01*
X175978607Y-187159857D01*
X175960883Y-187175921D01*
X175941670Y-187190171D01*
X175921153Y-187202468D01*
X175899529Y-187212696D01*
X175877007Y-187220754D01*
X175853803Y-187226566D01*
X175830142Y-187230076D01*
X175806250Y-187231250D01*
X175318750Y-187231250D01*
X175294858Y-187230076D01*
X175271197Y-187226566D01*
X175247993Y-187220754D01*
X175225471Y-187212696D01*
X175203847Y-187202468D01*
X175183330Y-187190171D01*
X175164117Y-187175921D01*
X175146393Y-187159857D01*
X175130329Y-187142133D01*
X175116079Y-187122920D01*
X175103782Y-187102403D01*
X175093554Y-187080779D01*
X175085496Y-187058257D01*
X175079684Y-187035053D01*
X175076174Y-187011392D01*
X175075000Y-186987500D01*
X175075000Y-186075000D01*
X175076174Y-186051108D01*
X175079684Y-186027447D01*
X175085496Y-186004243D01*
X175093554Y-185981721D01*
X175103782Y-185960097D01*
X175116079Y-185939580D01*
X175130329Y-185920367D01*
X175146393Y-185902643D01*
X175164117Y-185886579D01*
X175183330Y-185872329D01*
X175203847Y-185860032D01*
X175225471Y-185849804D01*
X175247993Y-185841746D01*
X175271197Y-185835934D01*
X175294858Y-185832424D01*
X175318750Y-185831250D01*
X175806250Y-185831250D01*
X175830142Y-185832424D01*
G37*
G36*
X184273892Y-165988674D02*
G01*
X184297553Y-165992184D01*
X184320757Y-165997996D01*
X184343279Y-166006054D01*
X184364903Y-166016282D01*
X184385420Y-166028579D01*
X184404633Y-166042829D01*
X184422357Y-166058893D01*
X184438421Y-166076617D01*
X184452671Y-166095830D01*
X184464968Y-166116347D01*
X184475196Y-166137971D01*
X184483254Y-166160493D01*
X184489066Y-166183697D01*
X184492576Y-166207358D01*
X184493750Y-166231250D01*
X184493750Y-167143750D01*
X184492576Y-167167642D01*
X184489066Y-167191303D01*
X184483254Y-167214507D01*
X184475196Y-167237029D01*
X184464968Y-167258653D01*
X184452671Y-167279170D01*
X184438421Y-167298383D01*
X184422357Y-167316107D01*
X184404633Y-167332171D01*
X184385420Y-167346421D01*
X184364903Y-167358718D01*
X184343279Y-167368946D01*
X184320757Y-167377004D01*
X184297553Y-167382816D01*
X184273892Y-167386326D01*
X184250000Y-167387500D01*
X183762500Y-167387500D01*
X183738608Y-167386326D01*
X183714947Y-167382816D01*
X183691743Y-167377004D01*
X183669221Y-167368946D01*
X183647597Y-167358718D01*
X183627080Y-167346421D01*
X183607867Y-167332171D01*
X183590143Y-167316107D01*
X183574079Y-167298383D01*
X183559829Y-167279170D01*
X183547532Y-167258653D01*
X183537304Y-167237029D01*
X183529246Y-167214507D01*
X183523434Y-167191303D01*
X183519924Y-167167642D01*
X183518750Y-167143750D01*
X183518750Y-166231250D01*
X183519924Y-166207358D01*
X183523434Y-166183697D01*
X183529246Y-166160493D01*
X183537304Y-166137971D01*
X183547532Y-166116347D01*
X183559829Y-166095830D01*
X183574079Y-166076617D01*
X183590143Y-166058893D01*
X183607867Y-166042829D01*
X183627080Y-166028579D01*
X183647597Y-166016282D01*
X183669221Y-166006054D01*
X183691743Y-165997996D01*
X183714947Y-165992184D01*
X183738608Y-165988674D01*
X183762500Y-165987500D01*
X184250000Y-165987500D01*
X184273892Y-165988674D01*
G37*
G36*
X186148892Y-165988674D02*
G01*
X186172553Y-165992184D01*
X186195757Y-165997996D01*
X186218279Y-166006054D01*
X186239903Y-166016282D01*
X186260420Y-166028579D01*
X186279633Y-166042829D01*
X186297357Y-166058893D01*
X186313421Y-166076617D01*
X186327671Y-166095830D01*
X186339968Y-166116347D01*
X186350196Y-166137971D01*
X186358254Y-166160493D01*
X186364066Y-166183697D01*
X186367576Y-166207358D01*
X186368750Y-166231250D01*
X186368750Y-167143750D01*
X186367576Y-167167642D01*
X186364066Y-167191303D01*
X186358254Y-167214507D01*
X186350196Y-167237029D01*
X186339968Y-167258653D01*
X186327671Y-167279170D01*
X186313421Y-167298383D01*
X186297357Y-167316107D01*
X186279633Y-167332171D01*
X186260420Y-167346421D01*
X186239903Y-167358718D01*
X186218279Y-167368946D01*
X186195757Y-167377004D01*
X186172553Y-167382816D01*
X186148892Y-167386326D01*
X186125000Y-167387500D01*
X185637500Y-167387500D01*
X185613608Y-167386326D01*
X185589947Y-167382816D01*
X185566743Y-167377004D01*
X185544221Y-167368946D01*
X185522597Y-167358718D01*
X185502080Y-167346421D01*
X185482867Y-167332171D01*
X185465143Y-167316107D01*
X185449079Y-167298383D01*
X185434829Y-167279170D01*
X185422532Y-167258653D01*
X185412304Y-167237029D01*
X185404246Y-167214507D01*
X185398434Y-167191303D01*
X185394924Y-167167642D01*
X185393750Y-167143750D01*
X185393750Y-166231250D01*
X185394924Y-166207358D01*
X185398434Y-166183697D01*
X185404246Y-166160493D01*
X185412304Y-166137971D01*
X185422532Y-166116347D01*
X185434829Y-166095830D01*
X185449079Y-166076617D01*
X185465143Y-166058893D01*
X185482867Y-166042829D01*
X185502080Y-166028579D01*
X185522597Y-166016282D01*
X185544221Y-166006054D01*
X185566743Y-165997996D01*
X185589947Y-165992184D01*
X185613608Y-165988674D01*
X185637500Y-165987500D01*
X186125000Y-165987500D01*
X186148892Y-165988674D01*
G37*
G36*
X184273892Y-158051174D02*
G01*
X184297553Y-158054684D01*
X184320757Y-158060496D01*
X184343279Y-158068554D01*
X184364903Y-158078782D01*
X184385420Y-158091079D01*
X184404633Y-158105329D01*
X184422357Y-158121393D01*
X184438421Y-158139117D01*
X184452671Y-158158330D01*
X184464968Y-158178847D01*
X184475196Y-158200471D01*
X184483254Y-158222993D01*
X184489066Y-158246197D01*
X184492576Y-158269858D01*
X184493750Y-158293750D01*
X184493750Y-159206250D01*
X184492576Y-159230142D01*
X184489066Y-159253803D01*
X184483254Y-159277007D01*
X184475196Y-159299529D01*
X184464968Y-159321153D01*
X184452671Y-159341670D01*
X184438421Y-159360883D01*
X184422357Y-159378607D01*
X184404633Y-159394671D01*
X184385420Y-159408921D01*
X184364903Y-159421218D01*
X184343279Y-159431446D01*
X184320757Y-159439504D01*
X184297553Y-159445316D01*
X184273892Y-159448826D01*
X184250000Y-159450000D01*
X183762500Y-159450000D01*
X183738608Y-159448826D01*
X183714947Y-159445316D01*
X183691743Y-159439504D01*
X183669221Y-159431446D01*
X183647597Y-159421218D01*
X183627080Y-159408921D01*
X183607867Y-159394671D01*
X183590143Y-159378607D01*
X183574079Y-159360883D01*
X183559829Y-159341670D01*
X183547532Y-159321153D01*
X183537304Y-159299529D01*
X183529246Y-159277007D01*
X183523434Y-159253803D01*
X183519924Y-159230142D01*
X183518750Y-159206250D01*
X183518750Y-158293750D01*
X183519924Y-158269858D01*
X183523434Y-158246197D01*
X183529246Y-158222993D01*
X183537304Y-158200471D01*
X183547532Y-158178847D01*
X183559829Y-158158330D01*
X183574079Y-158139117D01*
X183590143Y-158121393D01*
X183607867Y-158105329D01*
X183627080Y-158091079D01*
X183647597Y-158078782D01*
X183669221Y-158068554D01*
X183691743Y-158060496D01*
X183714947Y-158054684D01*
X183738608Y-158051174D01*
X183762500Y-158050000D01*
X184250000Y-158050000D01*
X184273892Y-158051174D01*
G37*
G36*
X186148892Y-158051174D02*
G01*
X186172553Y-158054684D01*
X186195757Y-158060496D01*
X186218279Y-158068554D01*
X186239903Y-158078782D01*
X186260420Y-158091079D01*
X186279633Y-158105329D01*
X186297357Y-158121393D01*
X186313421Y-158139117D01*
X186327671Y-158158330D01*
X186339968Y-158178847D01*
X186350196Y-158200471D01*
X186358254Y-158222993D01*
X186364066Y-158246197D01*
X186367576Y-158269858D01*
X186368750Y-158293750D01*
X186368750Y-159206250D01*
X186367576Y-159230142D01*
X186364066Y-159253803D01*
X186358254Y-159277007D01*
X186350196Y-159299529D01*
X186339968Y-159321153D01*
X186327671Y-159341670D01*
X186313421Y-159360883D01*
X186297357Y-159378607D01*
X186279633Y-159394671D01*
X186260420Y-159408921D01*
X186239903Y-159421218D01*
X186218279Y-159431446D01*
X186195757Y-159439504D01*
X186172553Y-159445316D01*
X186148892Y-159448826D01*
X186125000Y-159450000D01*
X185637500Y-159450000D01*
X185613608Y-159448826D01*
X185589947Y-159445316D01*
X185566743Y-159439504D01*
X185544221Y-159431446D01*
X185522597Y-159421218D01*
X185502080Y-159408921D01*
X185482867Y-159394671D01*
X185465143Y-159378607D01*
X185449079Y-159360883D01*
X185434829Y-159341670D01*
X185422532Y-159321153D01*
X185412304Y-159299529D01*
X185404246Y-159277007D01*
X185398434Y-159253803D01*
X185394924Y-159230142D01*
X185393750Y-159206250D01*
X185393750Y-158293750D01*
X185394924Y-158269858D01*
X185398434Y-158246197D01*
X185404246Y-158222993D01*
X185412304Y-158200471D01*
X185422532Y-158178847D01*
X185434829Y-158158330D01*
X185449079Y-158139117D01*
X185465143Y-158121393D01*
X185482867Y-158105329D01*
X185502080Y-158091079D01*
X185522597Y-158078782D01*
X185544221Y-158068554D01*
X185566743Y-158060496D01*
X185589947Y-158054684D01*
X185613608Y-158051174D01*
X185637500Y-158050000D01*
X186125000Y-158050000D01*
X186148892Y-158051174D01*
G37*
G36*
X166373892Y-133007424D02*
G01*
X166397553Y-133010934D01*
X166420757Y-133016746D01*
X166443279Y-133024804D01*
X166464903Y-133035032D01*
X166485420Y-133047329D01*
X166504633Y-133061579D01*
X166522357Y-133077643D01*
X166538421Y-133095367D01*
X166552671Y-133114580D01*
X166564968Y-133135097D01*
X166575196Y-133156721D01*
X166583254Y-133179243D01*
X166589066Y-133202447D01*
X166592576Y-133226108D01*
X166593750Y-133250000D01*
X166593750Y-133737500D01*
X166592576Y-133761392D01*
X166589066Y-133785053D01*
X166583254Y-133808257D01*
X166575196Y-133830779D01*
X166564968Y-133852403D01*
X166552671Y-133872920D01*
X166538421Y-133892133D01*
X166522357Y-133909857D01*
X166504633Y-133925921D01*
X166485420Y-133940171D01*
X166464903Y-133952468D01*
X166443279Y-133962696D01*
X166420757Y-133970754D01*
X166397553Y-133976566D01*
X166373892Y-133980076D01*
X166350000Y-133981250D01*
X165437500Y-133981250D01*
X165413608Y-133980076D01*
X165389947Y-133976566D01*
X165366743Y-133970754D01*
X165344221Y-133962696D01*
X165322597Y-133952468D01*
X165302080Y-133940171D01*
X165282867Y-133925921D01*
X165265143Y-133909857D01*
X165249079Y-133892133D01*
X165234829Y-133872920D01*
X165222532Y-133852403D01*
X165212304Y-133830779D01*
X165204246Y-133808257D01*
X165198434Y-133785053D01*
X165194924Y-133761392D01*
X165193750Y-133737500D01*
X165193750Y-133250000D01*
X165194924Y-133226108D01*
X165198434Y-133202447D01*
X165204246Y-133179243D01*
X165212304Y-133156721D01*
X165222532Y-133135097D01*
X165234829Y-133114580D01*
X165249079Y-133095367D01*
X165265143Y-133077643D01*
X165282867Y-133061579D01*
X165302080Y-133047329D01*
X165322597Y-133035032D01*
X165344221Y-133024804D01*
X165366743Y-133016746D01*
X165389947Y-133010934D01*
X165413608Y-133007424D01*
X165437500Y-133006250D01*
X166350000Y-133006250D01*
X166373892Y-133007424D01*
G37*
G36*
X166373892Y-131132424D02*
G01*
X166397553Y-131135934D01*
X166420757Y-131141746D01*
X166443279Y-131149804D01*
X166464903Y-131160032D01*
X166485420Y-131172329D01*
X166504633Y-131186579D01*
X166522357Y-131202643D01*
X166538421Y-131220367D01*
X166552671Y-131239580D01*
X166564968Y-131260097D01*
X166575196Y-131281721D01*
X166583254Y-131304243D01*
X166589066Y-131327447D01*
X166592576Y-131351108D01*
X166593750Y-131375000D01*
X166593750Y-131862500D01*
X166592576Y-131886392D01*
X166589066Y-131910053D01*
X166583254Y-131933257D01*
X166575196Y-131955779D01*
X166564968Y-131977403D01*
X166552671Y-131997920D01*
X166538421Y-132017133D01*
X166522357Y-132034857D01*
X166504633Y-132050921D01*
X166485420Y-132065171D01*
X166464903Y-132077468D01*
X166443279Y-132087696D01*
X166420757Y-132095754D01*
X166397553Y-132101566D01*
X166373892Y-132105076D01*
X166350000Y-132106250D01*
X165437500Y-132106250D01*
X165413608Y-132105076D01*
X165389947Y-132101566D01*
X165366743Y-132095754D01*
X165344221Y-132087696D01*
X165322597Y-132077468D01*
X165302080Y-132065171D01*
X165282867Y-132050921D01*
X165265143Y-132034857D01*
X165249079Y-132017133D01*
X165234829Y-131997920D01*
X165222532Y-131977403D01*
X165212304Y-131955779D01*
X165204246Y-131933257D01*
X165198434Y-131910053D01*
X165194924Y-131886392D01*
X165193750Y-131862500D01*
X165193750Y-131375000D01*
X165194924Y-131351108D01*
X165198434Y-131327447D01*
X165204246Y-131304243D01*
X165212304Y-131281721D01*
X165222532Y-131260097D01*
X165234829Y-131239580D01*
X165249079Y-131220367D01*
X165265143Y-131202643D01*
X165282867Y-131186579D01*
X165302080Y-131172329D01*
X165322597Y-131160032D01*
X165344221Y-131149804D01*
X165366743Y-131141746D01*
X165389947Y-131135934D01*
X165413608Y-131132424D01*
X165437500Y-131131250D01*
X166350000Y-131131250D01*
X166373892Y-131132424D01*
G37*
G36*
X-94332358Y-171544924D02*
G01*
X-94308697Y-171548434D01*
X-94285493Y-171554246D01*
X-94262971Y-171562304D01*
X-94241347Y-171572532D01*
X-94220830Y-171584829D01*
X-94201617Y-171599079D01*
X-94183893Y-171615143D01*
X-94167829Y-171632867D01*
X-94153579Y-171652080D01*
X-94141282Y-171672597D01*
X-94131054Y-171694221D01*
X-94122996Y-171716743D01*
X-94117184Y-171739947D01*
X-94113674Y-171763608D01*
X-94112500Y-171787500D01*
X-94112500Y-172700000D01*
X-94113674Y-172723892D01*
X-94117184Y-172747553D01*
X-94122996Y-172770757D01*
X-94131054Y-172793279D01*
X-94141282Y-172814903D01*
X-94153579Y-172835420D01*
X-94167829Y-172854633D01*
X-94183893Y-172872357D01*
X-94201617Y-172888421D01*
X-94220830Y-172902671D01*
X-94241347Y-172914968D01*
X-94262971Y-172925196D01*
X-94285493Y-172933254D01*
X-94308697Y-172939066D01*
X-94332358Y-172942576D01*
X-94356250Y-172943750D01*
X-94843750Y-172943750D01*
X-94867642Y-172942576D01*
X-94891303Y-172939066D01*
X-94914507Y-172933254D01*
X-94937029Y-172925196D01*
X-94958653Y-172914968D01*
X-94979170Y-172902671D01*
X-94998383Y-172888421D01*
X-95016107Y-172872357D01*
X-95032171Y-172854633D01*
X-95046421Y-172835420D01*
X-95058718Y-172814903D01*
X-95068946Y-172793279D01*
X-95077004Y-172770757D01*
X-95082816Y-172747553D01*
X-95086326Y-172723892D01*
X-95087500Y-172700000D01*
X-95087500Y-171787500D01*
X-95086326Y-171763608D01*
X-95082816Y-171739947D01*
X-95077004Y-171716743D01*
X-95068946Y-171694221D01*
X-95058718Y-171672597D01*
X-95046421Y-171652080D01*
X-95032171Y-171632867D01*
X-95016107Y-171615143D01*
X-94998383Y-171599079D01*
X-94979170Y-171584829D01*
X-94958653Y-171572532D01*
X-94937029Y-171562304D01*
X-94914507Y-171554246D01*
X-94891303Y-171548434D01*
X-94867642Y-171544924D01*
X-94843750Y-171543750D01*
X-94356250Y-171543750D01*
X-94332358Y-171544924D01*
G37*
G36*
X-92457358Y-171544924D02*
G01*
X-92433697Y-171548434D01*
X-92410493Y-171554246D01*
X-92387971Y-171562304D01*
X-92366347Y-171572532D01*
X-92345830Y-171584829D01*
X-92326617Y-171599079D01*
X-92308893Y-171615143D01*
X-92292829Y-171632867D01*
X-92278579Y-171652080D01*
X-92266282Y-171672597D01*
X-92256054Y-171694221D01*
X-92247996Y-171716743D01*
X-92242184Y-171739947D01*
X-92238674Y-171763608D01*
X-92237500Y-171787500D01*
X-92237500Y-172700000D01*
X-92238674Y-172723892D01*
X-92242184Y-172747553D01*
X-92247996Y-172770757D01*
X-92256054Y-172793279D01*
X-92266282Y-172814903D01*
X-92278579Y-172835420D01*
X-92292829Y-172854633D01*
X-92308893Y-172872357D01*
X-92326617Y-172888421D01*
X-92345830Y-172902671D01*
X-92366347Y-172914968D01*
X-92387971Y-172925196D01*
X-92410493Y-172933254D01*
X-92433697Y-172939066D01*
X-92457358Y-172942576D01*
X-92481250Y-172943750D01*
X-92968750Y-172943750D01*
X-92992642Y-172942576D01*
X-93016303Y-172939066D01*
X-93039507Y-172933254D01*
X-93062029Y-172925196D01*
X-93083653Y-172914968D01*
X-93104170Y-172902671D01*
X-93123383Y-172888421D01*
X-93141107Y-172872357D01*
X-93157171Y-172854633D01*
X-93171421Y-172835420D01*
X-93183718Y-172814903D01*
X-93193946Y-172793279D01*
X-93202004Y-172770757D01*
X-93207816Y-172747553D01*
X-93211326Y-172723892D01*
X-93212500Y-172700000D01*
X-93212500Y-171787500D01*
X-93211326Y-171763608D01*
X-93207816Y-171739947D01*
X-93202004Y-171716743D01*
X-93193946Y-171694221D01*
X-93183718Y-171672597D01*
X-93171421Y-171652080D01*
X-93157171Y-171632867D01*
X-93141107Y-171615143D01*
X-93123383Y-171599079D01*
X-93104170Y-171584829D01*
X-93083653Y-171572532D01*
X-93062029Y-171562304D01*
X-93039507Y-171554246D01*
X-93016303Y-171548434D01*
X-92992642Y-171544924D01*
X-92968750Y-171543750D01*
X-92481250Y-171543750D01*
X-92457358Y-171544924D01*
G37*
G36*
X-96713608Y-128682424D02*
G01*
X-96689947Y-128685934D01*
X-96666743Y-128691746D01*
X-96644221Y-128699804D01*
X-96622597Y-128710032D01*
X-96602080Y-128722329D01*
X-96582867Y-128736579D01*
X-96565143Y-128752643D01*
X-96549079Y-128770367D01*
X-96534829Y-128789580D01*
X-96522532Y-128810097D01*
X-96512304Y-128831721D01*
X-96504246Y-128854243D01*
X-96498434Y-128877447D01*
X-96494924Y-128901108D01*
X-96493750Y-128925000D01*
X-96493750Y-129837500D01*
X-96494924Y-129861392D01*
X-96498434Y-129885053D01*
X-96504246Y-129908257D01*
X-96512304Y-129930779D01*
X-96522532Y-129952403D01*
X-96534829Y-129972920D01*
X-96549079Y-129992133D01*
X-96565143Y-130009857D01*
X-96582867Y-130025921D01*
X-96602080Y-130040171D01*
X-96622597Y-130052468D01*
X-96644221Y-130062696D01*
X-96666743Y-130070754D01*
X-96689947Y-130076566D01*
X-96713608Y-130080076D01*
X-96737500Y-130081250D01*
X-97225000Y-130081250D01*
X-97248892Y-130080076D01*
X-97272553Y-130076566D01*
X-97295757Y-130070754D01*
X-97318279Y-130062696D01*
X-97339903Y-130052468D01*
X-97360420Y-130040171D01*
X-97379633Y-130025921D01*
X-97397357Y-130009857D01*
X-97413421Y-129992133D01*
X-97427671Y-129972920D01*
X-97439968Y-129952403D01*
X-97450196Y-129930779D01*
X-97458254Y-129908257D01*
X-97464066Y-129885053D01*
X-97467576Y-129861392D01*
X-97468750Y-129837500D01*
X-97468750Y-128925000D01*
X-97467576Y-128901108D01*
X-97464066Y-128877447D01*
X-97458254Y-128854243D01*
X-97450196Y-128831721D01*
X-97439968Y-128810097D01*
X-97427671Y-128789580D01*
X-97413421Y-128770367D01*
X-97397357Y-128752643D01*
X-97379633Y-128736579D01*
X-97360420Y-128722329D01*
X-97339903Y-128710032D01*
X-97318279Y-128699804D01*
X-97295757Y-128691746D01*
X-97272553Y-128685934D01*
X-97248892Y-128682424D01*
X-97225000Y-128681250D01*
X-96737500Y-128681250D01*
X-96713608Y-128682424D01*
G37*
G36*
X-94838608Y-128682424D02*
G01*
X-94814947Y-128685934D01*
X-94791743Y-128691746D01*
X-94769221Y-128699804D01*
X-94747597Y-128710032D01*
X-94727080Y-128722329D01*
X-94707867Y-128736579D01*
X-94690143Y-128752643D01*
X-94674079Y-128770367D01*
X-94659829Y-128789580D01*
X-94647532Y-128810097D01*
X-94637304Y-128831721D01*
X-94629246Y-128854243D01*
X-94623434Y-128877447D01*
X-94619924Y-128901108D01*
X-94618750Y-128925000D01*
X-94618750Y-129837500D01*
X-94619924Y-129861392D01*
X-94623434Y-129885053D01*
X-94629246Y-129908257D01*
X-94637304Y-129930779D01*
X-94647532Y-129952403D01*
X-94659829Y-129972920D01*
X-94674079Y-129992133D01*
X-94690143Y-130009857D01*
X-94707867Y-130025921D01*
X-94727080Y-130040171D01*
X-94747597Y-130052468D01*
X-94769221Y-130062696D01*
X-94791743Y-130070754D01*
X-94814947Y-130076566D01*
X-94838608Y-130080076D01*
X-94862500Y-130081250D01*
X-95350000Y-130081250D01*
X-95373892Y-130080076D01*
X-95397553Y-130076566D01*
X-95420757Y-130070754D01*
X-95443279Y-130062696D01*
X-95464903Y-130052468D01*
X-95485420Y-130040171D01*
X-95504633Y-130025921D01*
X-95522357Y-130009857D01*
X-95538421Y-129992133D01*
X-95552671Y-129972920D01*
X-95564968Y-129952403D01*
X-95575196Y-129930779D01*
X-95583254Y-129908257D01*
X-95589066Y-129885053D01*
X-95592576Y-129861392D01*
X-95593750Y-129837500D01*
X-95593750Y-128925000D01*
X-95592576Y-128901108D01*
X-95589066Y-128877447D01*
X-95583254Y-128854243D01*
X-95575196Y-128831721D01*
X-95564968Y-128810097D01*
X-95552671Y-128789580D01*
X-95538421Y-128770367D01*
X-95522357Y-128752643D01*
X-95504633Y-128736579D01*
X-95485420Y-128722329D01*
X-95464903Y-128710032D01*
X-95443279Y-128699804D01*
X-95420757Y-128691746D01*
X-95397553Y-128685934D01*
X-95373892Y-128682424D01*
X-95350000Y-128681250D01*
X-94862500Y-128681250D01*
X-94838608Y-128682424D01*
G37*
G36*
X-92388608Y-128751174D02*
G01*
X-92364947Y-128754684D01*
X-92341743Y-128760496D01*
X-92319221Y-128768554D01*
X-92297597Y-128778782D01*
X-92277080Y-128791079D01*
X-92257867Y-128805329D01*
X-92240143Y-128821393D01*
X-92224079Y-128839117D01*
X-92209829Y-128858330D01*
X-92197532Y-128878847D01*
X-92187304Y-128900471D01*
X-92179246Y-128922993D01*
X-92173434Y-128946197D01*
X-92169924Y-128969858D01*
X-92168750Y-128993750D01*
X-92168750Y-129481250D01*
X-92169924Y-129505142D01*
X-92173434Y-129528803D01*
X-92179246Y-129552007D01*
X-92187304Y-129574529D01*
X-92197532Y-129596153D01*
X-92209829Y-129616670D01*
X-92224079Y-129635883D01*
X-92240143Y-129653607D01*
X-92257867Y-129669671D01*
X-92277080Y-129683921D01*
X-92297597Y-129696218D01*
X-92319221Y-129706446D01*
X-92341743Y-129714504D01*
X-92364947Y-129720316D01*
X-92388608Y-129723826D01*
X-92412500Y-129725000D01*
X-93325000Y-129725000D01*
X-93348892Y-129723826D01*
X-93372553Y-129720316D01*
X-93395757Y-129714504D01*
X-93418279Y-129706446D01*
X-93439903Y-129696218D01*
X-93460420Y-129683921D01*
X-93479633Y-129669671D01*
X-93497357Y-129653607D01*
X-93513421Y-129635883D01*
X-93527671Y-129616670D01*
X-93539968Y-129596153D01*
X-93550196Y-129574529D01*
X-93558254Y-129552007D01*
X-93564066Y-129528803D01*
X-93567576Y-129505142D01*
X-93568750Y-129481250D01*
X-93568750Y-128993750D01*
X-93567576Y-128969858D01*
X-93564066Y-128946197D01*
X-93558254Y-128922993D01*
X-93550196Y-128900471D01*
X-93539968Y-128878847D01*
X-93527671Y-128858330D01*
X-93513421Y-128839117D01*
X-93497357Y-128821393D01*
X-93479633Y-128805329D01*
X-93460420Y-128791079D01*
X-93439903Y-128778782D01*
X-93418279Y-128768554D01*
X-93395757Y-128760496D01*
X-93372553Y-128754684D01*
X-93348892Y-128751174D01*
X-93325000Y-128750000D01*
X-92412500Y-128750000D01*
X-92388608Y-128751174D01*
G37*
G36*
X-92388608Y-130626174D02*
G01*
X-92364947Y-130629684D01*
X-92341743Y-130635496D01*
X-92319221Y-130643554D01*
X-92297597Y-130653782D01*
X-92277080Y-130666079D01*
X-92257867Y-130680329D01*
X-92240143Y-130696393D01*
X-92224079Y-130714117D01*
X-92209829Y-130733330D01*
X-92197532Y-130753847D01*
X-92187304Y-130775471D01*
X-92179246Y-130797993D01*
X-92173434Y-130821197D01*
X-92169924Y-130844858D01*
X-92168750Y-130868750D01*
X-92168750Y-131356250D01*
X-92169924Y-131380142D01*
X-92173434Y-131403803D01*
X-92179246Y-131427007D01*
X-92187304Y-131449529D01*
X-92197532Y-131471153D01*
X-92209829Y-131491670D01*
X-92224079Y-131510883D01*
X-92240143Y-131528607D01*
X-92257867Y-131544671D01*
X-92277080Y-131558921D01*
X-92297597Y-131571218D01*
X-92319221Y-131581446D01*
X-92341743Y-131589504D01*
X-92364947Y-131595316D01*
X-92388608Y-131598826D01*
X-92412500Y-131600000D01*
X-93325000Y-131600000D01*
X-93348892Y-131598826D01*
X-93372553Y-131595316D01*
X-93395757Y-131589504D01*
X-93418279Y-131581446D01*
X-93439903Y-131571218D01*
X-93460420Y-131558921D01*
X-93479633Y-131544671D01*
X-93497357Y-131528607D01*
X-93513421Y-131510883D01*
X-93527671Y-131491670D01*
X-93539968Y-131471153D01*
X-93550196Y-131449529D01*
X-93558254Y-131427007D01*
X-93564066Y-131403803D01*
X-93567576Y-131380142D01*
X-93568750Y-131356250D01*
X-93568750Y-130868750D01*
X-93567576Y-130844858D01*
X-93564066Y-130821197D01*
X-93558254Y-130797993D01*
X-93550196Y-130775471D01*
X-93539968Y-130753847D01*
X-93527671Y-130733330D01*
X-93513421Y-130714117D01*
X-93497357Y-130696393D01*
X-93479633Y-130680329D01*
X-93460420Y-130666079D01*
X-93439903Y-130653782D01*
X-93418279Y-130643554D01*
X-93395757Y-130635496D01*
X-93372553Y-130629684D01*
X-93348892Y-130626174D01*
X-93325000Y-130625000D01*
X-92412500Y-130625000D01*
X-92388608Y-130626174D01*
G37*
G36*
X-83283455Y-162429536D02*
G01*
X-83259794Y-162433046D01*
X-83236590Y-162438858D01*
X-83214068Y-162446916D01*
X-83192444Y-162457144D01*
X-83171927Y-162469441D01*
X-83152714Y-162483691D01*
X-83134990Y-162499755D01*
X-82489755Y-163144990D01*
X-82473691Y-163162714D01*
X-82459441Y-163181927D01*
X-82447144Y-163202444D01*
X-82436916Y-163224068D01*
X-82428858Y-163246590D01*
X-82423046Y-163269794D01*
X-82419536Y-163293455D01*
X-82418362Y-163317347D01*
X-82419536Y-163341239D01*
X-82423046Y-163364900D01*
X-82428858Y-163388104D01*
X-82436916Y-163410626D01*
X-82447144Y-163432250D01*
X-82459441Y-163452767D01*
X-82473691Y-163471980D01*
X-82489755Y-163489704D01*
X-82834470Y-163834419D01*
X-82852194Y-163850483D01*
X-82871407Y-163864733D01*
X-82891924Y-163877030D01*
X-82913548Y-163887258D01*
X-82936070Y-163895316D01*
X-82959274Y-163901128D01*
X-82982935Y-163904638D01*
X-83006827Y-163905812D01*
X-83030719Y-163904638D01*
X-83054380Y-163901128D01*
X-83077584Y-163895316D01*
X-83100106Y-163887258D01*
X-83121730Y-163877030D01*
X-83142247Y-163864733D01*
X-83161460Y-163850483D01*
X-83179184Y-163834419D01*
X-83824419Y-163189184D01*
X-83840483Y-163171460D01*
X-83854733Y-163152247D01*
X-83867030Y-163131730D01*
X-83877258Y-163110106D01*
X-83885316Y-163087584D01*
X-83891128Y-163064380D01*
X-83894638Y-163040719D01*
X-83895812Y-163016827D01*
X-83894638Y-162992935D01*
X-83891128Y-162969274D01*
X-83885316Y-162946070D01*
X-83877258Y-162923548D01*
X-83867030Y-162901924D01*
X-83854733Y-162881407D01*
X-83840483Y-162862194D01*
X-83824419Y-162844470D01*
X-83479704Y-162499755D01*
X-83461980Y-162483691D01*
X-83442767Y-162469441D01*
X-83422250Y-162457144D01*
X-83400626Y-162446916D01*
X-83378104Y-162438858D01*
X-83354900Y-162433046D01*
X-83331239Y-162429536D01*
X-83307347Y-162428362D01*
X-83283455Y-162429536D01*
G37*
G36*
X-84609281Y-163755362D02*
G01*
X-84585620Y-163758872D01*
X-84562416Y-163764684D01*
X-84539894Y-163772742D01*
X-84518270Y-163782970D01*
X-84497753Y-163795267D01*
X-84478540Y-163809517D01*
X-84460816Y-163825581D01*
X-83815581Y-164470816D01*
X-83799517Y-164488540D01*
X-83785267Y-164507753D01*
X-83772970Y-164528270D01*
X-83762742Y-164549894D01*
X-83754684Y-164572416D01*
X-83748872Y-164595620D01*
X-83745362Y-164619281D01*
X-83744188Y-164643173D01*
X-83745362Y-164667065D01*
X-83748872Y-164690726D01*
X-83754684Y-164713930D01*
X-83762742Y-164736452D01*
X-83772970Y-164758076D01*
X-83785267Y-164778593D01*
X-83799517Y-164797806D01*
X-83815581Y-164815530D01*
X-84160296Y-165160245D01*
X-84178020Y-165176309D01*
X-84197233Y-165190559D01*
X-84217750Y-165202856D01*
X-84239374Y-165213084D01*
X-84261896Y-165221142D01*
X-84285100Y-165226954D01*
X-84308761Y-165230464D01*
X-84332653Y-165231638D01*
X-84356545Y-165230464D01*
X-84380206Y-165226954D01*
X-84403410Y-165221142D01*
X-84425932Y-165213084D01*
X-84447556Y-165202856D01*
X-84468073Y-165190559D01*
X-84487286Y-165176309D01*
X-84505010Y-165160245D01*
X-85150245Y-164515010D01*
X-85166309Y-164497286D01*
X-85180559Y-164478073D01*
X-85192856Y-164457556D01*
X-85203084Y-164435932D01*
X-85211142Y-164413410D01*
X-85216954Y-164390206D01*
X-85220464Y-164366545D01*
X-85221638Y-164342653D01*
X-85220464Y-164318761D01*
X-85216954Y-164295100D01*
X-85211142Y-164271896D01*
X-85203084Y-164249374D01*
X-85192856Y-164227750D01*
X-85180559Y-164207233D01*
X-85166309Y-164188020D01*
X-85150245Y-164170296D01*
X-84805530Y-163825581D01*
X-84787806Y-163809517D01*
X-84768593Y-163795267D01*
X-84748076Y-163782970D01*
X-84726452Y-163772742D01*
X-84703930Y-163764684D01*
X-84680726Y-163758872D01*
X-84657065Y-163755362D01*
X-84633173Y-163754188D01*
X-84609281Y-163755362D01*
G37*
G36*
X-101119858Y-155738674D02*
G01*
X-101096197Y-155742184D01*
X-101072993Y-155747996D01*
X-101050471Y-155756054D01*
X-101028847Y-155766282D01*
X-101008330Y-155778579D01*
X-100989117Y-155792829D01*
X-100971393Y-155808893D01*
X-100955329Y-155826617D01*
X-100941079Y-155845830D01*
X-100928782Y-155866347D01*
X-100918554Y-155887971D01*
X-100910496Y-155910493D01*
X-100904684Y-155933697D01*
X-100901174Y-155957358D01*
X-100900000Y-155981250D01*
X-100900000Y-156468750D01*
X-100901174Y-156492642D01*
X-100904684Y-156516303D01*
X-100910496Y-156539507D01*
X-100918554Y-156562029D01*
X-100928782Y-156583653D01*
X-100941079Y-156604170D01*
X-100955329Y-156623383D01*
X-100971393Y-156641107D01*
X-100989117Y-156657171D01*
X-101008330Y-156671421D01*
X-101028847Y-156683718D01*
X-101050471Y-156693946D01*
X-101072993Y-156702004D01*
X-101096197Y-156707816D01*
X-101119858Y-156711326D01*
X-101143750Y-156712500D01*
X-102056250Y-156712500D01*
X-102080142Y-156711326D01*
X-102103803Y-156707816D01*
X-102127007Y-156702004D01*
X-102149529Y-156693946D01*
X-102171153Y-156683718D01*
X-102191670Y-156671421D01*
X-102210883Y-156657171D01*
X-102228607Y-156641107D01*
X-102244671Y-156623383D01*
X-102258921Y-156604170D01*
X-102271218Y-156583653D01*
X-102281446Y-156562029D01*
X-102289504Y-156539507D01*
X-102295316Y-156516303D01*
X-102298826Y-156492642D01*
X-102300000Y-156468750D01*
X-102300000Y-155981250D01*
X-102298826Y-155957358D01*
X-102295316Y-155933697D01*
X-102289504Y-155910493D01*
X-102281446Y-155887971D01*
X-102271218Y-155866347D01*
X-102258921Y-155845830D01*
X-102244671Y-155826617D01*
X-102228607Y-155808893D01*
X-102210883Y-155792829D01*
X-102191670Y-155778579D01*
X-102171153Y-155766282D01*
X-102149529Y-155756054D01*
X-102127007Y-155747996D01*
X-102103803Y-155742184D01*
X-102080142Y-155738674D01*
X-102056250Y-155737500D01*
X-101143750Y-155737500D01*
X-101119858Y-155738674D01*
G37*
G36*
X-101119858Y-157613674D02*
G01*
X-101096197Y-157617184D01*
X-101072993Y-157622996D01*
X-101050471Y-157631054D01*
X-101028847Y-157641282D01*
X-101008330Y-157653579D01*
X-100989117Y-157667829D01*
X-100971393Y-157683893D01*
X-100955329Y-157701617D01*
X-100941079Y-157720830D01*
X-100928782Y-157741347D01*
X-100918554Y-157762971D01*
X-100910496Y-157785493D01*
X-100904684Y-157808697D01*
X-100901174Y-157832358D01*
X-100900000Y-157856250D01*
X-100900000Y-158343750D01*
X-100901174Y-158367642D01*
X-100904684Y-158391303D01*
X-100910496Y-158414507D01*
X-100918554Y-158437029D01*
X-100928782Y-158458653D01*
X-100941079Y-158479170D01*
X-100955329Y-158498383D01*
X-100971393Y-158516107D01*
X-100989117Y-158532171D01*
X-101008330Y-158546421D01*
X-101028847Y-158558718D01*
X-101050471Y-158568946D01*
X-101072993Y-158577004D01*
X-101096197Y-158582816D01*
X-101119858Y-158586326D01*
X-101143750Y-158587500D01*
X-102056250Y-158587500D01*
X-102080142Y-158586326D01*
X-102103803Y-158582816D01*
X-102127007Y-158577004D01*
X-102149529Y-158568946D01*
X-102171153Y-158558718D01*
X-102191670Y-158546421D01*
X-102210883Y-158532171D01*
X-102228607Y-158516107D01*
X-102244671Y-158498383D01*
X-102258921Y-158479170D01*
X-102271218Y-158458653D01*
X-102281446Y-158437029D01*
X-102289504Y-158414507D01*
X-102295316Y-158391303D01*
X-102298826Y-158367642D01*
X-102300000Y-158343750D01*
X-102300000Y-157856250D01*
X-102298826Y-157832358D01*
X-102295316Y-157808697D01*
X-102289504Y-157785493D01*
X-102281446Y-157762971D01*
X-102271218Y-157741347D01*
X-102258921Y-157720830D01*
X-102244671Y-157701617D01*
X-102228607Y-157683893D01*
X-102210883Y-157667829D01*
X-102191670Y-157653579D01*
X-102171153Y-157641282D01*
X-102149529Y-157631054D01*
X-102127007Y-157622996D01*
X-102103803Y-157617184D01*
X-102080142Y-157613674D01*
X-102056250Y-157612500D01*
X-101143750Y-157612500D01*
X-101119858Y-157613674D01*
G37*
G36*
X-89569858Y-137413674D02*
G01*
X-89546197Y-137417184D01*
X-89522993Y-137422996D01*
X-89500471Y-137431054D01*
X-89478847Y-137441282D01*
X-89458330Y-137453579D01*
X-89439117Y-137467829D01*
X-89421393Y-137483893D01*
X-89405329Y-137501617D01*
X-89391079Y-137520830D01*
X-89378782Y-137541347D01*
X-89368554Y-137562971D01*
X-89360496Y-137585493D01*
X-89354684Y-137608697D01*
X-89351174Y-137632358D01*
X-89350000Y-137656250D01*
X-89350000Y-138568750D01*
X-89351174Y-138592642D01*
X-89354684Y-138616303D01*
X-89360496Y-138639507D01*
X-89368554Y-138662029D01*
X-89378782Y-138683653D01*
X-89391079Y-138704170D01*
X-89405329Y-138723383D01*
X-89421393Y-138741107D01*
X-89439117Y-138757171D01*
X-89458330Y-138771421D01*
X-89478847Y-138783718D01*
X-89500471Y-138793946D01*
X-89522993Y-138802004D01*
X-89546197Y-138807816D01*
X-89569858Y-138811326D01*
X-89593750Y-138812500D01*
X-90081250Y-138812500D01*
X-90105142Y-138811326D01*
X-90128803Y-138807816D01*
X-90152007Y-138802004D01*
X-90174529Y-138793946D01*
X-90196153Y-138783718D01*
X-90216670Y-138771421D01*
X-90235883Y-138757171D01*
X-90253607Y-138741107D01*
X-90269671Y-138723383D01*
X-90283921Y-138704170D01*
X-90296218Y-138683653D01*
X-90306446Y-138662029D01*
X-90314504Y-138639507D01*
X-90320316Y-138616303D01*
X-90323826Y-138592642D01*
X-90325000Y-138568750D01*
X-90325000Y-137656250D01*
X-90323826Y-137632358D01*
X-90320316Y-137608697D01*
X-90314504Y-137585493D01*
X-90306446Y-137562971D01*
X-90296218Y-137541347D01*
X-90283921Y-137520830D01*
X-90269671Y-137501617D01*
X-90253607Y-137483893D01*
X-90235883Y-137467829D01*
X-90216670Y-137453579D01*
X-90196153Y-137441282D01*
X-90174529Y-137431054D01*
X-90152007Y-137422996D01*
X-90128803Y-137417184D01*
X-90105142Y-137413674D01*
X-90081250Y-137412500D01*
X-89593750Y-137412500D01*
X-89569858Y-137413674D01*
G37*
G36*
X-87694858Y-137413674D02*
G01*
X-87671197Y-137417184D01*
X-87647993Y-137422996D01*
X-87625471Y-137431054D01*
X-87603847Y-137441282D01*
X-87583330Y-137453579D01*
X-87564117Y-137467829D01*
X-87546393Y-137483893D01*
X-87530329Y-137501617D01*
X-87516079Y-137520830D01*
X-87503782Y-137541347D01*
X-87493554Y-137562971D01*
X-87485496Y-137585493D01*
X-87479684Y-137608697D01*
X-87476174Y-137632358D01*
X-87475000Y-137656250D01*
X-87475000Y-138568750D01*
X-87476174Y-138592642D01*
X-87479684Y-138616303D01*
X-87485496Y-138639507D01*
X-87493554Y-138662029D01*
X-87503782Y-138683653D01*
X-87516079Y-138704170D01*
X-87530329Y-138723383D01*
X-87546393Y-138741107D01*
X-87564117Y-138757171D01*
X-87583330Y-138771421D01*
X-87603847Y-138783718D01*
X-87625471Y-138793946D01*
X-87647993Y-138802004D01*
X-87671197Y-138807816D01*
X-87694858Y-138811326D01*
X-87718750Y-138812500D01*
X-88206250Y-138812500D01*
X-88230142Y-138811326D01*
X-88253803Y-138807816D01*
X-88277007Y-138802004D01*
X-88299529Y-138793946D01*
X-88321153Y-138783718D01*
X-88341670Y-138771421D01*
X-88360883Y-138757171D01*
X-88378607Y-138741107D01*
X-88394671Y-138723383D01*
X-88408921Y-138704170D01*
X-88421218Y-138683653D01*
X-88431446Y-138662029D01*
X-88439504Y-138639507D01*
X-88445316Y-138616303D01*
X-88448826Y-138592642D01*
X-88450000Y-138568750D01*
X-88450000Y-137656250D01*
X-88448826Y-137632358D01*
X-88445316Y-137608697D01*
X-88439504Y-137585493D01*
X-88431446Y-137562971D01*
X-88421218Y-137541347D01*
X-88408921Y-137520830D01*
X-88394671Y-137501617D01*
X-88378607Y-137483893D01*
X-88360883Y-137467829D01*
X-88341670Y-137453579D01*
X-88321153Y-137441282D01*
X-88299529Y-137431054D01*
X-88277007Y-137422996D01*
X-88253803Y-137417184D01*
X-88230142Y-137413674D01*
X-88206250Y-137412500D01*
X-87718750Y-137412500D01*
X-87694858Y-137413674D01*
G37*
G36*
X-87694858Y-145351174D02*
G01*
X-87671197Y-145354684D01*
X-87647993Y-145360496D01*
X-87625471Y-145368554D01*
X-87603847Y-145378782D01*
X-87583330Y-145391079D01*
X-87564117Y-145405329D01*
X-87546393Y-145421393D01*
X-87530329Y-145439117D01*
X-87516079Y-145458330D01*
X-87503782Y-145478847D01*
X-87493554Y-145500471D01*
X-87485496Y-145522993D01*
X-87479684Y-145546197D01*
X-87476174Y-145569858D01*
X-87475000Y-145593750D01*
X-87475000Y-146506250D01*
X-87476174Y-146530142D01*
X-87479684Y-146553803D01*
X-87485496Y-146577007D01*
X-87493554Y-146599529D01*
X-87503782Y-146621153D01*
X-87516079Y-146641670D01*
X-87530329Y-146660883D01*
X-87546393Y-146678607D01*
X-87564117Y-146694671D01*
X-87583330Y-146708921D01*
X-87603847Y-146721218D01*
X-87625471Y-146731446D01*
X-87647993Y-146739504D01*
X-87671197Y-146745316D01*
X-87694858Y-146748826D01*
X-87718750Y-146750000D01*
X-88206250Y-146750000D01*
X-88230142Y-146748826D01*
X-88253803Y-146745316D01*
X-88277007Y-146739504D01*
X-88299529Y-146731446D01*
X-88321153Y-146721218D01*
X-88341670Y-146708921D01*
X-88360883Y-146694671D01*
X-88378607Y-146678607D01*
X-88394671Y-146660883D01*
X-88408921Y-146641670D01*
X-88421218Y-146621153D01*
X-88431446Y-146599529D01*
X-88439504Y-146577007D01*
X-88445316Y-146553803D01*
X-88448826Y-146530142D01*
X-88450000Y-146506250D01*
X-88450000Y-145593750D01*
X-88448826Y-145569858D01*
X-88445316Y-145546197D01*
X-88439504Y-145522993D01*
X-88431446Y-145500471D01*
X-88421218Y-145478847D01*
X-88408921Y-145458330D01*
X-88394671Y-145439117D01*
X-88378607Y-145421393D01*
X-88360883Y-145405329D01*
X-88341670Y-145391079D01*
X-88321153Y-145378782D01*
X-88299529Y-145368554D01*
X-88277007Y-145360496D01*
X-88253803Y-145354684D01*
X-88230142Y-145351174D01*
X-88206250Y-145350000D01*
X-87718750Y-145350000D01*
X-87694858Y-145351174D01*
G37*
G36*
X-89569858Y-145351174D02*
G01*
X-89546197Y-145354684D01*
X-89522993Y-145360496D01*
X-89500471Y-145368554D01*
X-89478847Y-145378782D01*
X-89458330Y-145391079D01*
X-89439117Y-145405329D01*
X-89421393Y-145421393D01*
X-89405329Y-145439117D01*
X-89391079Y-145458330D01*
X-89378782Y-145478847D01*
X-89368554Y-145500471D01*
X-89360496Y-145522993D01*
X-89354684Y-145546197D01*
X-89351174Y-145569858D01*
X-89350000Y-145593750D01*
X-89350000Y-146506250D01*
X-89351174Y-146530142D01*
X-89354684Y-146553803D01*
X-89360496Y-146577007D01*
X-89368554Y-146599529D01*
X-89378782Y-146621153D01*
X-89391079Y-146641670D01*
X-89405329Y-146660883D01*
X-89421393Y-146678607D01*
X-89439117Y-146694671D01*
X-89458330Y-146708921D01*
X-89478847Y-146721218D01*
X-89500471Y-146731446D01*
X-89522993Y-146739504D01*
X-89546197Y-146745316D01*
X-89569858Y-146748826D01*
X-89593750Y-146750000D01*
X-90081250Y-146750000D01*
X-90105142Y-146748826D01*
X-90128803Y-146745316D01*
X-90152007Y-146739504D01*
X-90174529Y-146731446D01*
X-90196153Y-146721218D01*
X-90216670Y-146708921D01*
X-90235883Y-146694671D01*
X-90253607Y-146678607D01*
X-90269671Y-146660883D01*
X-90283921Y-146641670D01*
X-90296218Y-146621153D01*
X-90306446Y-146599529D01*
X-90314504Y-146577007D01*
X-90320316Y-146553803D01*
X-90323826Y-146530142D01*
X-90325000Y-146506250D01*
X-90325000Y-145593750D01*
X-90323826Y-145569858D01*
X-90320316Y-145546197D01*
X-90314504Y-145522993D01*
X-90306446Y-145500471D01*
X-90296218Y-145478847D01*
X-90283921Y-145458330D01*
X-90269671Y-145439117D01*
X-90253607Y-145421393D01*
X-90235883Y-145405329D01*
X-90216670Y-145391079D01*
X-90196153Y-145378782D01*
X-90174529Y-145368554D01*
X-90152007Y-145360496D01*
X-90128803Y-145354684D01*
X-90105142Y-145351174D01*
X-90081250Y-145350000D01*
X-89593750Y-145350000D01*
X-89569858Y-145351174D01*
G37*
G36*
X-102776108Y-128682424D02*
G01*
X-102752447Y-128685934D01*
X-102729243Y-128691746D01*
X-102706721Y-128699804D01*
X-102685097Y-128710032D01*
X-102664580Y-128722329D01*
X-102645367Y-128736579D01*
X-102627643Y-128752643D01*
X-102611579Y-128770367D01*
X-102597329Y-128789580D01*
X-102585032Y-128810097D01*
X-102574804Y-128831721D01*
X-102566746Y-128854243D01*
X-102560934Y-128877447D01*
X-102557424Y-128901108D01*
X-102556250Y-128925000D01*
X-102556250Y-129837500D01*
X-102557424Y-129861392D01*
X-102560934Y-129885053D01*
X-102566746Y-129908257D01*
X-102574804Y-129930779D01*
X-102585032Y-129952403D01*
X-102597329Y-129972920D01*
X-102611579Y-129992133D01*
X-102627643Y-130009857D01*
X-102645367Y-130025921D01*
X-102664580Y-130040171D01*
X-102685097Y-130052468D01*
X-102706721Y-130062696D01*
X-102729243Y-130070754D01*
X-102752447Y-130076566D01*
X-102776108Y-130080076D01*
X-102800000Y-130081250D01*
X-103287500Y-130081250D01*
X-103311392Y-130080076D01*
X-103335053Y-130076566D01*
X-103358257Y-130070754D01*
X-103380779Y-130062696D01*
X-103402403Y-130052468D01*
X-103422920Y-130040171D01*
X-103442133Y-130025921D01*
X-103459857Y-130009857D01*
X-103475921Y-129992133D01*
X-103490171Y-129972920D01*
X-103502468Y-129952403D01*
X-103512696Y-129930779D01*
X-103520754Y-129908257D01*
X-103526566Y-129885053D01*
X-103530076Y-129861392D01*
X-103531250Y-129837500D01*
X-103531250Y-128925000D01*
X-103530076Y-128901108D01*
X-103526566Y-128877447D01*
X-103520754Y-128854243D01*
X-103512696Y-128831721D01*
X-103502468Y-128810097D01*
X-103490171Y-128789580D01*
X-103475921Y-128770367D01*
X-103459857Y-128752643D01*
X-103442133Y-128736579D01*
X-103422920Y-128722329D01*
X-103402403Y-128710032D01*
X-103380779Y-128699804D01*
X-103358257Y-128691746D01*
X-103335053Y-128685934D01*
X-103311392Y-128682424D01*
X-103287500Y-128681250D01*
X-102800000Y-128681250D01*
X-102776108Y-128682424D01*
G37*
G36*
X-104651108Y-128682424D02*
G01*
X-104627447Y-128685934D01*
X-104604243Y-128691746D01*
X-104581721Y-128699804D01*
X-104560097Y-128710032D01*
X-104539580Y-128722329D01*
X-104520367Y-128736579D01*
X-104502643Y-128752643D01*
X-104486579Y-128770367D01*
X-104472329Y-128789580D01*
X-104460032Y-128810097D01*
X-104449804Y-128831721D01*
X-104441746Y-128854243D01*
X-104435934Y-128877447D01*
X-104432424Y-128901108D01*
X-104431250Y-128925000D01*
X-104431250Y-129837500D01*
X-104432424Y-129861392D01*
X-104435934Y-129885053D01*
X-104441746Y-129908257D01*
X-104449804Y-129930779D01*
X-104460032Y-129952403D01*
X-104472329Y-129972920D01*
X-104486579Y-129992133D01*
X-104502643Y-130009857D01*
X-104520367Y-130025921D01*
X-104539580Y-130040171D01*
X-104560097Y-130052468D01*
X-104581721Y-130062696D01*
X-104604243Y-130070754D01*
X-104627447Y-130076566D01*
X-104651108Y-130080076D01*
X-104675000Y-130081250D01*
X-105162500Y-130081250D01*
X-105186392Y-130080076D01*
X-105210053Y-130076566D01*
X-105233257Y-130070754D01*
X-105255779Y-130062696D01*
X-105277403Y-130052468D01*
X-105297920Y-130040171D01*
X-105317133Y-130025921D01*
X-105334857Y-130009857D01*
X-105350921Y-129992133D01*
X-105365171Y-129972920D01*
X-105377468Y-129952403D01*
X-105387696Y-129930779D01*
X-105395754Y-129908257D01*
X-105401566Y-129885053D01*
X-105405076Y-129861392D01*
X-105406250Y-129837500D01*
X-105406250Y-128925000D01*
X-105405076Y-128901108D01*
X-105401566Y-128877447D01*
X-105395754Y-128854243D01*
X-105387696Y-128831721D01*
X-105377468Y-128810097D01*
X-105365171Y-128789580D01*
X-105350921Y-128770367D01*
X-105334857Y-128752643D01*
X-105317133Y-128736579D01*
X-105297920Y-128722329D01*
X-105277403Y-128710032D01*
X-105255779Y-128699804D01*
X-105233257Y-128691746D01*
X-105210053Y-128685934D01*
X-105186392Y-128682424D01*
X-105162500Y-128681250D01*
X-104675000Y-128681250D01*
X-104651108Y-128682424D01*
G37*
G36*
X170342642Y-192251174D02*
G01*
X170366303Y-192254684D01*
X170389507Y-192260496D01*
X170412029Y-192268554D01*
X170433653Y-192278782D01*
X170454170Y-192291079D01*
X170473383Y-192305329D01*
X170491107Y-192321393D01*
X170507171Y-192339117D01*
X170521421Y-192358330D01*
X170533718Y-192378847D01*
X170543946Y-192400471D01*
X170552004Y-192422993D01*
X170557816Y-192446197D01*
X170561326Y-192469858D01*
X170562500Y-192493750D01*
X170562500Y-192981250D01*
X170561326Y-193005142D01*
X170557816Y-193028803D01*
X170552004Y-193052007D01*
X170543946Y-193074529D01*
X170533718Y-193096153D01*
X170521421Y-193116670D01*
X170507171Y-193135883D01*
X170491107Y-193153607D01*
X170473383Y-193169671D01*
X170454170Y-193183921D01*
X170433653Y-193196218D01*
X170412029Y-193206446D01*
X170389507Y-193214504D01*
X170366303Y-193220316D01*
X170342642Y-193223826D01*
X170318750Y-193225000D01*
X169406250Y-193225000D01*
X169382358Y-193223826D01*
X169358697Y-193220316D01*
X169335493Y-193214504D01*
X169312971Y-193206446D01*
X169291347Y-193196218D01*
X169270830Y-193183921D01*
X169251617Y-193169671D01*
X169233893Y-193153607D01*
X169217829Y-193135883D01*
X169203579Y-193116670D01*
X169191282Y-193096153D01*
X169181054Y-193074529D01*
X169172996Y-193052007D01*
X169167184Y-193028803D01*
X169163674Y-193005142D01*
X169162500Y-192981250D01*
X169162500Y-192493750D01*
X169163674Y-192469858D01*
X169167184Y-192446197D01*
X169172996Y-192422993D01*
X169181054Y-192400471D01*
X169191282Y-192378847D01*
X169203579Y-192358330D01*
X169217829Y-192339117D01*
X169233893Y-192321393D01*
X169251617Y-192305329D01*
X169270830Y-192291079D01*
X169291347Y-192278782D01*
X169312971Y-192268554D01*
X169335493Y-192260496D01*
X169358697Y-192254684D01*
X169382358Y-192251174D01*
X169406250Y-192250000D01*
X170318750Y-192250000D01*
X170342642Y-192251174D01*
G37*
G36*
X170342642Y-194126174D02*
G01*
X170366303Y-194129684D01*
X170389507Y-194135496D01*
X170412029Y-194143554D01*
X170433653Y-194153782D01*
X170454170Y-194166079D01*
X170473383Y-194180329D01*
X170491107Y-194196393D01*
X170507171Y-194214117D01*
X170521421Y-194233330D01*
X170533718Y-194253847D01*
X170543946Y-194275471D01*
X170552004Y-194297993D01*
X170557816Y-194321197D01*
X170561326Y-194344858D01*
X170562500Y-194368750D01*
X170562500Y-194856250D01*
X170561326Y-194880142D01*
X170557816Y-194903803D01*
X170552004Y-194927007D01*
X170543946Y-194949529D01*
X170533718Y-194971153D01*
X170521421Y-194991670D01*
X170507171Y-195010883D01*
X170491107Y-195028607D01*
X170473383Y-195044671D01*
X170454170Y-195058921D01*
X170433653Y-195071218D01*
X170412029Y-195081446D01*
X170389507Y-195089504D01*
X170366303Y-195095316D01*
X170342642Y-195098826D01*
X170318750Y-195100000D01*
X169406250Y-195100000D01*
X169382358Y-195098826D01*
X169358697Y-195095316D01*
X169335493Y-195089504D01*
X169312971Y-195081446D01*
X169291347Y-195071218D01*
X169270830Y-195058921D01*
X169251617Y-195044671D01*
X169233893Y-195028607D01*
X169217829Y-195010883D01*
X169203579Y-194991670D01*
X169191282Y-194971153D01*
X169181054Y-194949529D01*
X169172996Y-194927007D01*
X169167184Y-194903803D01*
X169163674Y-194880142D01*
X169162500Y-194856250D01*
X169162500Y-194368750D01*
X169163674Y-194344858D01*
X169167184Y-194321197D01*
X169172996Y-194297993D01*
X169181054Y-194275471D01*
X169191282Y-194253847D01*
X169203579Y-194233330D01*
X169217829Y-194214117D01*
X169233893Y-194196393D01*
X169251617Y-194180329D01*
X169270830Y-194166079D01*
X169291347Y-194153782D01*
X169312971Y-194143554D01*
X169335493Y-194135496D01*
X169358697Y-194129684D01*
X169382358Y-194126174D01*
X169406250Y-194125000D01*
X170318750Y-194125000D01*
X170342642Y-194126174D01*
G37*
G36*
X172723892Y-193476174D02*
G01*
X172747553Y-193479684D01*
X172770757Y-193485496D01*
X172793279Y-193493554D01*
X172814903Y-193503782D01*
X172835420Y-193516079D01*
X172854633Y-193530329D01*
X172872357Y-193546393D01*
X172888421Y-193564117D01*
X172902671Y-193583330D01*
X172914968Y-193603847D01*
X172925196Y-193625471D01*
X172933254Y-193647993D01*
X172939066Y-193671197D01*
X172942576Y-193694858D01*
X172943750Y-193718750D01*
X172943750Y-194206250D01*
X172942576Y-194230142D01*
X172939066Y-194253803D01*
X172933254Y-194277007D01*
X172925196Y-194299529D01*
X172914968Y-194321153D01*
X172902671Y-194341670D01*
X172888421Y-194360883D01*
X172872357Y-194378607D01*
X172854633Y-194394671D01*
X172835420Y-194408921D01*
X172814903Y-194421218D01*
X172793279Y-194431446D01*
X172770757Y-194439504D01*
X172747553Y-194445316D01*
X172723892Y-194448826D01*
X172700000Y-194450000D01*
X171787500Y-194450000D01*
X171763608Y-194448826D01*
X171739947Y-194445316D01*
X171716743Y-194439504D01*
X171694221Y-194431446D01*
X171672597Y-194421218D01*
X171652080Y-194408921D01*
X171632867Y-194394671D01*
X171615143Y-194378607D01*
X171599079Y-194360883D01*
X171584829Y-194341670D01*
X171572532Y-194321153D01*
X171562304Y-194299529D01*
X171554246Y-194277007D01*
X171548434Y-194253803D01*
X171544924Y-194230142D01*
X171543750Y-194206250D01*
X171543750Y-193718750D01*
X171544924Y-193694858D01*
X171548434Y-193671197D01*
X171554246Y-193647993D01*
X171562304Y-193625471D01*
X171572532Y-193603847D01*
X171584829Y-193583330D01*
X171599079Y-193564117D01*
X171615143Y-193546393D01*
X171632867Y-193530329D01*
X171652080Y-193516079D01*
X171672597Y-193503782D01*
X171694221Y-193493554D01*
X171716743Y-193485496D01*
X171739947Y-193479684D01*
X171763608Y-193476174D01*
X171787500Y-193475000D01*
X172700000Y-193475000D01*
X172723892Y-193476174D01*
G37*
G36*
X172723892Y-191601174D02*
G01*
X172747553Y-191604684D01*
X172770757Y-191610496D01*
X172793279Y-191618554D01*
X172814903Y-191628782D01*
X172835420Y-191641079D01*
X172854633Y-191655329D01*
X172872357Y-191671393D01*
X172888421Y-191689117D01*
X172902671Y-191708330D01*
X172914968Y-191728847D01*
X172925196Y-191750471D01*
X172933254Y-191772993D01*
X172939066Y-191796197D01*
X172942576Y-191819858D01*
X172943750Y-191843750D01*
X172943750Y-192331250D01*
X172942576Y-192355142D01*
X172939066Y-192378803D01*
X172933254Y-192402007D01*
X172925196Y-192424529D01*
X172914968Y-192446153D01*
X172902671Y-192466670D01*
X172888421Y-192485883D01*
X172872357Y-192503607D01*
X172854633Y-192519671D01*
X172835420Y-192533921D01*
X172814903Y-192546218D01*
X172793279Y-192556446D01*
X172770757Y-192564504D01*
X172747553Y-192570316D01*
X172723892Y-192573826D01*
X172700000Y-192575000D01*
X171787500Y-192575000D01*
X171763608Y-192573826D01*
X171739947Y-192570316D01*
X171716743Y-192564504D01*
X171694221Y-192556446D01*
X171672597Y-192546218D01*
X171652080Y-192533921D01*
X171632867Y-192519671D01*
X171615143Y-192503607D01*
X171599079Y-192485883D01*
X171584829Y-192466670D01*
X171572532Y-192446153D01*
X171562304Y-192424529D01*
X171554246Y-192402007D01*
X171548434Y-192378803D01*
X171544924Y-192355142D01*
X171543750Y-192331250D01*
X171543750Y-191843750D01*
X171544924Y-191819858D01*
X171548434Y-191796197D01*
X171554246Y-191772993D01*
X171562304Y-191750471D01*
X171572532Y-191728847D01*
X171584829Y-191708330D01*
X171599079Y-191689117D01*
X171615143Y-191671393D01*
X171632867Y-191655329D01*
X171652080Y-191641079D01*
X171672597Y-191628782D01*
X171694221Y-191618554D01*
X171716743Y-191610496D01*
X171739947Y-191604684D01*
X171763608Y-191601174D01*
X171787500Y-191600000D01*
X172700000Y-191600000D01*
X172723892Y-191601174D01*
G37*
G36*
X-86832358Y-125576174D02*
G01*
X-86808697Y-125579684D01*
X-86785493Y-125585496D01*
X-86762971Y-125593554D01*
X-86741347Y-125603782D01*
X-86720830Y-125616079D01*
X-86701617Y-125630329D01*
X-86683893Y-125646393D01*
X-86667829Y-125664117D01*
X-86653579Y-125683330D01*
X-86641282Y-125703847D01*
X-86631054Y-125725471D01*
X-86622996Y-125747993D01*
X-86617184Y-125771197D01*
X-86613674Y-125794858D01*
X-86612500Y-125818750D01*
X-86612500Y-126306250D01*
X-86613674Y-126330142D01*
X-86617184Y-126353803D01*
X-86622996Y-126377007D01*
X-86631054Y-126399529D01*
X-86641282Y-126421153D01*
X-86653579Y-126441670D01*
X-86667829Y-126460883D01*
X-86683893Y-126478607D01*
X-86701617Y-126494671D01*
X-86720830Y-126508921D01*
X-86741347Y-126521218D01*
X-86762971Y-126531446D01*
X-86785493Y-126539504D01*
X-86808697Y-126545316D01*
X-86832358Y-126548826D01*
X-86856250Y-126550000D01*
X-87768750Y-126550000D01*
X-87792642Y-126548826D01*
X-87816303Y-126545316D01*
X-87839507Y-126539504D01*
X-87862029Y-126531446D01*
X-87883653Y-126521218D01*
X-87904170Y-126508921D01*
X-87923383Y-126494671D01*
X-87941107Y-126478607D01*
X-87957171Y-126460883D01*
X-87971421Y-126441670D01*
X-87983718Y-126421153D01*
X-87993946Y-126399529D01*
X-88002004Y-126377007D01*
X-88007816Y-126353803D01*
X-88011326Y-126330142D01*
X-88012500Y-126306250D01*
X-88012500Y-125818750D01*
X-88011326Y-125794858D01*
X-88007816Y-125771197D01*
X-88002004Y-125747993D01*
X-87993946Y-125725471D01*
X-87983718Y-125703847D01*
X-87971421Y-125683330D01*
X-87957171Y-125664117D01*
X-87941107Y-125646393D01*
X-87923383Y-125630329D01*
X-87904170Y-125616079D01*
X-87883653Y-125603782D01*
X-87862029Y-125593554D01*
X-87839507Y-125585496D01*
X-87816303Y-125579684D01*
X-87792642Y-125576174D01*
X-87768750Y-125575000D01*
X-86856250Y-125575000D01*
X-86832358Y-125576174D01*
G37*
G36*
X-86832358Y-127451174D02*
G01*
X-86808697Y-127454684D01*
X-86785493Y-127460496D01*
X-86762971Y-127468554D01*
X-86741347Y-127478782D01*
X-86720830Y-127491079D01*
X-86701617Y-127505329D01*
X-86683893Y-127521393D01*
X-86667829Y-127539117D01*
X-86653579Y-127558330D01*
X-86641282Y-127578847D01*
X-86631054Y-127600471D01*
X-86622996Y-127622993D01*
X-86617184Y-127646197D01*
X-86613674Y-127669858D01*
X-86612500Y-127693750D01*
X-86612500Y-128181250D01*
X-86613674Y-128205142D01*
X-86617184Y-128228803D01*
X-86622996Y-128252007D01*
X-86631054Y-128274529D01*
X-86641282Y-128296153D01*
X-86653579Y-128316670D01*
X-86667829Y-128335883D01*
X-86683893Y-128353607D01*
X-86701617Y-128369671D01*
X-86720830Y-128383921D01*
X-86741347Y-128396218D01*
X-86762971Y-128406446D01*
X-86785493Y-128414504D01*
X-86808697Y-128420316D01*
X-86832358Y-128423826D01*
X-86856250Y-128425000D01*
X-87768750Y-128425000D01*
X-87792642Y-128423826D01*
X-87816303Y-128420316D01*
X-87839507Y-128414504D01*
X-87862029Y-128406446D01*
X-87883653Y-128396218D01*
X-87904170Y-128383921D01*
X-87923383Y-128369671D01*
X-87941107Y-128353607D01*
X-87957171Y-128335883D01*
X-87971421Y-128316670D01*
X-87983718Y-128296153D01*
X-87993946Y-128274529D01*
X-88002004Y-128252007D01*
X-88007816Y-128228803D01*
X-88011326Y-128205142D01*
X-88012500Y-128181250D01*
X-88012500Y-127693750D01*
X-88011326Y-127669858D01*
X-88007816Y-127646197D01*
X-88002004Y-127622993D01*
X-87993946Y-127600471D01*
X-87983718Y-127578847D01*
X-87971421Y-127558330D01*
X-87957171Y-127539117D01*
X-87941107Y-127521393D01*
X-87923383Y-127505329D01*
X-87904170Y-127491079D01*
X-87883653Y-127478782D01*
X-87862029Y-127468554D01*
X-87839507Y-127460496D01*
X-87816303Y-127454684D01*
X-87792642Y-127451174D01*
X-87768750Y-127450000D01*
X-86856250Y-127450000D01*
X-86832358Y-127451174D01*
G37*
G36*
X-84451108Y-127451174D02*
G01*
X-84427447Y-127454684D01*
X-84404243Y-127460496D01*
X-84381721Y-127468554D01*
X-84360097Y-127478782D01*
X-84339580Y-127491079D01*
X-84320367Y-127505329D01*
X-84302643Y-127521393D01*
X-84286579Y-127539117D01*
X-84272329Y-127558330D01*
X-84260032Y-127578847D01*
X-84249804Y-127600471D01*
X-84241746Y-127622993D01*
X-84235934Y-127646197D01*
X-84232424Y-127669858D01*
X-84231250Y-127693750D01*
X-84231250Y-128181250D01*
X-84232424Y-128205142D01*
X-84235934Y-128228803D01*
X-84241746Y-128252007D01*
X-84249804Y-128274529D01*
X-84260032Y-128296153D01*
X-84272329Y-128316670D01*
X-84286579Y-128335883D01*
X-84302643Y-128353607D01*
X-84320367Y-128369671D01*
X-84339580Y-128383921D01*
X-84360097Y-128396218D01*
X-84381721Y-128406446D01*
X-84404243Y-128414504D01*
X-84427447Y-128420316D01*
X-84451108Y-128423826D01*
X-84475000Y-128425000D01*
X-85387500Y-128425000D01*
X-85411392Y-128423826D01*
X-85435053Y-128420316D01*
X-85458257Y-128414504D01*
X-85480779Y-128406446D01*
X-85502403Y-128396218D01*
X-85522920Y-128383921D01*
X-85542133Y-128369671D01*
X-85559857Y-128353607D01*
X-85575921Y-128335883D01*
X-85590171Y-128316670D01*
X-85602468Y-128296153D01*
X-85612696Y-128274529D01*
X-85620754Y-128252007D01*
X-85626566Y-128228803D01*
X-85630076Y-128205142D01*
X-85631250Y-128181250D01*
X-85631250Y-127693750D01*
X-85630076Y-127669858D01*
X-85626566Y-127646197D01*
X-85620754Y-127622993D01*
X-85612696Y-127600471D01*
X-85602468Y-127578847D01*
X-85590171Y-127558330D01*
X-85575921Y-127539117D01*
X-85559857Y-127521393D01*
X-85542133Y-127505329D01*
X-85522920Y-127491079D01*
X-85502403Y-127478782D01*
X-85480779Y-127468554D01*
X-85458257Y-127460496D01*
X-85435053Y-127454684D01*
X-85411392Y-127451174D01*
X-85387500Y-127450000D01*
X-84475000Y-127450000D01*
X-84451108Y-127451174D01*
G37*
G36*
X-84451108Y-125576174D02*
G01*
X-84427447Y-125579684D01*
X-84404243Y-125585496D01*
X-84381721Y-125593554D01*
X-84360097Y-125603782D01*
X-84339580Y-125616079D01*
X-84320367Y-125630329D01*
X-84302643Y-125646393D01*
X-84286579Y-125664117D01*
X-84272329Y-125683330D01*
X-84260032Y-125703847D01*
X-84249804Y-125725471D01*
X-84241746Y-125747993D01*
X-84235934Y-125771197D01*
X-84232424Y-125794858D01*
X-84231250Y-125818750D01*
X-84231250Y-126306250D01*
X-84232424Y-126330142D01*
X-84235934Y-126353803D01*
X-84241746Y-126377007D01*
X-84249804Y-126399529D01*
X-84260032Y-126421153D01*
X-84272329Y-126441670D01*
X-84286579Y-126460883D01*
X-84302643Y-126478607D01*
X-84320367Y-126494671D01*
X-84339580Y-126508921D01*
X-84360097Y-126521218D01*
X-84381721Y-126531446D01*
X-84404243Y-126539504D01*
X-84427447Y-126545316D01*
X-84451108Y-126548826D01*
X-84475000Y-126550000D01*
X-85387500Y-126550000D01*
X-85411392Y-126548826D01*
X-85435053Y-126545316D01*
X-85458257Y-126539504D01*
X-85480779Y-126531446D01*
X-85502403Y-126521218D01*
X-85522920Y-126508921D01*
X-85542133Y-126494671D01*
X-85559857Y-126478607D01*
X-85575921Y-126460883D01*
X-85590171Y-126441670D01*
X-85602468Y-126421153D01*
X-85612696Y-126399529D01*
X-85620754Y-126377007D01*
X-85626566Y-126353803D01*
X-85630076Y-126330142D01*
X-85631250Y-126306250D01*
X-85631250Y-125818750D01*
X-85630076Y-125794858D01*
X-85626566Y-125771197D01*
X-85620754Y-125747993D01*
X-85612696Y-125725471D01*
X-85602468Y-125703847D01*
X-85590171Y-125683330D01*
X-85575921Y-125664117D01*
X-85559857Y-125646393D01*
X-85542133Y-125630329D01*
X-85522920Y-125616079D01*
X-85502403Y-125603782D01*
X-85480779Y-125593554D01*
X-85458257Y-125585496D01*
X-85435053Y-125579684D01*
X-85411392Y-125576174D01*
X-85387500Y-125575000D01*
X-84475000Y-125575000D01*
X-84451108Y-125576174D01*
G37*
M02*
