G04 #@! TF.GenerationSoftware,KiCad,Pcbnew,(5.1.5-0-10_14)*
G04 #@! TF.CreationDate,2020-08-05T00:20:44-07:00*
G04 #@! TF.ProjectId,basis_combined_PROTON,62617369-735f-4636-9f6d-62696e65645f,rev?*
G04 #@! TF.SameCoordinates,Original*
G04 #@! TF.FileFunction,Profile,NP*
%FSLAX46Y46*%
G04 Gerber Fmt 4.6, Leading zero omitted, Abs format (unit mm)*
G04 Created by KiCad (PCBNEW (5.1.5-0-10_14)) date 2020-08-05 00:20:44*
%MOMM*%
%LPD*%
G04 APERTURE LIST*
%ADD10C,0.100000*%
%ADD11C,0.120000*%
G04 APERTURE END LIST*
D10*
X-123824375Y-116507500D02*
G75*
G02X-120824375Y-113507500I3000000J0D01*
G01*
X193855625Y-113507500D02*
G75*
G02X196855625Y-116507500I0J-3000000D01*
G01*
X144055625Y-207957499D02*
G75*
G03X150814190Y-206469023I28566J15958475D01*
G01*
X-71044375Y-207957499D02*
G75*
G02X-77802940Y-206469023I-28566J15958475D01*
G01*
X-123824375Y-130787500D02*
G75*
G03X-123788921Y-131207500I2505453J-1D01*
G01*
X196845625Y-130807500D02*
G75*
G02X196810171Y-131227500I-2505453J-1D01*
G01*
X184953082Y-190431995D02*
G75*
G03X188415624Y-185387499I-2817457J5644495D01*
G01*
X-111934375Y-190427500D02*
G75*
G02X-115396917Y-185383004I2817457J5644495D01*
G01*
X-89079308Y-113534373D02*
G75*
G02X-91119308Y-111494373I0J2040000D01*
G01*
X-103332251Y-111461252D02*
G75*
G02X-105372251Y-113501252I-2040000J0D01*
G01*
X-92559375Y-111484375D02*
G75*
G02X-91119308Y-111494373I720068J1D01*
G01*
X-103332251Y-111461252D02*
G75*
G02X-101909375Y-111484375I711626J1D01*
G01*
X178415624Y-113537498D02*
G75*
G02X176375624Y-111497498I0J2040000D01*
G01*
X164144306Y-111474377D02*
G75*
G02X162104306Y-113514377I-2040000J0D01*
G01*
X174935564Y-111484380D02*
G75*
G02X176375624Y-111497498I720061J-3119D01*
G01*
X164144306Y-111474377D02*
G75*
G02X165584375Y-111484375I720069J1D01*
G01*
X64215625Y-113537500D02*
G75*
G02X61515625Y-110837500I0J2700000D01*
G01*
X49623602Y-110727275D02*
G75*
G02X46823602Y-113527275I-2800000J0D01*
G01*
X59516865Y-110787718D02*
G75*
G02X61515625Y-110837500I998760J-49782D01*
G01*
X49623602Y-110727275D02*
G75*
G02X51612500Y-110787500I992023J-110225D01*
G01*
X26115625Y-113537500D02*
G75*
G02X23415625Y-110837500I0J2700000D01*
G01*
X11515625Y-110837500D02*
G75*
G02X8815625Y-113537500I-2700000J0D01*
G01*
X11517497Y-110837500D02*
G75*
G02X13512500Y-110787500I998128J0D01*
G01*
X21416865Y-110787718D02*
G75*
G02X23415625Y-110837500I998760J-49782D01*
G01*
X36915625Y-115537500D02*
G75*
G02X38915625Y-113537500I2000000J0D01*
G01*
X34115625Y-113537500D02*
G75*
G02X36115625Y-115537500I0J-2000000D01*
G01*
X38915625Y-207937500D02*
G75*
G02X36915625Y-205937500I0J2000000D01*
G01*
X36115625Y-205937500D02*
G75*
G02X34115625Y-207937500I-2000000J0D01*
G01*
X36115625Y-205937500D02*
G75*
G02X36915625Y-205937500I400000J0D01*
G01*
X36915625Y-115537500D02*
G75*
G02X36115625Y-115537500I-400000J0D01*
G01*
X150814190Y-206469023D02*
X184953082Y-190431995D01*
X8815625Y-113537500D02*
X-89079308Y-113534373D01*
X-105372251Y-113501252D02*
X-118268750Y-113506250D01*
X36900000Y-204000000D02*
G75*
G02X36100000Y-204000000I-400000J0D01*
G01*
X36100000Y-192750000D02*
G75*
G02X36900000Y-192750000I400000J0D01*
G01*
X36900000Y-191000000D02*
G75*
G02X36100000Y-191000000I-400000J0D01*
G01*
X36100000Y-188750000D02*
G75*
G02X36900000Y-188750000I400000J0D01*
G01*
X36900000Y-187000000D02*
G75*
G02X36100000Y-187000000I-400000J0D01*
G01*
X36100000Y-173500000D02*
G75*
G02X36900000Y-173500000I400000J0D01*
G01*
X36900000Y-171750000D02*
G75*
G02X36100000Y-171750000I-400000J0D01*
G01*
X36100000Y-169500000D02*
G75*
G02X36900000Y-169500000I400000J0D01*
G01*
X36900000Y-167750000D02*
G75*
G02X36100000Y-167750000I-400000J0D01*
G01*
X36100000Y-154500000D02*
G75*
G02X36900000Y-154500000I400000J0D01*
G01*
X36900000Y-152750000D02*
G75*
G02X36100000Y-152750000I-400000J0D01*
G01*
X36100000Y-150500000D02*
G75*
G02X36900000Y-150500000I400000J0D01*
G01*
X36900000Y-148750000D02*
G75*
G02X36100000Y-148750000I-400000J0D01*
G01*
X36100000Y-137000000D02*
G75*
G02X36900000Y-137000000I400000J0D01*
G01*
X36900000Y-133750000D02*
G75*
G02X36100000Y-133750000I-400000J0D01*
G01*
X36100000Y-130500000D02*
G75*
G02X36900000Y-130500000I400000J0D01*
G01*
X36900000Y-127500000D02*
G75*
G02X36100000Y-127500000I-400000J0D01*
G01*
X36100000Y-117500000D02*
G75*
G02X36900000Y-117500000I400000J0D01*
G01*
X36100000Y-133750000D02*
X36100000Y-130500000D01*
X36900000Y-130500000D02*
X36900000Y-133750000D01*
X36100000Y-152750000D02*
X36100000Y-150500000D01*
X36900000Y-150500000D02*
X36900000Y-152750000D01*
X36100000Y-171750000D02*
X36100000Y-169500000D01*
X36900000Y-169500000D02*
X36900000Y-171750000D01*
X36100000Y-191000000D02*
X36100000Y-188750000D01*
X36900000Y-188750000D02*
X36900000Y-191000000D01*
X36900000Y-192750000D02*
X36900000Y-204000000D01*
X36100000Y-204000000D02*
X36100000Y-192750000D01*
X36100000Y-187000000D02*
X36100000Y-173500000D01*
X36900000Y-173500000D02*
X36900000Y-187000000D01*
X36900000Y-167750000D02*
X36900000Y-154500000D01*
X36100000Y-154500000D02*
X36100000Y-167750000D01*
X36100000Y-148750000D02*
X36100000Y-137000000D01*
X36900000Y-137000000D02*
X36900000Y-148750000D01*
X36900000Y-127500000D02*
X36900000Y-117500000D01*
X36100000Y-117500000D02*
X36100000Y-127500000D01*
X26115625Y-113537500D02*
X33337500Y-113537500D01*
X64215625Y-113537500D02*
X162104306Y-113514377D01*
X46823602Y-113527275D02*
X39687500Y-113537500D01*
X178415624Y-113537498D02*
X193855625Y-113507500D01*
X39687500Y-113537500D02*
X38915625Y-113537500D01*
X196855625Y-116507500D02*
X196845625Y-130807500D01*
X196810171Y-131227500D02*
X188415624Y-185387499D01*
X38915625Y-207937500D02*
X144055625Y-207957500D01*
X-77802940Y-206469023D02*
X-111934375Y-190427500D01*
X34115625Y-207937500D02*
X-71044375Y-207957500D01*
X-123788921Y-131207500D02*
X-115396917Y-185383004D01*
X-123824375Y-116507500D02*
X-123824375Y-130787500D01*
X33337500Y-113537500D02*
X34115625Y-113537500D01*
X-118268750Y-113506250D02*
X-120824375Y-113507500D01*
D11*
X166115625Y-174037500D02*
X166115625Y-183437500D01*
X158515625Y-171837500D02*
X163915625Y-171837500D01*
X156315625Y-183437500D02*
X156315625Y-174037500D01*
X163915625Y-185637500D02*
X158515625Y-185637500D01*
X166115625Y-183437500D02*
G75*
G02X163915625Y-185637500I-2200000J0D01*
G01*
X163915625Y-171837500D02*
G75*
G02X166115625Y-174037500I0J-2200000D01*
G01*
X156315625Y-174037500D02*
G75*
G02X158515625Y-171837500I2200000J0D01*
G01*
X158515625Y-185637500D02*
G75*
G02X156315625Y-183437500I0J2200000D01*
G01*
X-83284375Y-174037500D02*
X-83284375Y-183437500D01*
X-90884375Y-171837500D02*
X-85484375Y-171837500D01*
X-93084375Y-183437500D02*
X-93084375Y-174037500D01*
X-85484375Y-185637500D02*
X-90884375Y-185637500D01*
X-83284375Y-183437500D02*
G75*
G02X-85484375Y-185637500I-2200000J0D01*
G01*
X-85484375Y-171837500D02*
G75*
G02X-83284375Y-174037500I0J-2200000D01*
G01*
X-93084375Y-174037500D02*
G75*
G02X-90884375Y-171837500I2200000J0D01*
G01*
X-90884375Y-185637500D02*
G75*
G02X-93084375Y-183437500I0J2200000D01*
G01*
D10*
X-101909375Y-114709375D02*
X-101909375Y-111484375D01*
X-93059375Y-115209375D02*
X-101409375Y-115209375D01*
X-92559375Y-111484375D02*
X-92559375Y-114709375D01*
X-101909375Y-114709375D02*
G75*
G03X-101409375Y-115209375I500000J0D01*
G01*
X-93059375Y-115209375D02*
G75*
G03X-92559375Y-114709375I0J500000D01*
G01*
X165584375Y-114709375D02*
X165584375Y-111484375D01*
X174434375Y-115209375D02*
X166084375Y-115209375D01*
X174934375Y-111484375D02*
X174934375Y-114709375D01*
X165584375Y-114709375D02*
G75*
G03X166084375Y-115209375I500000J0D01*
G01*
X174434375Y-115209375D02*
G75*
G03X174934375Y-114709375I0J500000D01*
G01*
X51612500Y-110787500D02*
X51612500Y-114117500D01*
X52412500Y-114917500D02*
X58712500Y-114917500D01*
X59512500Y-114117500D02*
X59512500Y-110787500D01*
X58712500Y-114917500D02*
G75*
G03X59512500Y-114117500I0J800000D01*
G01*
X51612500Y-114117500D02*
G75*
G03X52412500Y-114917500I800000J0D01*
G01*
X13512500Y-110787500D02*
X13512500Y-114117500D01*
X14312500Y-114917500D02*
X20612500Y-114917500D01*
X21412500Y-114117500D02*
X21412500Y-110787500D01*
X20612500Y-114917500D02*
G75*
G03X21412500Y-114117500I0J800000D01*
G01*
X13512500Y-114117500D02*
G75*
G03X14312500Y-114917500I800000J0D01*
G01*
M02*
