M48
; DRILL file {KiCad (5.1.5-0-10_14)} date Wednesday, August 05, 2020 at 12:20:49 AM
; FORMAT={2:4/ absolute / inch / suppress leading zeros}
; #@! TF.CreationDate,2020-08-05T00:20:49-07:00
; #@! TF.GenerationSoftware,Kicad,Pcbnew,(5.1.5-0-10_14)
FMAT,2
INCH,TZ
T1C0.0118
T2C0.0157
T3C0.0197
T4C0.0236
T5C0.0591
T6C0.0600
T7C0.0602
T8C0.0606
T9C0.1181
T10C0.0670
T11C0.1181
T12C0.1200
T13C0.1570
%
G90
G05
T1
X-47915Y-52601
X-44063Y-49221
X-43714Y-49365
X-43594Y-69531
X-43438Y-53906
X-42557Y-47078
X-41986Y-47641
X-41136Y-46133
X-40938Y-48281
X-40510Y-48861
X-40466Y-54188
X-39758Y-54188
X-39531Y-51563
X-39531Y-52813
X-39531Y-53127
X-39531Y-51877
X-39526Y-52192
X-39375Y-52500
X-39328Y-54556
X-39219Y-50469
X-39167Y-47889
X-39062Y-51809
X-38683Y-50169
X-38659Y-46527
X-38431Y-46775
X-38133Y-46522
X-37935Y-46775
X-37922Y-51685
X-37537Y-56129
X-37110Y-72958
X-37108Y-50169
X-36451Y-50920
X-35860Y-54857
X-35777Y-49546
X-35529Y-55952
X-35431Y-48874
X-35417Y-48506
X-35269Y-48227
X-35154Y-52205
X-35151Y-51314
X-34844Y-46094
X-34710Y-48273
X-34685Y-54494
X-34531Y-54219
X-34490Y-53499
X-34010Y-73322
X-33813Y-51314
X-33604Y-48271
X-32813Y-51875
X-32813Y-52500
X-32500Y-52188
X-32031Y-46094
X-31727Y-52196
X-31411Y-48991
X-30250Y-60469
X-26719Y-47188
X-24063Y-75156
X-24063Y-53125
X-24063Y-66406
X-23750Y-47188
X-23125Y-45313
X-23125Y-46406
X-23125Y-76094
X-22813Y-79844
X-22500Y-49375
X-16254Y-62889
X-16240Y-81249
X-15348Y-64109
X-15047Y-81249
X-14994Y-62101
X-1250Y-44916
X-625Y-45313
X-625Y-46250
X-625Y-48906
X0Y-49375
X0Y-79531
X5938Y-74688
X6875Y-64531
X7500Y-60938
X7500Y-64531
X16625Y-66781
X21875Y-61406
X21875Y-63594
X22500Y-64531
X26625Y-66500
X29219Y-48594
X29375Y-45000
X30000Y-45938
X30000Y-49531
X30000Y-79531
X30781Y-76094
X31625Y-66312
X41625Y-60468
X42644Y-61314
X43746Y-81275
X43746Y-62889
X45006Y-62101
X45006Y-81275
X46625Y-60156
X50156Y-46389
X50156Y-76250
X52053Y-49779
X52077Y-76149
X52344Y-46027
X52794Y-69168
X53906Y-67656
X53906Y-73281
X56625Y-59838
X59219Y-53125
X59219Y-59531
X59531Y-51875
X59531Y-59219
X59844Y-45625
X59844Y-58906
X62609Y-62405
X62634Y-73844
X64061Y-73322
X64366Y-45634
X65593Y-46094
X66061Y-52188
X66094Y-51563
X66449Y-46056
X66514Y-46578
X66687Y-46263
X66884Y-46509
X67179Y-46300
X67474Y-46409
X67648Y-46027
X67954Y-47456
X67969Y-51563
X67998Y-48495
X68116Y-66608
X68281Y-51094
X68281Y-53750
X68281Y-62656
X68380Y-62223
X68414Y-54063
X68600Y-46088
X68750Y-47031
X69042Y-53757
X69042Y-58417
X69375Y-53660
X69447Y-51601
X69546Y-57188
X69598Y-54309
X69679Y-52578
X69688Y-63594
X69715Y-59542
X69844Y-45625
X70313Y-58906
X70469Y-60156
X70469Y-64375
X71250Y-68906
X71317Y-59271
X71563Y-59000
X72031Y-67656
X72382Y-70000
X72500Y-65156
X72500Y-66875
X72656Y-67656
X72808Y-60656
X72969Y-57344
X73125Y-65000
X73281Y-64375
X73299Y-60451
X73438Y-55469
X73594Y-57813
X73730Y-60569
X73750Y-61875
X73863Y-63394
X74063Y-59375
X74285Y-62735
X74652Y-63306
X74844Y-57656
X74910Y-63125
X75000Y-46406
X75156Y-54063
X75156Y-55938
X75313Y-48125
X75402Y-61688
X75427Y-58684
X75445Y-58269
X75627Y-48125
X75855Y-60336
T2
X-39219Y-46250
X-39214Y-49897
X-37391Y-49891
X-37344Y-46250
X-18375Y-60156
X-13375Y-59844
X-3384Y-59531
X1625Y-59219
X3057Y-46790
X5938Y-47813
X6563Y-51875
X6563Y-48654
X7181Y-48650
X7188Y-52188
X7813Y-47813
X8364Y-47436
X11625Y-58906
X12969Y-51563
X12969Y-52500
X15781Y-51563
X15781Y-52500
X20938Y-47813
X21406Y-48594
X21406Y-51875
X22344Y-48594
X22344Y-52188
X22813Y-47813
X25778Y-52503
X25781Y-50469
X33281Y-50469
X33281Y-52500
X40625Y-72813
X40625Y-76563
X48125Y-50313
X48125Y-52500
T6
X9125Y-47437
X11625Y-46438
X20875Y-80438
X23375Y-79438
X9125Y-62437
X11625Y-61438
X-13375Y-47437
X-10875Y-46438
X-13375Y-77438
X-10875Y-76438
X-20875Y-69938
X-18375Y-68938
X1625Y-69938
X4125Y-68938
X-13375Y-69938
X-10875Y-68938
X1625Y-47437
X4125Y-46438
X16625Y-47437
X19125Y-46438
X-5875Y-77438
X-3375Y-76438
X46625Y-47437
X49125Y-46438
X1625Y-77438
X4125Y-76438
X31625Y-54937
X34125Y-53938
X-20875Y-54937
X-18375Y-53938
X24125Y-69938
X26625Y-68938
X54125Y-54937
X56625Y-53938
X-20875Y-77438
X-18375Y-76438
X31625Y-47437
X34125Y-46438
X-20875Y-62437
X-18375Y-61438
X39125Y-47437
X41625Y-46438
X39125Y-62437
X41625Y-61438
X31625Y-77438
X34125Y-76438
X46625Y-62437
X49125Y-61438
X-13375Y-62437
X-10875Y-61438
X16625Y-62437
X19125Y-61438
X46625Y-77438
X49125Y-76438
X-5875Y-54937
X-3375Y-53938
X24125Y-47437
X26625Y-46438
X16625Y-54937
X19125Y-53938
X-30250Y-47437
X-27750Y-46438
X-5875Y-62437
X-3375Y-61438
X24125Y-62437
X26625Y-61438
X31625Y-62437
X34125Y-61438
X46625Y-69938
X49125Y-68938
X-5875Y-47437
X-3375Y-46438
X39125Y-77438
X41625Y-76438
X1625Y-54937
X4125Y-53938
X-30250Y-62437
X-27750Y-61438
X1625Y-62437
X4125Y-61438
X9125Y-54937
X11625Y-53938
X5875Y-80438
X8375Y-79438
X46625Y-54937
X49125Y-53938
X56000Y-69938
X58500Y-68938
X63500Y-62437
X66000Y-61438
X24125Y-54937
X26625Y-53938
X9125Y-69938
X11625Y-68938
X16625Y-77438
X19125Y-76438
X39125Y-54937
X41625Y-53938
X61625Y-47437
X64125Y-46438
X39125Y-69938
X41625Y-68938
X71000Y-47437
X73500Y-46438
X54125Y-77438
X56625Y-76438
X-5875Y-69938
X-3375Y-68938
X54125Y-47437
X56625Y-46438
X31625Y-69938
X34125Y-68938
X61625Y-54937
X64125Y-53938
X71000Y-54937
X73500Y-53938
X-30250Y-54937
X-27750Y-53938
X16625Y-69938
X19125Y-68938
X-28375Y-77438
X-25875Y-76438
X-20875Y-47437
X-18375Y-46438
X-30250Y-69938
X-27750Y-68938
X54125Y-62437
X56625Y-61438
X-13375Y-54937
X-10875Y-53938
X9125Y-77438
X11625Y-76438
X24125Y-77438
X26625Y-76438
T7
X-46250Y-57833
X-44637Y-56704
X-42976Y-62510
X-41363Y-61380
X-48125Y-46583
X-46512Y-45454
X-44851Y-51260
X-43238Y-50130
X-44375Y-69083
X-42762Y-67954
X-41101Y-73760
X-39488Y-72630
T8
X-45444Y-57269
X-47319Y-46019
X-43569Y-68519
T9
X62125Y-50438
X64625Y-49438
X39625Y-72938
X42125Y-71938
X71500Y-50438
X74000Y-49438
X54625Y-80438
X57125Y-79438
X-5375Y-72938
X-2875Y-71938
X54625Y-50438
X57125Y-49438
X32125Y-72938
X34625Y-71938
X62125Y-57938
X64625Y-56938
X71500Y-57938
X74000Y-56938
X-29750Y-57938
X-27250Y-56938
X17125Y-72938
X19625Y-71938
X-27875Y-80438
X-25375Y-79438
X-20375Y-50438
X-17875Y-49438
X-29750Y-72938
X-27250Y-71938
X54625Y-65438
X57125Y-64438
X-12875Y-57938
X-10375Y-56938
X9625Y-80438
X12125Y-79438
X24625Y-80438
X27125Y-79438
X9625Y-50438
X12125Y-49438
X20375Y-77438
X22875Y-76438
X9625Y-65438
X12125Y-64438
X-12875Y-50438
X-10375Y-49438
X-12875Y-80438
X-10375Y-79438
X-20375Y-72938
X-17875Y-71938
X2125Y-72938
X4625Y-71938
X-12875Y-72938
X-10375Y-71938
X2125Y-50438
X4625Y-49438
X17125Y-50438
X19625Y-49438
X-5375Y-80438
X-2875Y-79438
X47125Y-50438
X49625Y-49438
X2125Y-80438
X4625Y-79438
X32125Y-57938
X34625Y-56938
X-20375Y-57938
X-17875Y-56938
X24625Y-72938
X27125Y-71938
X54625Y-57938
X57125Y-56938
X-20375Y-80438
X-17875Y-79438
X32125Y-50438
X34625Y-49438
X-20375Y-65438
X-17875Y-64438
X39625Y-50438
X42125Y-49438
X39625Y-65438
X42125Y-64438
X32125Y-80438
X34625Y-79438
X47125Y-65438
X49625Y-64438
X-12875Y-65438
X-10375Y-64438
X17125Y-65438
X19625Y-64438
X47125Y-80438
X49625Y-79438
X-5375Y-57938
X-2875Y-56938
X24625Y-50438
X27125Y-49438
X17125Y-57938
X19625Y-56938
X-29750Y-50438
X-27250Y-49438
X-5375Y-65438
X-2875Y-64438
X24625Y-65438
X27125Y-64438
X32125Y-65438
X34625Y-64438
X47125Y-72938
X49625Y-71938
X-5375Y-50438
X-2875Y-49438
X39625Y-80438
X42125Y-79438
X2125Y-57938
X4625Y-56938
X-29750Y-65438
X-27250Y-64438
X2125Y-65438
X4625Y-64438
X9625Y-57938
X12125Y-56938
X5375Y-77438
X7875Y-76438
X47125Y-57938
X49625Y-56938
X56500Y-72938
X59000Y-71938
X64000Y-65438
X66500Y-64438
X24625Y-57938
X27125Y-56938
X9625Y-72938
X12125Y-71938
X17125Y-80438
X19625Y-79438
X39625Y-57938
X42125Y-56938
T10
X53625Y-55938
X57625Y-55938
X-21375Y-78438
X-17375Y-78438
X31125Y-48438
X35125Y-48438
X-21375Y-63438
X-17375Y-63438
X38625Y-48438
X42625Y-48438
X38625Y-63438
X42625Y-63438
X31125Y-78438
X35125Y-78438
X46125Y-63438
X50125Y-63438
X-13875Y-63438
X-9875Y-63438
X16125Y-63438
X20125Y-63438
X46125Y-78438
X50125Y-78438
X-6375Y-55938
X-2375Y-55938
X23625Y-48438
X27625Y-48438
X16125Y-55938
X20125Y-55938
X-30750Y-48438
X-26750Y-48438
X-6375Y-63438
X-2375Y-63438
X23625Y-63438
X27625Y-63438
X31125Y-63438
X35125Y-63438
X46125Y-70938
X50125Y-70938
X-6375Y-48438
X-2375Y-48438
X38625Y-78438
X42625Y-78438
X1125Y-55938
X5125Y-55938
X-30750Y-63438
X-26750Y-63438
X1125Y-63438
X5125Y-63438
X8625Y-55938
X12625Y-55938
X4875Y-78438
X8875Y-78438
X46125Y-55938
X50125Y-55938
X55500Y-70938
X59500Y-70938
X63000Y-63438
X67000Y-63438
X23625Y-55938
X27625Y-55938
X8625Y-70938
X12625Y-70938
X16125Y-78438
X20125Y-78438
X38625Y-55938
X42625Y-55938
X61125Y-48438
X65125Y-48438
X38625Y-70938
X42625Y-70938
X70500Y-48438
X74500Y-48438
X53625Y-78438
X57625Y-78438
X-6375Y-70938
X-2375Y-70938
X53625Y-48438
X57625Y-48438
X31125Y-70938
X35125Y-70938
X61125Y-55938
X65125Y-55938
X70500Y-55938
X74500Y-55938
X-30750Y-55938
X-26750Y-55938
X16125Y-70938
X20125Y-70938
X-28875Y-78438
X-24875Y-78438
X-21375Y-48438
X-17375Y-48438
X-30750Y-70938
X-26750Y-70938
X53625Y-63438
X57625Y-63438
X-13875Y-55938
X-9875Y-55938
X8625Y-78438
X12625Y-78438
X23625Y-78438
X27625Y-78438
X8625Y-48438
X12625Y-48438
X19875Y-78438
X23875Y-78438
X8625Y-63438
X12625Y-63438
X-13875Y-48438
X-9875Y-48438
X-13875Y-78438
X-9875Y-78438
X-21375Y-70938
X-17375Y-70938
X1125Y-70938
X5125Y-70938
X-13875Y-70938
X-9875Y-70938
X1125Y-48438
X5125Y-48438
X16125Y-48438
X20125Y-48438
X-6375Y-78438
X-2375Y-78438
X46125Y-48438
X50125Y-48438
X1125Y-78438
X5125Y-78438
X31125Y-55938
X35125Y-55938
X-21375Y-55938
X-17375Y-55938
X23625Y-70938
X27625Y-70938
T11
X29375Y-52188
X-45000Y-65781
X-625Y-52188
X76250Y-52188
X-46875Y-54531
X-625Y-74688
X29375Y-74688
X73594Y-68750
T12
X17190Y-81188
X26560Y-81188
X2190Y-81188
X11560Y-81188
T13
X-19375Y-55938
X25625Y-70938
X55625Y-55938
X-19375Y-78438
X33125Y-48438
X-19375Y-63438
X40625Y-48438
X40625Y-63438
X33125Y-78438
X48125Y-63438
X-11875Y-63438
X18125Y-63438
X48125Y-78438
X-4375Y-55938
X25625Y-48438
X18125Y-55938
X-28750Y-48438
X-4375Y-63438
X25625Y-63438
X33125Y-63438
X48125Y-70938
X-4375Y-48438
X40625Y-78438
X3125Y-55938
X-28750Y-63438
X3125Y-63438
X10625Y-55938
X6875Y-78438
X48125Y-55938
X57500Y-70938
X65000Y-63438
X25625Y-55938
X10625Y-70938
X18125Y-78438
X40625Y-55938
X63125Y-48438
X40625Y-70938
X72500Y-48438
X55625Y-78438
X-4375Y-70938
X55625Y-48438
X33125Y-70938
X63125Y-55938
X72500Y-55938
X-28750Y-55938
X18125Y-70938
X-26875Y-78438
X-19375Y-48438
X-28750Y-70938
X55625Y-63438
X-11875Y-55938
X10625Y-78438
X25625Y-78438
X17190Y-75188
X26560Y-75188
X10625Y-48438
X21875Y-78438
X10625Y-63438
X-11875Y-48438
X-11875Y-78438
X-19375Y-70938
X3125Y-70938
X-11875Y-70938
X3125Y-48438
X18125Y-48438
X-4375Y-78438
X48125Y-48438
X3125Y-78438
X2190Y-75188
X11560Y-75188
X33125Y-55938
T3
G00X-40407Y-43882
M15
G01X-40407Y-44393
M16
G05
G00X-40407Y-45104
M15
G01X-40407Y-45714
M16
G05
G00X-36155Y-43882
M15
G01X-36155Y-44393
M16
G05
G00X-36155Y-45104
M15
G01X-36155Y-45714
M16
G05
G00X64905Y-43882
M15
G01X64905Y-44393
M16
G05
G00X64905Y-45104
M15
G01X64905Y-45714
M16
G05
G00X69157Y-43882
M15
G01X69157Y-44393
M16
G05
G00X69157Y-45104
M15
G01X69157Y-45714
M16
G05
T4
G00X19926Y-43609
M15
G01X19926Y-44082
M16
G05
G00X19926Y-45243
M15
G01X19926Y-45597
M16
G05
G00X23824Y-43609
M15
G01X23824Y-44082
M16
G05
G00X23824Y-45243
M15
G01X23824Y-45597
M16
G05
G00X4926Y-43609
M15
G01X4926Y-44082
M16
G05
G00X4926Y-45243
M15
G01X4926Y-45597
M16
G05
G00X8824Y-43609
M15
G01X8824Y-44082
M16
G05
G00X8824Y-45243
M15
G01X8824Y-45597
M16
G05
T5
G00X-45703Y-60742
M15
G01X-45409Y-61162
M16
G05
G00X-42091Y-58213
M15
G01X-41797Y-58633
M16
G05
G00X-47578Y-49492
M15
G01X-47284Y-49912
M16
G05
G00X-43966Y-46963
M15
G01X-43672Y-47383
M16
G05
G00X-43828Y-71992
M15
G01X-43534Y-72412
M16
G05
G00X-40216Y-69463
M15
G01X-39922Y-69883
M16
G05
T0
M30
