G04 #@! TF.GenerationSoftware,KiCad,Pcbnew,(5.1.5-0-10_14)*
G04 #@! TF.CreationDate,2020-07-20T20:49:14-07:00*
G04 #@! TF.ProjectId,basis_combined_PROTON,62617369-735f-4636-9f6d-62696e65645f,rev?*
G04 #@! TF.SameCoordinates,Original*
G04 #@! TF.FileFunction,Soldermask,Top*
G04 #@! TF.FilePolarity,Negative*
%FSLAX46Y46*%
G04 Gerber Fmt 4.6, Leading zero omitted, Abs format (unit mm)*
G04 Created by KiCad (PCBNEW (5.1.5-0-10_14)) date 2020-07-20 20:49:14*
%MOMM*%
%LPD*%
G04 APERTURE LIST*
%ADD10C,0.100000*%
%ADD11C,0.120000*%
%ADD12C,1.701800*%
%ADD13C,2.286000*%
%ADD14C,3.987800*%
%ADD15C,3.470000*%
%ADD16O,1.100000X2.400000*%
%ADD17O,1.000000X2.550000*%
%ADD18O,1.200000X2.400000*%
%ADD19C,3.048000*%
%ADD20C,3.000000*%
%ADD21C,2.000000*%
G04 APERTURE END LIST*
D10*
X-123824375Y-116507500D02*
G75*
G02X-120824375Y-113507500I3000000J0D01*
G01*
X193855625Y-113507500D02*
G75*
G02X196855625Y-116507500I0J-3000000D01*
G01*
X144055625Y-207957499D02*
G75*
G03X150814190Y-206469023I28566J15958475D01*
G01*
X-71044375Y-207957499D02*
G75*
G02X-77802940Y-206469023I-28566J15958475D01*
G01*
X-123824375Y-130787500D02*
G75*
G03X-123788921Y-131207500I2505453J-1D01*
G01*
X196845625Y-130807500D02*
G75*
G02X196810171Y-131227500I-2505453J-1D01*
G01*
X184953082Y-190431995D02*
G75*
G03X188415624Y-185387499I-2817457J5644495D01*
G01*
X-111934375Y-190427500D02*
G75*
G02X-115396917Y-185383004I2817457J5644495D01*
G01*
X-89079308Y-113534373D02*
G75*
G02X-91119308Y-111494373I0J2040000D01*
G01*
X-103332251Y-111461252D02*
G75*
G02X-105372251Y-113501252I-2040000J0D01*
G01*
X-92559375Y-111484375D02*
G75*
G02X-91119308Y-111494373I720068J1D01*
G01*
X-103332251Y-111461252D02*
G75*
G02X-101909375Y-111484375I711626J1D01*
G01*
X178415624Y-113537498D02*
G75*
G02X176375624Y-111497498I0J2040000D01*
G01*
X164144306Y-111474377D02*
G75*
G02X162104306Y-113514377I-2040000J0D01*
G01*
X174935557Y-111487500D02*
G75*
G02X176375624Y-111497498I720068J1D01*
G01*
X164144306Y-111474377D02*
G75*
G02X165584375Y-111484375I720069J1D01*
G01*
X64215625Y-113537500D02*
G75*
G02X61515625Y-110837500I0J2700000D01*
G01*
X49623602Y-110727275D02*
G75*
G02X46823602Y-113527275I-2800000J0D01*
G01*
X59516865Y-110787718D02*
G75*
G02X61515625Y-110837500I998760J-49782D01*
G01*
X49623602Y-110727275D02*
G75*
G02X51612500Y-110787500I992023J-110225D01*
G01*
X26115625Y-113537500D02*
G75*
G02X23415625Y-110837500I0J2700000D01*
G01*
X11515625Y-110837500D02*
G75*
G02X8815625Y-113537500I-2700000J0D01*
G01*
X11517497Y-110837500D02*
G75*
G02X13512500Y-110787500I998128J0D01*
G01*
X21416865Y-110787718D02*
G75*
G02X23415625Y-110837500I998760J-49782D01*
G01*
X36915625Y-115537500D02*
G75*
G02X38915625Y-113537500I2000000J0D01*
G01*
X34115625Y-113537500D02*
G75*
G02X36115625Y-115537500I0J-2000000D01*
G01*
X38915625Y-207937500D02*
G75*
G02X36915625Y-205937500I0J2000000D01*
G01*
X36115625Y-205937500D02*
G75*
G02X34115625Y-207937500I-2000000J0D01*
G01*
X36115625Y-205937500D02*
G75*
G02X36915625Y-205937500I400000J0D01*
G01*
X36915625Y-115537500D02*
G75*
G02X36115625Y-115537500I-400000J0D01*
G01*
X150814190Y-206469023D02*
X184953082Y-190431995D01*
X8815625Y-113537500D02*
X-89079308Y-113534373D01*
X-105372251Y-113501252D02*
X-118268750Y-113506250D01*
X36900000Y-204000000D02*
G75*
G02X36100000Y-204000000I-400000J0D01*
G01*
X36100000Y-192750000D02*
G75*
G02X36900000Y-192750000I400000J0D01*
G01*
X36900000Y-191000000D02*
G75*
G02X36100000Y-191000000I-400000J0D01*
G01*
X36100000Y-188750000D02*
G75*
G02X36900000Y-188750000I400000J0D01*
G01*
X36900000Y-187000000D02*
G75*
G02X36100000Y-187000000I-400000J0D01*
G01*
X36100000Y-173500000D02*
G75*
G02X36900000Y-173500000I400000J0D01*
G01*
X36900000Y-171750000D02*
G75*
G02X36100000Y-171750000I-400000J0D01*
G01*
X36100000Y-169500000D02*
G75*
G02X36900000Y-169500000I400000J0D01*
G01*
X36900000Y-167750000D02*
G75*
G02X36100000Y-167750000I-400000J0D01*
G01*
X36100000Y-154500000D02*
G75*
G02X36900000Y-154500000I400000J0D01*
G01*
X36900000Y-152750000D02*
G75*
G02X36100000Y-152750000I-400000J0D01*
G01*
X36100000Y-150500000D02*
G75*
G02X36900000Y-150500000I400000J0D01*
G01*
X36900000Y-148750000D02*
G75*
G02X36100000Y-148750000I-400000J0D01*
G01*
X36100000Y-137000000D02*
G75*
G02X36900000Y-137000000I400000J0D01*
G01*
X36900000Y-133750000D02*
G75*
G02X36100000Y-133750000I-400000J0D01*
G01*
X36100000Y-130500000D02*
G75*
G02X36900000Y-130500000I400000J0D01*
G01*
X36900000Y-127500000D02*
G75*
G02X36100000Y-127500000I-400000J0D01*
G01*
X36100000Y-117500000D02*
G75*
G02X36900000Y-117500000I400000J0D01*
G01*
X36100000Y-133750000D02*
X36100000Y-130500000D01*
X36900000Y-130500000D02*
X36900000Y-133750000D01*
X36100000Y-152750000D02*
X36100000Y-150500000D01*
X36900000Y-150500000D02*
X36900000Y-152750000D01*
X36100000Y-171750000D02*
X36100000Y-169500000D01*
X36900000Y-169500000D02*
X36900000Y-171750000D01*
X36100000Y-191000000D02*
X36100000Y-188750000D01*
X36900000Y-188750000D02*
X36900000Y-191000000D01*
X36900000Y-192750000D02*
X36900000Y-204000000D01*
X36100000Y-204000000D02*
X36100000Y-192750000D01*
X36100000Y-187000000D02*
X36100000Y-173500000D01*
X36900000Y-173500000D02*
X36900000Y-187000000D01*
X36900000Y-167750000D02*
X36900000Y-154500000D01*
X36100000Y-154500000D02*
X36100000Y-167750000D01*
X36100000Y-148750000D02*
X36100000Y-137000000D01*
X36900000Y-137000000D02*
X36900000Y-148750000D01*
X36900000Y-127500000D02*
X36900000Y-117500000D01*
X36100000Y-117500000D02*
X36100000Y-127500000D01*
X26115625Y-113537500D02*
X33337500Y-113537500D01*
X64215625Y-113537500D02*
X162104306Y-113514377D01*
X46823602Y-113527275D02*
X39687500Y-113537500D01*
X178415624Y-113537498D02*
X193855625Y-113507500D01*
X39687500Y-113537500D02*
X38915625Y-113537500D01*
X196855625Y-116507500D02*
X196845625Y-130807500D01*
X196810171Y-131227500D02*
X188415624Y-185387499D01*
X38915625Y-207937500D02*
X144055625Y-207957500D01*
X-77802940Y-206469023D02*
X-111934375Y-190427500D01*
X34115625Y-207937500D02*
X-71044375Y-207957500D01*
X-123788921Y-131207500D02*
X-115396917Y-185383004D01*
X-123824375Y-116507500D02*
X-123824375Y-130787500D01*
X33337500Y-113537500D02*
X34115625Y-113537500D01*
X-118268750Y-113506250D02*
X-120824375Y-113507500D01*
D11*
X169257367Y-179765550D02*
X160738073Y-183738161D01*
X167797500Y-172612313D02*
X170079639Y-177506375D01*
X157019033Y-175762653D02*
X165538326Y-171790041D01*
X158478899Y-182915889D02*
X156196761Y-178021827D01*
X160738073Y-183738161D02*
G75*
G02X158478899Y-182915889I-718451J1540723D01*
G01*
X170079639Y-177506376D02*
G75*
G02X169257367Y-179765550I-1540723J-718451D01*
G01*
X165538326Y-171790041D02*
G75*
G02X167797500Y-172612313I718451J-1540723D01*
G01*
X156196761Y-178021827D02*
G75*
G02X157019033Y-175762653I1540723J718451D01*
G01*
X-87642181Y-183697401D02*
X-96161474Y-179724789D01*
X-83100868Y-177981067D02*
X-85383007Y-182875129D01*
X-92442433Y-171749281D02*
X-83923140Y-175721892D01*
X-96983746Y-177465615D02*
X-94701608Y-172571553D01*
X-96161474Y-179724789D02*
G75*
G02X-96983746Y-177465615I718451J1540723D01*
G01*
X-85383007Y-182875129D02*
G75*
G02X-87642181Y-183697401I-1540723J718451D01*
G01*
X-83923140Y-175721893D02*
G75*
G02X-83100868Y-177981067I-718451J-1540723D01*
G01*
X-94701607Y-172571553D02*
G75*
G02X-92442433Y-171749281I1540723J-718451D01*
G01*
D10*
X-101909375Y-114709375D02*
X-101909375Y-111484375D01*
X-93059375Y-115209375D02*
X-101409375Y-115209375D01*
X-92559375Y-111484375D02*
X-92559375Y-114709375D01*
X-101909375Y-114709375D02*
G75*
G03X-101409375Y-115209375I500000J0D01*
G01*
X-93059375Y-115209375D02*
G75*
G03X-92559375Y-114709375I0J500000D01*
G01*
X165584375Y-114709375D02*
X165584375Y-111484375D01*
X174434375Y-115209375D02*
X166084375Y-115209375D01*
X174934375Y-111484375D02*
X174934375Y-114709375D01*
X165584375Y-114709375D02*
G75*
G03X166084375Y-115209375I500000J0D01*
G01*
X174434375Y-115209375D02*
G75*
G03X174934375Y-114709375I0J500000D01*
G01*
X51612500Y-110787500D02*
X51612500Y-114117500D01*
X52412500Y-114917500D02*
X58712500Y-114917500D01*
X59512500Y-114117500D02*
X59512500Y-110787500D01*
X58712500Y-114917500D02*
G75*
G03X59512500Y-114117500I0J800000D01*
G01*
X51612500Y-114117500D02*
G75*
G03X52412500Y-114917500I800000J0D01*
G01*
X13512500Y-110787500D02*
X13512500Y-114117500D01*
X14312500Y-114917500D02*
X20612500Y-114917500D01*
X21412500Y-114117500D02*
X21412500Y-110787500D01*
X20612500Y-114917500D02*
G75*
G03X21412500Y-114117500I0J800000D01*
G01*
X13512500Y-114117500D02*
G75*
G03X14312500Y-114917500I800000J0D01*
G01*
G36*
X158152549Y-183078043D02*
G01*
X158201354Y-183083118D01*
X158249426Y-183092953D01*
X158296302Y-183107453D01*
X158341532Y-183126477D01*
X158384679Y-183149843D01*
X158425328Y-183177326D01*
X158463087Y-183208660D01*
X158497594Y-183243545D01*
X158528514Y-183281644D01*
X158555552Y-183322591D01*
X158578446Y-183365990D01*
X159212374Y-184725452D01*
X159230904Y-184770886D01*
X159244891Y-184817918D01*
X159254201Y-184866094D01*
X159258744Y-184914951D01*
X159258476Y-184964018D01*
X159253401Y-185012823D01*
X159243566Y-185060894D01*
X159229066Y-185107771D01*
X159210042Y-185153000D01*
X159186676Y-185196148D01*
X159159193Y-185236797D01*
X159127859Y-185274556D01*
X159092974Y-185309062D01*
X159054875Y-185339983D01*
X159013929Y-185367021D01*
X158970529Y-185389915D01*
X158064221Y-185812533D01*
X158018787Y-185831063D01*
X157971755Y-185845050D01*
X157923578Y-185854360D01*
X157874722Y-185858903D01*
X157825655Y-185858635D01*
X157776850Y-185853560D01*
X157728778Y-185843725D01*
X157681902Y-185829225D01*
X157636672Y-185810201D01*
X157593525Y-185786835D01*
X157552876Y-185759352D01*
X157515117Y-185728018D01*
X157480610Y-185693133D01*
X157449690Y-185655034D01*
X157422652Y-185614087D01*
X157399758Y-185570688D01*
X156765830Y-184211226D01*
X156747300Y-184165792D01*
X156733313Y-184118760D01*
X156724003Y-184070584D01*
X156719460Y-184021727D01*
X156719728Y-183972660D01*
X156724803Y-183923855D01*
X156734638Y-183875784D01*
X156749138Y-183828907D01*
X156768162Y-183783678D01*
X156791528Y-183740530D01*
X156819011Y-183699881D01*
X156850345Y-183662122D01*
X156885230Y-183627616D01*
X156923329Y-183596695D01*
X156964275Y-183569657D01*
X157007675Y-183546763D01*
X157913983Y-183124145D01*
X157959417Y-183105615D01*
X158006449Y-183091628D01*
X158054626Y-183082318D01*
X158103482Y-183077775D01*
X158152549Y-183078043D01*
G37*
G36*
X154856127Y-176008842D02*
G01*
X154904932Y-176013917D01*
X154953004Y-176023752D01*
X154999880Y-176038252D01*
X155045110Y-176057276D01*
X155088257Y-176080642D01*
X155128906Y-176108125D01*
X155166665Y-176139459D01*
X155201172Y-176174344D01*
X155232092Y-176212443D01*
X155259130Y-176253390D01*
X155282024Y-176296789D01*
X155915952Y-177656251D01*
X155934482Y-177701685D01*
X155948469Y-177748717D01*
X155957779Y-177796893D01*
X155962322Y-177845750D01*
X155962054Y-177894817D01*
X155956979Y-177943622D01*
X155947144Y-177991693D01*
X155932644Y-178038570D01*
X155913620Y-178083799D01*
X155890254Y-178126947D01*
X155862771Y-178167596D01*
X155831437Y-178205355D01*
X155796552Y-178239861D01*
X155758453Y-178270782D01*
X155717507Y-178297820D01*
X155674107Y-178320714D01*
X154767799Y-178743332D01*
X154722365Y-178761862D01*
X154675333Y-178775849D01*
X154627156Y-178785159D01*
X154578300Y-178789702D01*
X154529233Y-178789434D01*
X154480428Y-178784359D01*
X154432356Y-178774524D01*
X154385480Y-178760024D01*
X154340250Y-178741000D01*
X154297103Y-178717634D01*
X154256454Y-178690151D01*
X154218695Y-178658817D01*
X154184188Y-178623932D01*
X154153268Y-178585833D01*
X154126230Y-178544886D01*
X154103336Y-178501487D01*
X153469408Y-177142025D01*
X153450878Y-177096591D01*
X153436891Y-177049559D01*
X153427581Y-177001383D01*
X153423038Y-176952526D01*
X153423306Y-176903459D01*
X153428381Y-176854654D01*
X153438216Y-176806583D01*
X153452716Y-176759706D01*
X153471740Y-176714477D01*
X153495106Y-176671329D01*
X153522589Y-176630680D01*
X153553923Y-176592921D01*
X153588808Y-176558415D01*
X153626907Y-176527494D01*
X153667853Y-176500456D01*
X153711253Y-176477562D01*
X154617561Y-176054944D01*
X154662995Y-176036414D01*
X154710027Y-176022427D01*
X154758204Y-176013117D01*
X154807060Y-176008574D01*
X154856127Y-176008842D01*
G37*
G36*
X-98553350Y-176702283D02*
G01*
X-98505174Y-176711593D01*
X-98458142Y-176725580D01*
X-98412708Y-176744110D01*
X-97506400Y-177166728D01*
X-97463001Y-177189622D01*
X-97422054Y-177216660D01*
X-97383955Y-177247580D01*
X-97349070Y-177282087D01*
X-97317736Y-177319846D01*
X-97290253Y-177360495D01*
X-97266887Y-177403642D01*
X-97247863Y-177448872D01*
X-97233363Y-177495748D01*
X-97223528Y-177543820D01*
X-97218453Y-177592625D01*
X-97218185Y-177641692D01*
X-97222728Y-177690548D01*
X-97232038Y-177738725D01*
X-97246025Y-177785757D01*
X-97264555Y-177831191D01*
X-97898483Y-179190653D01*
X-97921377Y-179234053D01*
X-97948415Y-179274999D01*
X-97979336Y-179313098D01*
X-98013842Y-179347983D01*
X-98051601Y-179379317D01*
X-98092250Y-179406800D01*
X-98135398Y-179430166D01*
X-98180627Y-179449190D01*
X-98227504Y-179463690D01*
X-98275575Y-179473525D01*
X-98324380Y-179478600D01*
X-98373447Y-179478868D01*
X-98422304Y-179474325D01*
X-98470480Y-179465015D01*
X-98517512Y-179451028D01*
X-98562946Y-179432498D01*
X-99469254Y-179009880D01*
X-99512653Y-178986986D01*
X-99553600Y-178959948D01*
X-99591699Y-178929028D01*
X-99626584Y-178894521D01*
X-99657918Y-178856762D01*
X-99685401Y-178816113D01*
X-99708767Y-178772966D01*
X-99727791Y-178727736D01*
X-99742291Y-178680860D01*
X-99752126Y-178632788D01*
X-99757201Y-178583983D01*
X-99757469Y-178534916D01*
X-99752926Y-178486060D01*
X-99743616Y-178437883D01*
X-99729629Y-178390851D01*
X-99711099Y-178345417D01*
X-99077171Y-176985955D01*
X-99054277Y-176942555D01*
X-99027239Y-176901609D01*
X-98996318Y-176863510D01*
X-98961812Y-176828625D01*
X-98924053Y-176797291D01*
X-98883404Y-176769808D01*
X-98840256Y-176746442D01*
X-98795027Y-176727418D01*
X-98748150Y-176712918D01*
X-98700079Y-176703083D01*
X-98651274Y-176698008D01*
X-98602207Y-176697740D01*
X-98553350Y-176702283D01*
G37*
G36*
X-95256927Y-169633083D02*
G01*
X-95208751Y-169642393D01*
X-95161719Y-169656380D01*
X-95116285Y-169674910D01*
X-94209977Y-170097528D01*
X-94166578Y-170120422D01*
X-94125631Y-170147460D01*
X-94087532Y-170178380D01*
X-94052647Y-170212887D01*
X-94021313Y-170250646D01*
X-93993830Y-170291295D01*
X-93970464Y-170334442D01*
X-93951440Y-170379672D01*
X-93936940Y-170426548D01*
X-93927105Y-170474620D01*
X-93922030Y-170523425D01*
X-93921762Y-170572492D01*
X-93926305Y-170621348D01*
X-93935615Y-170669525D01*
X-93949602Y-170716557D01*
X-93968132Y-170761991D01*
X-94602060Y-172121453D01*
X-94624954Y-172164853D01*
X-94651992Y-172205799D01*
X-94682913Y-172243898D01*
X-94717419Y-172278783D01*
X-94755178Y-172310117D01*
X-94795827Y-172337600D01*
X-94838975Y-172360966D01*
X-94884204Y-172379990D01*
X-94931081Y-172394490D01*
X-94979152Y-172404325D01*
X-95027957Y-172409400D01*
X-95077024Y-172409668D01*
X-95125881Y-172405125D01*
X-95174057Y-172395815D01*
X-95221089Y-172381828D01*
X-95266523Y-172363298D01*
X-96172831Y-171940680D01*
X-96216230Y-171917786D01*
X-96257177Y-171890748D01*
X-96295276Y-171859828D01*
X-96330161Y-171825321D01*
X-96361495Y-171787562D01*
X-96388978Y-171746913D01*
X-96412344Y-171703766D01*
X-96431368Y-171658536D01*
X-96445868Y-171611660D01*
X-96455703Y-171563588D01*
X-96460778Y-171514783D01*
X-96461046Y-171465716D01*
X-96456503Y-171416860D01*
X-96447193Y-171368683D01*
X-96433206Y-171321651D01*
X-96414676Y-171276217D01*
X-95780748Y-169916755D01*
X-95757854Y-169873355D01*
X-95730816Y-169832409D01*
X-95699895Y-169794310D01*
X-95665389Y-169759425D01*
X-95627630Y-169728091D01*
X-95586981Y-169700608D01*
X-95543833Y-169677242D01*
X-95498604Y-169658218D01*
X-95451727Y-169643718D01*
X-95403656Y-169633883D01*
X-95354851Y-169628808D01*
X-95305784Y-169628540D01*
X-95256927Y-169633083D01*
G37*
D12*
X-78105000Y-180181250D03*
X-67945000Y-180181250D03*
D13*
X-76835000Y-177641250D03*
D14*
X-73025000Y-180181250D03*
D13*
X-70485000Y-175101250D03*
D15*
X-69215000Y-182721250D03*
X-75565000Y-185261250D03*
D12*
X60642500Y-199231250D03*
X50482500Y-199231250D03*
D13*
X59372500Y-201771250D03*
D14*
X55562500Y-199231250D03*
D13*
X53022500Y-204311250D03*
D15*
X51752500Y-196691250D03*
X58102500Y-194151250D03*
D12*
X-16192500Y-123031250D03*
X-6032500Y-123031250D03*
D13*
X-14922500Y-120491250D03*
D14*
X-11112500Y-123031250D03*
D13*
X-8572500Y-117951250D03*
D15*
X-7302500Y-125571250D03*
X-13652500Y-128111250D03*
D12*
X160020000Y-161131250D03*
X170180000Y-161131250D03*
D13*
X161290000Y-158591250D03*
D14*
X165100000Y-161131250D03*
D13*
X167640000Y-156051250D03*
D15*
X168910000Y-163671250D03*
X162560000Y-166211250D03*
D12*
X179070000Y-142081250D03*
X189230000Y-142081250D03*
D13*
X180340000Y-139541250D03*
D14*
X184150000Y-142081250D03*
D13*
X186690000Y-137001250D03*
D15*
X187960000Y-144621250D03*
X181610000Y-147161250D03*
D12*
X179070000Y-123031250D03*
X189230000Y-123031250D03*
D13*
X180340000Y-120491250D03*
D14*
X184150000Y-123031250D03*
D13*
X186690000Y-117951250D03*
D15*
X187960000Y-125571250D03*
X181610000Y-128111250D03*
D12*
X140970000Y-180181250D03*
X151130000Y-180181250D03*
D13*
X142240000Y-177641250D03*
D14*
X146050000Y-180181250D03*
D13*
X148590000Y-175101250D03*
D15*
X149860000Y-182721250D03*
X143510000Y-185261250D03*
D12*
X117157500Y-123031250D03*
X127317500Y-123031250D03*
D13*
X118427500Y-120491250D03*
D14*
X122237500Y-123031250D03*
D13*
X124777500Y-117951250D03*
D15*
X126047500Y-125571250D03*
X119697500Y-128111250D03*
D12*
X98107500Y-180181250D03*
X108267500Y-180181250D03*
D13*
X99377500Y-177641250D03*
D14*
X103187500Y-180181250D03*
D13*
X105727500Y-175101250D03*
D15*
X106997500Y-182721250D03*
X100647500Y-185261250D03*
D12*
X79057500Y-180181250D03*
X89217500Y-180181250D03*
D13*
X80327500Y-177641250D03*
D14*
X84137500Y-180181250D03*
D13*
X86677500Y-175101250D03*
D15*
X87947500Y-182721250D03*
X81597500Y-185261250D03*
D12*
X40957500Y-123031250D03*
X51117500Y-123031250D03*
D13*
X42227500Y-120491250D03*
D14*
X46037500Y-123031250D03*
D13*
X48577500Y-117951250D03*
D15*
X49847500Y-125571250D03*
X43497500Y-128111250D03*
D12*
X60007500Y-123031250D03*
X70167500Y-123031250D03*
D13*
X61277500Y-120491250D03*
D14*
X65087500Y-123031250D03*
D13*
X67627500Y-117951250D03*
D15*
X68897500Y-125571250D03*
X62547500Y-128111250D03*
D12*
X79057500Y-123031250D03*
X89217500Y-123031250D03*
D13*
X80327500Y-120491250D03*
D14*
X84137500Y-123031250D03*
D13*
X86677500Y-117951250D03*
D15*
X87947500Y-125571250D03*
X81597500Y-128111250D03*
D12*
X98107500Y-123031250D03*
X108267500Y-123031250D03*
D13*
X99377500Y-120491250D03*
D14*
X103187500Y-123031250D03*
D13*
X105727500Y-117951250D03*
D15*
X106997500Y-125571250D03*
X100647500Y-128111250D03*
D12*
X136207500Y-161131250D03*
X146367500Y-161131250D03*
D13*
X137477500Y-158591250D03*
D14*
X141287500Y-161131250D03*
D13*
X143827500Y-156051250D03*
D15*
X145097500Y-163671250D03*
X138747500Y-166211250D03*
D12*
X117157500Y-180181250D03*
X127317500Y-180181250D03*
D13*
X118427500Y-177641250D03*
D14*
X122237500Y-180181250D03*
D13*
X124777500Y-175101250D03*
D15*
X126047500Y-182721250D03*
X119697500Y-185261250D03*
D12*
X117157500Y-161131250D03*
X127317500Y-161131250D03*
D13*
X118427500Y-158591250D03*
D14*
X122237500Y-161131250D03*
D13*
X124777500Y-156051250D03*
D15*
X126047500Y-163671250D03*
X119697500Y-166211250D03*
D12*
X155257500Y-142081250D03*
X165417500Y-142081250D03*
D13*
X156527500Y-139541250D03*
D14*
X160337500Y-142081250D03*
D13*
X162877500Y-137001250D03*
D15*
X164147500Y-144621250D03*
X157797500Y-147161250D03*
D12*
X136207500Y-123031250D03*
X146367500Y-123031250D03*
D13*
X137477500Y-120491250D03*
D14*
X141287500Y-123031250D03*
D13*
X143827500Y-117951250D03*
D15*
X145097500Y-125571250D03*
X138747500Y-128111250D03*
D12*
X155257500Y-123031250D03*
X165417500Y-123031250D03*
D13*
X156527500Y-120491250D03*
D14*
X160337500Y-123031250D03*
D13*
X162877500Y-117951250D03*
D15*
X164147500Y-125571250D03*
X157797500Y-128111250D03*
D12*
X98107500Y-199231250D03*
X108267500Y-199231250D03*
D13*
X99377500Y-196691250D03*
D14*
X103187500Y-199231250D03*
D13*
X105727500Y-194151250D03*
D15*
X106997500Y-201771250D03*
X100647500Y-204311250D03*
D12*
X40957500Y-161131250D03*
X51117500Y-161131250D03*
D13*
X42227500Y-158591250D03*
D14*
X46037500Y-161131250D03*
D13*
X48577500Y-156051250D03*
D15*
X49847500Y-163671250D03*
X43497500Y-166211250D03*
D12*
X79057500Y-142081250D03*
X89217500Y-142081250D03*
D13*
X80327500Y-139541250D03*
D14*
X84137500Y-142081250D03*
D13*
X86677500Y-137001250D03*
D15*
X87947500Y-144621250D03*
X81597500Y-147161250D03*
D12*
X60007500Y-161131250D03*
X70167500Y-161131250D03*
D13*
X61277500Y-158591250D03*
D14*
X65087500Y-161131250D03*
D13*
X67627500Y-156051250D03*
D15*
X68897500Y-163671250D03*
X62547500Y-166211250D03*
D12*
X79057500Y-161131250D03*
X89217500Y-161131250D03*
D13*
X80327500Y-158591250D03*
D14*
X84137500Y-161131250D03*
D13*
X86677500Y-156051250D03*
D15*
X87947500Y-163671250D03*
X81597500Y-166211250D03*
D12*
X98107500Y-161131250D03*
X108267500Y-161131250D03*
D13*
X99377500Y-158591250D03*
D14*
X103187500Y-161131250D03*
D13*
X105727500Y-156051250D03*
D15*
X106997500Y-163671250D03*
X100647500Y-166211250D03*
D12*
X79057500Y-199231250D03*
X89217500Y-199231250D03*
D13*
X80327500Y-196691250D03*
D14*
X84137500Y-199231250D03*
D13*
X86677500Y-194151250D03*
D15*
X87947500Y-201771250D03*
X81597500Y-204311250D03*
D12*
X60007500Y-180181250D03*
X70167500Y-180181250D03*
D13*
X61277500Y-177641250D03*
D14*
X65087500Y-180181250D03*
D13*
X67627500Y-175101250D03*
D15*
X68897500Y-182721250D03*
X62547500Y-185261250D03*
D12*
X40957500Y-180181250D03*
X51117500Y-180181250D03*
D13*
X42227500Y-177641250D03*
D14*
X46037500Y-180181250D03*
D13*
X48577500Y-175101250D03*
D15*
X49847500Y-182721250D03*
X43497500Y-185261250D03*
D12*
X98107500Y-142081250D03*
X108267500Y-142081250D03*
D13*
X99377500Y-139541250D03*
D14*
X103187500Y-142081250D03*
D13*
X105727500Y-137001250D03*
D15*
X106997500Y-144621250D03*
X100647500Y-147161250D03*
D12*
X117157500Y-142081250D03*
X127317500Y-142081250D03*
D13*
X118427500Y-139541250D03*
D14*
X122237500Y-142081250D03*
D13*
X124777500Y-137001250D03*
D15*
X126047500Y-144621250D03*
X119697500Y-147161250D03*
D12*
X136207500Y-199231250D03*
X146367500Y-199231250D03*
D13*
X137477500Y-196691250D03*
D14*
X141287500Y-199231250D03*
D13*
X143827500Y-194151250D03*
D15*
X145097500Y-201771250D03*
X138747500Y-204311250D03*
D12*
X40957500Y-199231250D03*
X51117500Y-199231250D03*
D13*
X42227500Y-196691250D03*
D14*
X46037500Y-199231250D03*
D13*
X48577500Y-194151250D03*
D15*
X49847500Y-201771250D03*
X43497500Y-204311250D03*
D12*
X60007500Y-199231250D03*
X70167500Y-199231250D03*
D13*
X61277500Y-196691250D03*
D14*
X65087500Y-199231250D03*
D13*
X67627500Y-194151250D03*
D15*
X68897500Y-201771250D03*
X62547500Y-204311250D03*
D12*
X60007500Y-142081250D03*
X70167500Y-142081250D03*
D13*
X61277500Y-139541250D03*
D14*
X65087500Y-142081250D03*
D13*
X67627500Y-137001250D03*
D15*
X68897500Y-144621250D03*
X62547500Y-147161250D03*
D12*
X117157500Y-199231250D03*
X127317500Y-199231250D03*
D13*
X118427500Y-196691250D03*
D14*
X122237500Y-199231250D03*
D13*
X124777500Y-194151250D03*
D15*
X126047500Y-201771250D03*
X119697500Y-204311250D03*
D12*
X40957500Y-142081250D03*
X51117500Y-142081250D03*
D13*
X42227500Y-139541250D03*
D14*
X46037500Y-142081250D03*
D13*
X48577500Y-137001250D03*
D15*
X49847500Y-144621250D03*
X43497500Y-147161250D03*
D12*
X21907500Y-180181250D03*
X32067500Y-180181250D03*
D13*
X23177500Y-177641250D03*
D14*
X26987500Y-180181250D03*
D13*
X29527500Y-175101250D03*
D15*
X30797500Y-182721250D03*
X24447500Y-185261250D03*
D12*
X21907500Y-123031250D03*
X32067500Y-123031250D03*
D13*
X23177500Y-120491250D03*
D14*
X26987500Y-123031250D03*
D13*
X29527500Y-117951250D03*
D15*
X30797500Y-125571250D03*
X24447500Y-128111250D03*
D12*
X-78105000Y-142081250D03*
X-67945000Y-142081250D03*
D13*
X-76835000Y-139541250D03*
D14*
X-73025000Y-142081250D03*
D13*
X-70485000Y-137001250D03*
D15*
X-69215000Y-144621250D03*
X-75565000Y-147161250D03*
D12*
X-78105000Y-123031250D03*
X-67945000Y-123031250D03*
D13*
X-76835000Y-120491250D03*
D14*
X-73025000Y-123031250D03*
D13*
X-70485000Y-117951250D03*
D15*
X-69215000Y-125571250D03*
X-75565000Y-128111250D03*
D12*
X-54292500Y-180181250D03*
X-44132500Y-180181250D03*
D13*
X-53022500Y-177641250D03*
D14*
X-49212500Y-180181250D03*
D13*
X-46672500Y-175101250D03*
D15*
X-45402500Y-182721250D03*
X-51752500Y-185261250D03*
D12*
X-35242500Y-180181250D03*
X-25082500Y-180181250D03*
D13*
X-33972500Y-177641250D03*
D14*
X-30162500Y-180181250D03*
D13*
X-27622500Y-175101250D03*
D15*
X-26352500Y-182721250D03*
X-32702500Y-185261250D03*
D12*
X-35242500Y-142081250D03*
X-25082500Y-142081250D03*
D13*
X-33972500Y-139541250D03*
D14*
X-30162500Y-142081250D03*
D13*
X-27622500Y-137001250D03*
D15*
X-26352500Y-144621250D03*
X-32702500Y-147161250D03*
D12*
X2857500Y-180181250D03*
X13017500Y-180181250D03*
D13*
X4127500Y-177641250D03*
D14*
X7937500Y-180181250D03*
D13*
X10477500Y-175101250D03*
D15*
X11747500Y-182721250D03*
X5397500Y-185261250D03*
D12*
X21907500Y-142081250D03*
X32067500Y-142081250D03*
D13*
X23177500Y-139541250D03*
D14*
X26987500Y-142081250D03*
D13*
X29527500Y-137001250D03*
D15*
X30797500Y-144621250D03*
X24447500Y-147161250D03*
D12*
X22542500Y-199231250D03*
X12382500Y-199231250D03*
D13*
X21272500Y-201771250D03*
D14*
X17462500Y-199231250D03*
D13*
X14922500Y-204311250D03*
D15*
X13652500Y-196691250D03*
X20002500Y-194151250D03*
D12*
X21907500Y-199231250D03*
X32067500Y-199231250D03*
D13*
X23177500Y-196691250D03*
D14*
X26987500Y-199231250D03*
D13*
X29527500Y-194151250D03*
D15*
X30797500Y-201771250D03*
X24447500Y-204311250D03*
D12*
X2857500Y-199231250D03*
X13017500Y-199231250D03*
D13*
X4127500Y-196691250D03*
D14*
X7937500Y-199231250D03*
D13*
X10477500Y-194151250D03*
D15*
X11747500Y-201771250D03*
X5397500Y-204311250D03*
D12*
X-35242500Y-161131250D03*
X-25082500Y-161131250D03*
D13*
X-33972500Y-158591250D03*
D14*
X-30162500Y-161131250D03*
D13*
X-27622500Y-156051250D03*
D15*
X-26352500Y-163671250D03*
X-32702500Y-166211250D03*
D12*
X2857500Y-142081250D03*
X13017500Y-142081250D03*
D13*
X4127500Y-139541250D03*
D14*
X7937500Y-142081250D03*
D13*
X10477500Y-137001250D03*
D15*
X11747500Y-144621250D03*
X5397500Y-147161250D03*
D12*
X-54292500Y-142081250D03*
X-44132500Y-142081250D03*
D13*
X-53022500Y-139541250D03*
D14*
X-49212500Y-142081250D03*
D13*
X-46672500Y-137001250D03*
D15*
X-45402500Y-144621250D03*
X-51752500Y-147161250D03*
D12*
X21907500Y-161131250D03*
X32067500Y-161131250D03*
D13*
X23177500Y-158591250D03*
D14*
X26987500Y-161131250D03*
D13*
X29527500Y-156051250D03*
D15*
X30797500Y-163671250D03*
X24447500Y-166211250D03*
D12*
X-73342500Y-199231250D03*
X-63182500Y-199231250D03*
D13*
X-72072500Y-196691250D03*
D14*
X-68262500Y-199231250D03*
D13*
X-65722500Y-194151250D03*
D15*
X-64452500Y-201771250D03*
X-70802500Y-204311250D03*
D12*
X2857500Y-161131250D03*
X13017500Y-161131250D03*
D13*
X4127500Y-158591250D03*
D14*
X7937500Y-161131250D03*
D13*
X10477500Y-156051250D03*
D15*
X11747500Y-163671250D03*
X5397500Y-166211250D03*
D12*
X-16192500Y-142081250D03*
X-6032500Y-142081250D03*
D13*
X-14922500Y-139541250D03*
D14*
X-11112500Y-142081250D03*
D13*
X-8572500Y-137001250D03*
D15*
X-7302500Y-144621250D03*
X-13652500Y-147161250D03*
D12*
X-16192500Y-161131250D03*
X-6032500Y-161131250D03*
D13*
X-14922500Y-158591250D03*
D14*
X-11112500Y-161131250D03*
D13*
X-8572500Y-156051250D03*
D15*
X-7302500Y-163671250D03*
X-13652500Y-166211250D03*
D12*
X-54292500Y-199231250D03*
X-44132500Y-199231250D03*
D13*
X-53022500Y-196691250D03*
D14*
X-49212500Y-199231250D03*
D13*
X-46672500Y-194151250D03*
D15*
X-45402500Y-201771250D03*
X-51752500Y-204311250D03*
D12*
X-16192500Y-199231250D03*
X-6032500Y-199231250D03*
D13*
X-14922500Y-196691250D03*
D14*
X-11112500Y-199231250D03*
D13*
X-8572500Y-194151250D03*
D15*
X-7302500Y-201771250D03*
X-13652500Y-204311250D03*
D12*
X-16192500Y-180181250D03*
X-6032500Y-180181250D03*
D13*
X-14922500Y-177641250D03*
D14*
X-11112500Y-180181250D03*
D13*
X-8572500Y-175101250D03*
D15*
X-7302500Y-182721250D03*
X-13652500Y-185261250D03*
D12*
X-54292500Y-161131250D03*
X-44132500Y-161131250D03*
D13*
X-53022500Y-158591250D03*
D14*
X-49212500Y-161131250D03*
D13*
X-46672500Y-156051250D03*
D15*
X-45402500Y-163671250D03*
X-51752500Y-166211250D03*
D12*
X2857500Y-123031250D03*
X13017500Y-123031250D03*
D13*
X4127500Y-120491250D03*
D14*
X7937500Y-123031250D03*
D13*
X10477500Y-117951250D03*
D15*
X11747500Y-125571250D03*
X5397500Y-128111250D03*
D12*
X-35242500Y-123031250D03*
X-25082500Y-123031250D03*
D13*
X-33972500Y-120491250D03*
D14*
X-30162500Y-123031250D03*
D13*
X-27622500Y-117951250D03*
D15*
X-26352500Y-125571250D03*
X-32702500Y-128111250D03*
D12*
X-35242500Y-199231250D03*
X-25082500Y-199231250D03*
D13*
X-33972500Y-196691250D03*
D14*
X-30162500Y-199231250D03*
D13*
X-27622500Y-194151250D03*
D15*
X-26352500Y-201771250D03*
X-32702500Y-204311250D03*
D12*
X-54292500Y-123031250D03*
X-44132500Y-123031250D03*
D13*
X-53022500Y-120491250D03*
D14*
X-49212500Y-123031250D03*
D13*
X-46672500Y-117951250D03*
D15*
X-45402500Y-125571250D03*
X-51752500Y-128111250D03*
D12*
X-78105000Y-161131250D03*
X-67945000Y-161131250D03*
D13*
X-76835000Y-158591250D03*
D14*
X-73025000Y-161131250D03*
D13*
X-70485000Y-156051250D03*
D15*
X-69215000Y-163671250D03*
X-75565000Y-166211250D03*
D12*
X136207500Y-142081250D03*
X146367500Y-142081250D03*
D13*
X137477500Y-139541250D03*
D14*
X141287500Y-142081250D03*
D13*
X143827500Y-137001250D03*
D15*
X145097500Y-144621250D03*
X138747500Y-147161250D03*
D16*
X-102634375Y-112109375D03*
X-91834375Y-112109375D03*
D17*
X-102634375Y-115339375D03*
X-91834375Y-115339375D03*
D16*
X164859375Y-112109375D03*
X175659375Y-112109375D03*
D17*
X164859375Y-115339375D03*
X175659375Y-115339375D03*
D18*
X60512500Y-111367500D03*
X60512500Y-115367500D03*
X50612500Y-111367500D03*
X50612500Y-115367500D03*
X22412500Y-111367500D03*
X22412500Y-115367500D03*
X12512500Y-111367500D03*
X12512500Y-115367500D03*
D19*
X29362500Y-206216250D03*
X5562500Y-206216250D03*
D14*
X29362500Y-190976250D03*
X5562500Y-190976250D03*
D19*
X67462500Y-206216250D03*
X43662500Y-206216250D03*
D14*
X67462500Y-190976250D03*
X43662500Y-190976250D03*
D20*
X-114300000Y-167084375D03*
D10*
G36*
X-113911164Y-164463057D02*
G01*
X-113656103Y-164513792D01*
X-113407242Y-164589283D01*
X-113166979Y-164688803D01*
X-112937628Y-164811394D01*
X-112721397Y-164955875D01*
X-112520369Y-165120855D01*
X-112336480Y-165304744D01*
X-112171500Y-165505772D01*
X-112027019Y-165722003D01*
X-111904428Y-165951354D01*
X-111804908Y-166191617D01*
X-111729417Y-166440478D01*
X-111678682Y-166695539D01*
X-111653192Y-166954346D01*
X-111653192Y-167214404D01*
X-111678682Y-167473211D01*
X-111729417Y-167728272D01*
X-111804908Y-167977133D01*
X-111904428Y-168217396D01*
X-112027019Y-168446747D01*
X-112171500Y-168662978D01*
X-112336480Y-168864006D01*
X-112520369Y-169047895D01*
X-112721397Y-169212875D01*
X-112937628Y-169357356D01*
X-113166979Y-169479947D01*
X-113407242Y-169579467D01*
X-113656103Y-169654958D01*
X-113911164Y-169705693D01*
X-114169971Y-169731183D01*
X-114430029Y-169731183D01*
X-114688836Y-169705693D01*
X-114943897Y-169654958D01*
X-115192758Y-169579467D01*
X-115433021Y-169479947D01*
X-115662372Y-169357356D01*
X-115878603Y-169212875D01*
X-116079631Y-169047895D01*
X-116263520Y-168864006D01*
X-116428500Y-168662978D01*
X-116572981Y-168446747D01*
X-116695572Y-168217396D01*
X-116795092Y-167977133D01*
X-116870583Y-167728272D01*
X-116921318Y-167473211D01*
X-116946808Y-167214404D01*
X-116946808Y-167010773D01*
X-115798193Y-167010773D01*
X-115798193Y-167157977D01*
X-115783765Y-167304471D01*
X-115755047Y-167448845D01*
X-115712316Y-167589710D01*
X-115655984Y-167725708D01*
X-115586593Y-167855529D01*
X-115504811Y-167977924D01*
X-115411427Y-168091713D01*
X-115307338Y-168195802D01*
X-115193549Y-168289186D01*
X-115071154Y-168370968D01*
X-114941333Y-168440359D01*
X-114805335Y-168496691D01*
X-114664470Y-168539422D01*
X-114520096Y-168568140D01*
X-114373602Y-168582568D01*
X-114226398Y-168582568D01*
X-114079904Y-168568140D01*
X-113935530Y-168539422D01*
X-113794665Y-168496691D01*
X-113658667Y-168440359D01*
X-113528846Y-168370968D01*
X-113406451Y-168289186D01*
X-113292662Y-168195802D01*
X-113188573Y-168091713D01*
X-113095189Y-167977924D01*
X-113013407Y-167855529D01*
X-112944016Y-167725708D01*
X-112887684Y-167589710D01*
X-112844953Y-167448845D01*
X-112816235Y-167304471D01*
X-112801807Y-167157977D01*
X-112801807Y-167010773D01*
X-112816235Y-166864279D01*
X-112844953Y-166719905D01*
X-112887684Y-166579040D01*
X-112944016Y-166443042D01*
X-113013407Y-166313221D01*
X-113095189Y-166190826D01*
X-113188573Y-166077037D01*
X-113292662Y-165972948D01*
X-113406451Y-165879564D01*
X-113528846Y-165797782D01*
X-113658667Y-165728391D01*
X-113794665Y-165672059D01*
X-113935530Y-165629328D01*
X-114079904Y-165600610D01*
X-114226398Y-165586182D01*
X-114373602Y-165586182D01*
X-114520096Y-165600610D01*
X-114664470Y-165629328D01*
X-114805335Y-165672059D01*
X-114941333Y-165728391D01*
X-115071154Y-165797782D01*
X-115193549Y-165879564D01*
X-115307338Y-165972948D01*
X-115411427Y-166077037D01*
X-115504811Y-166190826D01*
X-115586593Y-166313221D01*
X-115655984Y-166443042D01*
X-115712316Y-166579040D01*
X-115755047Y-166719905D01*
X-115783765Y-166864279D01*
X-115798193Y-167010773D01*
X-116946808Y-167010773D01*
X-116946808Y-166954346D01*
X-116921318Y-166695539D01*
X-116870583Y-166440478D01*
X-116795092Y-166191617D01*
X-116695572Y-165951354D01*
X-116572981Y-165722003D01*
X-116428500Y-165505772D01*
X-116263520Y-165304744D01*
X-116079631Y-165120855D01*
X-115878603Y-164955875D01*
X-115662372Y-164811394D01*
X-115433021Y-164688803D01*
X-115192758Y-164589283D01*
X-114943897Y-164513792D01*
X-114688836Y-164463057D01*
X-114430029Y-164437567D01*
X-114169971Y-164437567D01*
X-113911164Y-164463057D01*
G37*
G36*
X75001336Y-129934932D02*
G01*
X75256397Y-129985667D01*
X75505258Y-130061158D01*
X75745521Y-130160678D01*
X75974872Y-130283269D01*
X76191103Y-130427750D01*
X76392131Y-130592730D01*
X76576020Y-130776619D01*
X76741000Y-130977647D01*
X76885481Y-131193878D01*
X77008072Y-131423229D01*
X77107592Y-131663492D01*
X77183083Y-131912353D01*
X77233818Y-132167414D01*
X77259308Y-132426221D01*
X77259308Y-132686279D01*
X77233818Y-132945086D01*
X77183083Y-133200147D01*
X77107592Y-133449008D01*
X77008072Y-133689271D01*
X76885481Y-133918622D01*
X76741000Y-134134853D01*
X76576020Y-134335881D01*
X76392131Y-134519770D01*
X76191103Y-134684750D01*
X75974872Y-134829231D01*
X75745521Y-134951822D01*
X75505258Y-135051342D01*
X75256397Y-135126833D01*
X75001336Y-135177568D01*
X74742529Y-135203058D01*
X74482471Y-135203058D01*
X74223664Y-135177568D01*
X73968603Y-135126833D01*
X73719742Y-135051342D01*
X73479479Y-134951822D01*
X73250128Y-134829231D01*
X73033897Y-134684750D01*
X72832869Y-134519770D01*
X72648980Y-134335881D01*
X72484000Y-134134853D01*
X72339519Y-133918622D01*
X72216928Y-133689271D01*
X72117408Y-133449008D01*
X72041917Y-133200147D01*
X71991182Y-132945086D01*
X71965692Y-132686279D01*
X71965692Y-132482648D01*
X73114307Y-132482648D01*
X73114307Y-132629852D01*
X73128735Y-132776346D01*
X73157453Y-132920720D01*
X73200184Y-133061585D01*
X73256516Y-133197583D01*
X73325907Y-133327404D01*
X73407689Y-133449799D01*
X73501073Y-133563588D01*
X73605162Y-133667677D01*
X73718951Y-133761061D01*
X73841346Y-133842843D01*
X73971167Y-133912234D01*
X74107165Y-133968566D01*
X74248030Y-134011297D01*
X74392404Y-134040015D01*
X74538898Y-134054443D01*
X74686102Y-134054443D01*
X74832596Y-134040015D01*
X74976970Y-134011297D01*
X75117835Y-133968566D01*
X75253833Y-133912234D01*
X75383654Y-133842843D01*
X75506049Y-133761061D01*
X75619838Y-133667677D01*
X75723927Y-133563588D01*
X75817311Y-133449799D01*
X75899093Y-133327404D01*
X75968484Y-133197583D01*
X76024816Y-133061585D01*
X76067547Y-132920720D01*
X76096265Y-132776346D01*
X76110693Y-132629852D01*
X76110693Y-132482648D01*
X76096265Y-132336154D01*
X76067547Y-132191780D01*
X76024816Y-132050915D01*
X75968484Y-131914917D01*
X75899093Y-131785096D01*
X75817311Y-131662701D01*
X75723927Y-131548912D01*
X75619838Y-131444823D01*
X75506049Y-131351439D01*
X75383654Y-131269657D01*
X75253833Y-131200266D01*
X75117835Y-131143934D01*
X74976970Y-131101203D01*
X74832596Y-131072485D01*
X74686102Y-131058057D01*
X74538898Y-131058057D01*
X74392404Y-131072485D01*
X74248030Y-131101203D01*
X74107165Y-131143934D01*
X73971167Y-131200266D01*
X73841346Y-131269657D01*
X73718951Y-131351439D01*
X73605162Y-131444823D01*
X73501073Y-131548912D01*
X73407689Y-131662701D01*
X73325907Y-131785096D01*
X73256516Y-131914917D01*
X73200184Y-132050915D01*
X73157453Y-132191780D01*
X73128735Y-132336154D01*
X73114307Y-132482648D01*
X71965692Y-132482648D01*
X71965692Y-132426221D01*
X71991182Y-132167414D01*
X72041917Y-131912353D01*
X72117408Y-131663492D01*
X72216928Y-131423229D01*
X72339519Y-131193878D01*
X72484000Y-130977647D01*
X72648980Y-130776619D01*
X72832869Y-130592730D01*
X73033897Y-130427750D01*
X73250128Y-130283269D01*
X73479479Y-130160678D01*
X73719742Y-130061158D01*
X73968603Y-129985667D01*
X74223664Y-129934932D01*
X74482471Y-129909442D01*
X74742529Y-129909442D01*
X75001336Y-129934932D01*
G37*
D20*
X74612500Y-132556250D03*
D10*
G36*
X-1198664Y-129934932D02*
G01*
X-943603Y-129985667D01*
X-694742Y-130061158D01*
X-454479Y-130160678D01*
X-225128Y-130283269D01*
X-8897Y-130427750D01*
X192131Y-130592730D01*
X376020Y-130776619D01*
X541000Y-130977647D01*
X685481Y-131193878D01*
X808072Y-131423229D01*
X907592Y-131663492D01*
X983083Y-131912353D01*
X1033818Y-132167414D01*
X1059308Y-132426221D01*
X1059308Y-132686279D01*
X1033818Y-132945086D01*
X983083Y-133200147D01*
X907592Y-133449008D01*
X808072Y-133689271D01*
X685481Y-133918622D01*
X541000Y-134134853D01*
X376020Y-134335881D01*
X192131Y-134519770D01*
X-8897Y-134684750D01*
X-225128Y-134829231D01*
X-454479Y-134951822D01*
X-694742Y-135051342D01*
X-943603Y-135126833D01*
X-1198664Y-135177568D01*
X-1457471Y-135203058D01*
X-1717529Y-135203058D01*
X-1976336Y-135177568D01*
X-2231397Y-135126833D01*
X-2480258Y-135051342D01*
X-2720521Y-134951822D01*
X-2949872Y-134829231D01*
X-3166103Y-134684750D01*
X-3367131Y-134519770D01*
X-3551020Y-134335881D01*
X-3716000Y-134134853D01*
X-3860481Y-133918622D01*
X-3983072Y-133689271D01*
X-4082592Y-133449008D01*
X-4158083Y-133200147D01*
X-4208818Y-132945086D01*
X-4234308Y-132686279D01*
X-4234308Y-132482648D01*
X-3085693Y-132482648D01*
X-3085693Y-132629852D01*
X-3071265Y-132776346D01*
X-3042547Y-132920720D01*
X-2999816Y-133061585D01*
X-2943484Y-133197583D01*
X-2874093Y-133327404D01*
X-2792311Y-133449799D01*
X-2698927Y-133563588D01*
X-2594838Y-133667677D01*
X-2481049Y-133761061D01*
X-2358654Y-133842843D01*
X-2228833Y-133912234D01*
X-2092835Y-133968566D01*
X-1951970Y-134011297D01*
X-1807596Y-134040015D01*
X-1661102Y-134054443D01*
X-1513898Y-134054443D01*
X-1367404Y-134040015D01*
X-1223030Y-134011297D01*
X-1082165Y-133968566D01*
X-946167Y-133912234D01*
X-816346Y-133842843D01*
X-693951Y-133761061D01*
X-580162Y-133667677D01*
X-476073Y-133563588D01*
X-382689Y-133449799D01*
X-300907Y-133327404D01*
X-231516Y-133197583D01*
X-175184Y-133061585D01*
X-132453Y-132920720D01*
X-103735Y-132776346D01*
X-89307Y-132629852D01*
X-89307Y-132482648D01*
X-103735Y-132336154D01*
X-132453Y-132191780D01*
X-175184Y-132050915D01*
X-231516Y-131914917D01*
X-300907Y-131785096D01*
X-382689Y-131662701D01*
X-476073Y-131548912D01*
X-580162Y-131444823D01*
X-693951Y-131351439D01*
X-816346Y-131269657D01*
X-946167Y-131200266D01*
X-1082165Y-131143934D01*
X-1223030Y-131101203D01*
X-1367404Y-131072485D01*
X-1513898Y-131058057D01*
X-1661102Y-131058057D01*
X-1807596Y-131072485D01*
X-1951970Y-131101203D01*
X-2092835Y-131143934D01*
X-2228833Y-131200266D01*
X-2358654Y-131269657D01*
X-2481049Y-131351439D01*
X-2594838Y-131444823D01*
X-2698927Y-131548912D01*
X-2792311Y-131662701D01*
X-2874093Y-131785096D01*
X-2943484Y-131914917D01*
X-2999816Y-132050915D01*
X-3042547Y-132191780D01*
X-3071265Y-132336154D01*
X-3085693Y-132482648D01*
X-4234308Y-132482648D01*
X-4234308Y-132426221D01*
X-4208818Y-132167414D01*
X-4158083Y-131912353D01*
X-4082592Y-131663492D01*
X-3983072Y-131423229D01*
X-3860481Y-131193878D01*
X-3716000Y-130977647D01*
X-3551020Y-130776619D01*
X-3367131Y-130592730D01*
X-3166103Y-130427750D01*
X-2949872Y-130283269D01*
X-2720521Y-130160678D01*
X-2480258Y-130061158D01*
X-2231397Y-129985667D01*
X-1976336Y-129934932D01*
X-1717529Y-129909442D01*
X-1457471Y-129909442D01*
X-1198664Y-129934932D01*
G37*
D20*
X-1587500Y-132556250D03*
X-119062500Y-138509375D03*
D10*
G36*
X-118673664Y-135888057D02*
G01*
X-118418603Y-135938792D01*
X-118169742Y-136014283D01*
X-117929479Y-136113803D01*
X-117700128Y-136236394D01*
X-117483897Y-136380875D01*
X-117282869Y-136545855D01*
X-117098980Y-136729744D01*
X-116934000Y-136930772D01*
X-116789519Y-137147003D01*
X-116666928Y-137376354D01*
X-116567408Y-137616617D01*
X-116491917Y-137865478D01*
X-116441182Y-138120539D01*
X-116415692Y-138379346D01*
X-116415692Y-138639404D01*
X-116441182Y-138898211D01*
X-116491917Y-139153272D01*
X-116567408Y-139402133D01*
X-116666928Y-139642396D01*
X-116789519Y-139871747D01*
X-116934000Y-140087978D01*
X-117098980Y-140289006D01*
X-117282869Y-140472895D01*
X-117483897Y-140637875D01*
X-117700128Y-140782356D01*
X-117929479Y-140904947D01*
X-118169742Y-141004467D01*
X-118418603Y-141079958D01*
X-118673664Y-141130693D01*
X-118932471Y-141156183D01*
X-119192529Y-141156183D01*
X-119451336Y-141130693D01*
X-119706397Y-141079958D01*
X-119955258Y-141004467D01*
X-120195521Y-140904947D01*
X-120424872Y-140782356D01*
X-120641103Y-140637875D01*
X-120842131Y-140472895D01*
X-121026020Y-140289006D01*
X-121191000Y-140087978D01*
X-121335481Y-139871747D01*
X-121458072Y-139642396D01*
X-121557592Y-139402133D01*
X-121633083Y-139153272D01*
X-121683818Y-138898211D01*
X-121709308Y-138639404D01*
X-121709308Y-138435773D01*
X-120560693Y-138435773D01*
X-120560693Y-138582977D01*
X-120546265Y-138729471D01*
X-120517547Y-138873845D01*
X-120474816Y-139014710D01*
X-120418484Y-139150708D01*
X-120349093Y-139280529D01*
X-120267311Y-139402924D01*
X-120173927Y-139516713D01*
X-120069838Y-139620802D01*
X-119956049Y-139714186D01*
X-119833654Y-139795968D01*
X-119703833Y-139865359D01*
X-119567835Y-139921691D01*
X-119426970Y-139964422D01*
X-119282596Y-139993140D01*
X-119136102Y-140007568D01*
X-118988898Y-140007568D01*
X-118842404Y-139993140D01*
X-118698030Y-139964422D01*
X-118557165Y-139921691D01*
X-118421167Y-139865359D01*
X-118291346Y-139795968D01*
X-118168951Y-139714186D01*
X-118055162Y-139620802D01*
X-117951073Y-139516713D01*
X-117857689Y-139402924D01*
X-117775907Y-139280529D01*
X-117706516Y-139150708D01*
X-117650184Y-139014710D01*
X-117607453Y-138873845D01*
X-117578735Y-138729471D01*
X-117564307Y-138582977D01*
X-117564307Y-138435773D01*
X-117578735Y-138289279D01*
X-117607453Y-138144905D01*
X-117650184Y-138004040D01*
X-117706516Y-137868042D01*
X-117775907Y-137738221D01*
X-117857689Y-137615826D01*
X-117951073Y-137502037D01*
X-118055162Y-137397948D01*
X-118168951Y-137304564D01*
X-118291346Y-137222782D01*
X-118421167Y-137153391D01*
X-118557165Y-137097059D01*
X-118698030Y-137054328D01*
X-118842404Y-137025610D01*
X-118988898Y-137011182D01*
X-119136102Y-137011182D01*
X-119282596Y-137025610D01*
X-119426970Y-137054328D01*
X-119567835Y-137097059D01*
X-119703833Y-137153391D01*
X-119833654Y-137222782D01*
X-119956049Y-137304564D01*
X-120069838Y-137397948D01*
X-120173927Y-137502037D01*
X-120267311Y-137615826D01*
X-120349093Y-137738221D01*
X-120418484Y-137868042D01*
X-120474816Y-138004040D01*
X-120517547Y-138144905D01*
X-120546265Y-138289279D01*
X-120560693Y-138435773D01*
X-121709308Y-138435773D01*
X-121709308Y-138379346D01*
X-121683818Y-138120539D01*
X-121633083Y-137865478D01*
X-121557592Y-137616617D01*
X-121458072Y-137376354D01*
X-121335481Y-137147003D01*
X-121191000Y-136930772D01*
X-121026020Y-136729744D01*
X-120842131Y-136545855D01*
X-120641103Y-136380875D01*
X-120424872Y-136236394D01*
X-120195521Y-136113803D01*
X-119955258Y-136014283D01*
X-119706397Y-135938792D01*
X-119451336Y-135888057D01*
X-119192529Y-135862567D01*
X-118932471Y-135862567D01*
X-118673664Y-135888057D01*
G37*
G36*
X-1198664Y-187084932D02*
G01*
X-943603Y-187135667D01*
X-694742Y-187211158D01*
X-454479Y-187310678D01*
X-225128Y-187433269D01*
X-8897Y-187577750D01*
X192131Y-187742730D01*
X376020Y-187926619D01*
X541000Y-188127647D01*
X685481Y-188343878D01*
X808072Y-188573229D01*
X907592Y-188813492D01*
X983083Y-189062353D01*
X1033818Y-189317414D01*
X1059308Y-189576221D01*
X1059308Y-189836279D01*
X1033818Y-190095086D01*
X983083Y-190350147D01*
X907592Y-190599008D01*
X808072Y-190839271D01*
X685481Y-191068622D01*
X541000Y-191284853D01*
X376020Y-191485881D01*
X192131Y-191669770D01*
X-8897Y-191834750D01*
X-225128Y-191979231D01*
X-454479Y-192101822D01*
X-694742Y-192201342D01*
X-943603Y-192276833D01*
X-1198664Y-192327568D01*
X-1457471Y-192353058D01*
X-1717529Y-192353058D01*
X-1976336Y-192327568D01*
X-2231397Y-192276833D01*
X-2480258Y-192201342D01*
X-2720521Y-192101822D01*
X-2949872Y-191979231D01*
X-3166103Y-191834750D01*
X-3367131Y-191669770D01*
X-3551020Y-191485881D01*
X-3716000Y-191284853D01*
X-3860481Y-191068622D01*
X-3983072Y-190839271D01*
X-4082592Y-190599008D01*
X-4158083Y-190350147D01*
X-4208818Y-190095086D01*
X-4234308Y-189836279D01*
X-4234308Y-189632648D01*
X-3085693Y-189632648D01*
X-3085693Y-189779852D01*
X-3071265Y-189926346D01*
X-3042547Y-190070720D01*
X-2999816Y-190211585D01*
X-2943484Y-190347583D01*
X-2874093Y-190477404D01*
X-2792311Y-190599799D01*
X-2698927Y-190713588D01*
X-2594838Y-190817677D01*
X-2481049Y-190911061D01*
X-2358654Y-190992843D01*
X-2228833Y-191062234D01*
X-2092835Y-191118566D01*
X-1951970Y-191161297D01*
X-1807596Y-191190015D01*
X-1661102Y-191204443D01*
X-1513898Y-191204443D01*
X-1367404Y-191190015D01*
X-1223030Y-191161297D01*
X-1082165Y-191118566D01*
X-946167Y-191062234D01*
X-816346Y-190992843D01*
X-693951Y-190911061D01*
X-580162Y-190817677D01*
X-476073Y-190713588D01*
X-382689Y-190599799D01*
X-300907Y-190477404D01*
X-231516Y-190347583D01*
X-175184Y-190211585D01*
X-132453Y-190070720D01*
X-103735Y-189926346D01*
X-89307Y-189779852D01*
X-89307Y-189632648D01*
X-103735Y-189486154D01*
X-132453Y-189341780D01*
X-175184Y-189200915D01*
X-231516Y-189064917D01*
X-300907Y-188935096D01*
X-382689Y-188812701D01*
X-476073Y-188698912D01*
X-580162Y-188594823D01*
X-693951Y-188501439D01*
X-816346Y-188419657D01*
X-946167Y-188350266D01*
X-1082165Y-188293934D01*
X-1223030Y-188251203D01*
X-1367404Y-188222485D01*
X-1513898Y-188208057D01*
X-1661102Y-188208057D01*
X-1807596Y-188222485D01*
X-1951970Y-188251203D01*
X-2092835Y-188293934D01*
X-2228833Y-188350266D01*
X-2358654Y-188419657D01*
X-2481049Y-188501439D01*
X-2594838Y-188594823D01*
X-2698927Y-188698912D01*
X-2792311Y-188812701D01*
X-2874093Y-188935096D01*
X-2943484Y-189064917D01*
X-2999816Y-189200915D01*
X-3042547Y-189341780D01*
X-3071265Y-189486154D01*
X-3085693Y-189632648D01*
X-4234308Y-189632648D01*
X-4234308Y-189576221D01*
X-4208818Y-189317414D01*
X-4158083Y-189062353D01*
X-4082592Y-188813492D01*
X-3983072Y-188573229D01*
X-3860481Y-188343878D01*
X-3716000Y-188127647D01*
X-3551020Y-187926619D01*
X-3367131Y-187742730D01*
X-3166103Y-187577750D01*
X-2949872Y-187433269D01*
X-2720521Y-187310678D01*
X-2480258Y-187211158D01*
X-2231397Y-187135667D01*
X-1976336Y-187084932D01*
X-1717529Y-187059442D01*
X-1457471Y-187059442D01*
X-1198664Y-187084932D01*
G37*
D20*
X-1587500Y-189706250D03*
D10*
G36*
X75001336Y-187084932D02*
G01*
X75256397Y-187135667D01*
X75505258Y-187211158D01*
X75745521Y-187310678D01*
X75974872Y-187433269D01*
X76191103Y-187577750D01*
X76392131Y-187742730D01*
X76576020Y-187926619D01*
X76741000Y-188127647D01*
X76885481Y-188343878D01*
X77008072Y-188573229D01*
X77107592Y-188813492D01*
X77183083Y-189062353D01*
X77233818Y-189317414D01*
X77259308Y-189576221D01*
X77259308Y-189836279D01*
X77233818Y-190095086D01*
X77183083Y-190350147D01*
X77107592Y-190599008D01*
X77008072Y-190839271D01*
X76885481Y-191068622D01*
X76741000Y-191284853D01*
X76576020Y-191485881D01*
X76392131Y-191669770D01*
X76191103Y-191834750D01*
X75974872Y-191979231D01*
X75745521Y-192101822D01*
X75505258Y-192201342D01*
X75256397Y-192276833D01*
X75001336Y-192327568D01*
X74742529Y-192353058D01*
X74482471Y-192353058D01*
X74223664Y-192327568D01*
X73968603Y-192276833D01*
X73719742Y-192201342D01*
X73479479Y-192101822D01*
X73250128Y-191979231D01*
X73033897Y-191834750D01*
X72832869Y-191669770D01*
X72648980Y-191485881D01*
X72484000Y-191284853D01*
X72339519Y-191068622D01*
X72216928Y-190839271D01*
X72117408Y-190599008D01*
X72041917Y-190350147D01*
X71991182Y-190095086D01*
X71965692Y-189836279D01*
X71965692Y-189632648D01*
X73114307Y-189632648D01*
X73114307Y-189779852D01*
X73128735Y-189926346D01*
X73157453Y-190070720D01*
X73200184Y-190211585D01*
X73256516Y-190347583D01*
X73325907Y-190477404D01*
X73407689Y-190599799D01*
X73501073Y-190713588D01*
X73605162Y-190817677D01*
X73718951Y-190911061D01*
X73841346Y-190992843D01*
X73971167Y-191062234D01*
X74107165Y-191118566D01*
X74248030Y-191161297D01*
X74392404Y-191190015D01*
X74538898Y-191204443D01*
X74686102Y-191204443D01*
X74832596Y-191190015D01*
X74976970Y-191161297D01*
X75117835Y-191118566D01*
X75253833Y-191062234D01*
X75383654Y-190992843D01*
X75506049Y-190911061D01*
X75619838Y-190817677D01*
X75723927Y-190713588D01*
X75817311Y-190599799D01*
X75899093Y-190477404D01*
X75968484Y-190347583D01*
X76024816Y-190211585D01*
X76067547Y-190070720D01*
X76096265Y-189926346D01*
X76110693Y-189779852D01*
X76110693Y-189632648D01*
X76096265Y-189486154D01*
X76067547Y-189341780D01*
X76024816Y-189200915D01*
X75968484Y-189064917D01*
X75899093Y-188935096D01*
X75817311Y-188812701D01*
X75723927Y-188698912D01*
X75619838Y-188594823D01*
X75506049Y-188501439D01*
X75383654Y-188419657D01*
X75253833Y-188350266D01*
X75117835Y-188293934D01*
X74976970Y-188251203D01*
X74832596Y-188222485D01*
X74686102Y-188208057D01*
X74538898Y-188208057D01*
X74392404Y-188222485D01*
X74248030Y-188251203D01*
X74107165Y-188293934D01*
X73971167Y-188350266D01*
X73841346Y-188419657D01*
X73718951Y-188501439D01*
X73605162Y-188594823D01*
X73501073Y-188698912D01*
X73407689Y-188812701D01*
X73325907Y-188935096D01*
X73256516Y-189064917D01*
X73200184Y-189200915D01*
X73157453Y-189341780D01*
X73128735Y-189486154D01*
X73114307Y-189632648D01*
X71965692Y-189632648D01*
X71965692Y-189576221D01*
X71991182Y-189317414D01*
X72041917Y-189062353D01*
X72117408Y-188813492D01*
X72216928Y-188573229D01*
X72339519Y-188343878D01*
X72484000Y-188127647D01*
X72648980Y-187926619D01*
X72832869Y-187742730D01*
X73033897Y-187577750D01*
X73250128Y-187433269D01*
X73479479Y-187310678D01*
X73719742Y-187211158D01*
X73968603Y-187135667D01*
X74223664Y-187084932D01*
X74482471Y-187059442D01*
X74742529Y-187059442D01*
X75001336Y-187084932D01*
G37*
D20*
X74612500Y-189706250D03*
D10*
G36*
X187316961Y-172003682D02*
G01*
X187572022Y-172054417D01*
X187820883Y-172129908D01*
X188061146Y-172229428D01*
X188290497Y-172352019D01*
X188506728Y-172496500D01*
X188707756Y-172661480D01*
X188891645Y-172845369D01*
X189056625Y-173046397D01*
X189201106Y-173262628D01*
X189323697Y-173491979D01*
X189423217Y-173732242D01*
X189498708Y-173981103D01*
X189549443Y-174236164D01*
X189574933Y-174494971D01*
X189574933Y-174755029D01*
X189549443Y-175013836D01*
X189498708Y-175268897D01*
X189423217Y-175517758D01*
X189323697Y-175758021D01*
X189201106Y-175987372D01*
X189056625Y-176203603D01*
X188891645Y-176404631D01*
X188707756Y-176588520D01*
X188506728Y-176753500D01*
X188290497Y-176897981D01*
X188061146Y-177020572D01*
X187820883Y-177120092D01*
X187572022Y-177195583D01*
X187316961Y-177246318D01*
X187058154Y-177271808D01*
X186798096Y-177271808D01*
X186539289Y-177246318D01*
X186284228Y-177195583D01*
X186035367Y-177120092D01*
X185795104Y-177020572D01*
X185565753Y-176897981D01*
X185349522Y-176753500D01*
X185148494Y-176588520D01*
X184964605Y-176404631D01*
X184799625Y-176203603D01*
X184655144Y-175987372D01*
X184532553Y-175758021D01*
X184433033Y-175517758D01*
X184357542Y-175268897D01*
X184306807Y-175013836D01*
X184281317Y-174755029D01*
X184281317Y-174551398D01*
X185429932Y-174551398D01*
X185429932Y-174698602D01*
X185444360Y-174845096D01*
X185473078Y-174989470D01*
X185515809Y-175130335D01*
X185572141Y-175266333D01*
X185641532Y-175396154D01*
X185723314Y-175518549D01*
X185816698Y-175632338D01*
X185920787Y-175736427D01*
X186034576Y-175829811D01*
X186156971Y-175911593D01*
X186286792Y-175980984D01*
X186422790Y-176037316D01*
X186563655Y-176080047D01*
X186708029Y-176108765D01*
X186854523Y-176123193D01*
X187001727Y-176123193D01*
X187148221Y-176108765D01*
X187292595Y-176080047D01*
X187433460Y-176037316D01*
X187569458Y-175980984D01*
X187699279Y-175911593D01*
X187821674Y-175829811D01*
X187935463Y-175736427D01*
X188039552Y-175632338D01*
X188132936Y-175518549D01*
X188214718Y-175396154D01*
X188284109Y-175266333D01*
X188340441Y-175130335D01*
X188383172Y-174989470D01*
X188411890Y-174845096D01*
X188426318Y-174698602D01*
X188426318Y-174551398D01*
X188411890Y-174404904D01*
X188383172Y-174260530D01*
X188340441Y-174119665D01*
X188284109Y-173983667D01*
X188214718Y-173853846D01*
X188132936Y-173731451D01*
X188039552Y-173617662D01*
X187935463Y-173513573D01*
X187821674Y-173420189D01*
X187699279Y-173338407D01*
X187569458Y-173269016D01*
X187433460Y-173212684D01*
X187292595Y-173169953D01*
X187148221Y-173141235D01*
X187001727Y-173126807D01*
X186854523Y-173126807D01*
X186708029Y-173141235D01*
X186563655Y-173169953D01*
X186422790Y-173212684D01*
X186286792Y-173269016D01*
X186156971Y-173338407D01*
X186034576Y-173420189D01*
X185920787Y-173513573D01*
X185816698Y-173617662D01*
X185723314Y-173731451D01*
X185641532Y-173853846D01*
X185572141Y-173983667D01*
X185515809Y-174119665D01*
X185473078Y-174260530D01*
X185444360Y-174404904D01*
X185429932Y-174551398D01*
X184281317Y-174551398D01*
X184281317Y-174494971D01*
X184306807Y-174236164D01*
X184357542Y-173981103D01*
X184433033Y-173732242D01*
X184532553Y-173491979D01*
X184655144Y-173262628D01*
X184799625Y-173046397D01*
X184964605Y-172845369D01*
X185148494Y-172661480D01*
X185349522Y-172496500D01*
X185565753Y-172352019D01*
X185795104Y-172229428D01*
X186035367Y-172129908D01*
X186284228Y-172054417D01*
X186539289Y-172003682D01*
X186798096Y-171978192D01*
X187058154Y-171978192D01*
X187316961Y-172003682D01*
G37*
D20*
X186928125Y-174625000D03*
D10*
G36*
X194063836Y-129934932D02*
G01*
X194318897Y-129985667D01*
X194567758Y-130061158D01*
X194808021Y-130160678D01*
X195037372Y-130283269D01*
X195253603Y-130427750D01*
X195454631Y-130592730D01*
X195638520Y-130776619D01*
X195803500Y-130977647D01*
X195947981Y-131193878D01*
X196070572Y-131423229D01*
X196170092Y-131663492D01*
X196245583Y-131912353D01*
X196296318Y-132167414D01*
X196321808Y-132426221D01*
X196321808Y-132686279D01*
X196296318Y-132945086D01*
X196245583Y-133200147D01*
X196170092Y-133449008D01*
X196070572Y-133689271D01*
X195947981Y-133918622D01*
X195803500Y-134134853D01*
X195638520Y-134335881D01*
X195454631Y-134519770D01*
X195253603Y-134684750D01*
X195037372Y-134829231D01*
X194808021Y-134951822D01*
X194567758Y-135051342D01*
X194318897Y-135126833D01*
X194063836Y-135177568D01*
X193805029Y-135203058D01*
X193544971Y-135203058D01*
X193286164Y-135177568D01*
X193031103Y-135126833D01*
X192782242Y-135051342D01*
X192541979Y-134951822D01*
X192312628Y-134829231D01*
X192096397Y-134684750D01*
X191895369Y-134519770D01*
X191711480Y-134335881D01*
X191546500Y-134134853D01*
X191402019Y-133918622D01*
X191279428Y-133689271D01*
X191179908Y-133449008D01*
X191104417Y-133200147D01*
X191053682Y-132945086D01*
X191028192Y-132686279D01*
X191028192Y-132482648D01*
X192176807Y-132482648D01*
X192176807Y-132629852D01*
X192191235Y-132776346D01*
X192219953Y-132920720D01*
X192262684Y-133061585D01*
X192319016Y-133197583D01*
X192388407Y-133327404D01*
X192470189Y-133449799D01*
X192563573Y-133563588D01*
X192667662Y-133667677D01*
X192781451Y-133761061D01*
X192903846Y-133842843D01*
X193033667Y-133912234D01*
X193169665Y-133968566D01*
X193310530Y-134011297D01*
X193454904Y-134040015D01*
X193601398Y-134054443D01*
X193748602Y-134054443D01*
X193895096Y-134040015D01*
X194039470Y-134011297D01*
X194180335Y-133968566D01*
X194316333Y-133912234D01*
X194446154Y-133842843D01*
X194568549Y-133761061D01*
X194682338Y-133667677D01*
X194786427Y-133563588D01*
X194879811Y-133449799D01*
X194961593Y-133327404D01*
X195030984Y-133197583D01*
X195087316Y-133061585D01*
X195130047Y-132920720D01*
X195158765Y-132776346D01*
X195173193Y-132629852D01*
X195173193Y-132482648D01*
X195158765Y-132336154D01*
X195130047Y-132191780D01*
X195087316Y-132050915D01*
X195030984Y-131914917D01*
X194961593Y-131785096D01*
X194879811Y-131662701D01*
X194786427Y-131548912D01*
X194682338Y-131444823D01*
X194568549Y-131351439D01*
X194446154Y-131269657D01*
X194316333Y-131200266D01*
X194180335Y-131143934D01*
X194039470Y-131101203D01*
X193895096Y-131072485D01*
X193748602Y-131058057D01*
X193601398Y-131058057D01*
X193454904Y-131072485D01*
X193310530Y-131101203D01*
X193169665Y-131143934D01*
X193033667Y-131200266D01*
X192903846Y-131269657D01*
X192781451Y-131351439D01*
X192667662Y-131444823D01*
X192563573Y-131548912D01*
X192470189Y-131662701D01*
X192388407Y-131785096D01*
X192319016Y-131914917D01*
X192262684Y-132050915D01*
X192219953Y-132191780D01*
X192191235Y-132336154D01*
X192176807Y-132482648D01*
X191028192Y-132482648D01*
X191028192Y-132426221D01*
X191053682Y-132167414D01*
X191104417Y-131912353D01*
X191179908Y-131663492D01*
X191279428Y-131423229D01*
X191402019Y-131193878D01*
X191546500Y-130977647D01*
X191711480Y-130776619D01*
X191895369Y-130592730D01*
X192096397Y-130427750D01*
X192312628Y-130283269D01*
X192541979Y-130160678D01*
X192782242Y-130061158D01*
X193031103Y-129985667D01*
X193286164Y-129934932D01*
X193544971Y-129909442D01*
X193805029Y-129909442D01*
X194063836Y-129934932D01*
G37*
D20*
X193675000Y-132556250D03*
D21*
X-118141443Y-115453669D03*
X-120189323Y-116887610D03*
X-122237203Y-118321551D03*
D10*
G36*
X-113037123Y-119082155D02*
G01*
X-111398819Y-117935002D01*
X-109563375Y-120556289D01*
X-111201679Y-121703442D01*
X-113037123Y-119082155D01*
G37*
G36*
X-122211625Y-125506211D02*
G01*
X-120573321Y-124359058D01*
X-118737877Y-126980345D01*
X-120376181Y-128127498D01*
X-122211625Y-125506211D01*
G37*
D21*
X-109824585Y-127331373D03*
X-113920345Y-130199255D03*
X-113378943Y-144028669D03*
X-115426823Y-145462610D03*
X-117474703Y-146896551D03*
D10*
G36*
X-108274623Y-147657155D02*
G01*
X-106636319Y-146510002D01*
X-104800875Y-149131289D01*
X-106439179Y-150278442D01*
X-108274623Y-147657155D01*
G37*
G36*
X-117449125Y-154081211D02*
G01*
X-115810821Y-152934058D01*
X-113975377Y-155555345D01*
X-115613681Y-156702498D01*
X-117449125Y-154081211D01*
G37*
D21*
X-105062085Y-155906373D03*
X-109157845Y-158774255D03*
X-108616443Y-172603669D03*
X-110664323Y-174037610D03*
X-112712203Y-175471551D03*
D10*
G36*
X-103512123Y-176232155D02*
G01*
X-101873819Y-175085002D01*
X-100038375Y-177706289D01*
X-101676679Y-178853442D01*
X-103512123Y-176232155D01*
G37*
G36*
X-112686625Y-182656211D02*
G01*
X-111048321Y-181509058D01*
X-109212877Y-184130345D01*
X-110851181Y-185277498D01*
X-112686625Y-182656211D01*
G37*
D21*
X-100299585Y-184481373D03*
X-104395345Y-187349255D03*
M02*
